<mxfile host="Electron" agent="Mozilla/5.0 (Windows NT 10.0; Win64; x64) AppleWebKit/537.36 (KHTML, like Gecko) draw.io/24.7.17 Chrome/128.0.6613.36 Electron/32.0.1 Safari/537.36" version="24.7.17">
  <diagram name="第 1 页" id="BB6B2R9epGzONNcdU3po">
    <mxGraphModel dx="3398" dy="2262" grid="1" gridSize="10" guides="1" tooltips="1" connect="1" arrows="1" fold="1" page="1" pageScale="1" pageWidth="827" pageHeight="1169" math="0" shadow="0">
      <root>
        <mxCell id="0" />
        <mxCell id="1" parent="0" />
        <mxCell id="Qs5tFnQ5pcPWy0FM0qQY-54" value="" style="rounded=0;whiteSpace=wrap;html=1;" vertex="1" parent="1">
          <mxGeometry x="-535" y="610" width="360" height="90" as="geometry" />
        </mxCell>
        <mxCell id="Qs5tFnQ5pcPWy0FM0qQY-37" value="" style="rounded=0;whiteSpace=wrap;html=1;" vertex="1" parent="1">
          <mxGeometry x="-1170" y="10" width="540" height="170" as="geometry" />
        </mxCell>
        <mxCell id="Qs5tFnQ5pcPWy0FM0qQY-24" value="" style="rounded=0;whiteSpace=wrap;html=1;" vertex="1" parent="1">
          <mxGeometry x="-135" y="540" width="440" height="56" as="geometry" />
        </mxCell>
        <mxCell id="Qs5tFnQ5pcPWy0FM0qQY-23" value="" style="rounded=0;whiteSpace=wrap;html=1;" vertex="1" parent="1">
          <mxGeometry x="-135" y="596" width="440" height="314" as="geometry" />
        </mxCell>
        <mxCell id="Qs5tFnQ5pcPWy0FM0qQY-22" value="" style="rounded=0;whiteSpace=wrap;html=1;" vertex="1" parent="1">
          <mxGeometry x="-104" y="180" width="380" height="60" as="geometry" />
        </mxCell>
        <mxCell id="Qs5tFnQ5pcPWy0FM0qQY-21" value="" style="rounded=0;whiteSpace=wrap;html=1;" vertex="1" parent="1">
          <mxGeometry x="-104" y="-50" width="380" height="230" as="geometry" />
        </mxCell>
        <mxCell id="Qs5tFnQ5pcPWy0FM0qQY-18" value="" style="edgeStyle=orthogonalEdgeStyle;rounded=0;orthogonalLoop=1;jettySize=auto;html=1;" edge="1" parent="1" source="Qs5tFnQ5pcPWy0FM0qQY-2" target="Qs5tFnQ5pcPWy0FM0qQY-7">
          <mxGeometry relative="1" as="geometry" />
        </mxCell>
        <mxCell id="Qs5tFnQ5pcPWy0FM0qQY-19" value="" style="edgeStyle=orthogonalEdgeStyle;rounded=0;orthogonalLoop=1;jettySize=auto;html=1;" edge="1" parent="1" source="Qs5tFnQ5pcPWy0FM0qQY-2" target="Qs5tFnQ5pcPWy0FM0qQY-6">
          <mxGeometry relative="1" as="geometry" />
        </mxCell>
        <mxCell id="Qs5tFnQ5pcPWy0FM0qQY-2" value="&lt;b&gt;&lt;font style=&quot;font-size: 16px;&quot;&gt;largebin attack&lt;/font&gt;&lt;/b&gt;" style="rounded=1;whiteSpace=wrap;html=1;fillColor=#f8cecc;strokeColor=#b85450;" vertex="1" parent="1">
          <mxGeometry x="25" y="360" width="120" height="60" as="geometry" />
        </mxCell>
        <mxCell id="Qs5tFnQ5pcPWy0FM0qQY-6" value="&lt;span style=&quot;text-wrap: nowrap;&quot;&gt;glibc-2.30以前&lt;/span&gt;" style="rounded=1;whiteSpace=wrap;html=1;fillColor=#d5e8d4;strokeColor=#82b366;" vertex="1" parent="1">
          <mxGeometry x="25" y="240" width="120" height="60" as="geometry" />
        </mxCell>
        <mxCell id="Qs5tFnQ5pcPWy0FM0qQY-7" value="&lt;span style=&quot;text-wrap: nowrap;&quot;&gt;glibc-2.30及以后&lt;/span&gt;" style="rounded=1;whiteSpace=wrap;html=1;fillColor=#d5e8d4;strokeColor=#82b366;" vertex="1" parent="1">
          <mxGeometry x="25" y="480" width="120" height="60" as="geometry" />
        </mxCell>
        <mxCell id="Qs5tFnQ5pcPWy0FM0qQY-8" value="&lt;font style=&quot;font-size: 10px;&quot;&gt;大小超过0x400&lt;/font&gt;" style="text;html=1;align=center;verticalAlign=middle;resizable=0;points=[];autosize=1;strokeColor=none;fillColor=none;" vertex="1" parent="1">
          <mxGeometry x="40" y="400" width="90" height="30" as="geometry" />
        </mxCell>
        <mxCell id="Qs5tFnQ5pcPWy0FM0qQY-11" value="劫持bk和bk_nextsize,然后再释放一个较大的chunk进入该largebin&lt;div&gt;（进行插入操作时会先遍历找位置再插入），&lt;div&gt;即可在2个目标地址写入该释放chunk的地址，即一个较大的值&lt;/div&gt;&lt;/div&gt;" style="text;html=1;align=center;verticalAlign=middle;resizable=0;points=[];autosize=1;strokeColor=none;fillColor=none;" vertex="1" parent="1">
          <mxGeometry x="-100" y="180" width="370" height="60" as="geometry" />
        </mxCell>
        <mxCell id="Qs5tFnQ5pcPWy0FM0qQY-12" value="主要是利用如果插入的chunk小于 largebin中的 chunk （即最小的 chunk）时&lt;span style=&quot;background-color: initial;&quot;&gt;没有&lt;/span&gt;&lt;div&gt;&lt;span style=&quot;background-color: initial;&quot;&gt;对&lt;/span&gt;&lt;span style=&quot;background-color: initial;&quot;&gt;双向链表进行任何检查，&lt;/span&gt;&lt;span style=&quot;background-color: initial;&quot;&gt;此时只需要把largebin中最小chunk的bk_nextsize指针&lt;/span&gt;&lt;div&gt;&lt;div&gt;&lt;span style=&quot;background-color: initial;&quot;&gt;指向targetaddr-0x20即可向target处写入一个新地址&lt;/span&gt;&lt;/div&gt;&lt;/div&gt;&lt;/div&gt;" style="text;html=1;align=center;verticalAlign=middle;resizable=0;points=[];autosize=1;strokeColor=none;fillColor=none;" vertex="1" parent="1">
          <mxGeometry x="-140" y="540" width="450" height="60" as="geometry" />
        </mxCell>
        <mxCell id="Qs5tFnQ5pcPWy0FM0qQY-13" value="利用的主要源码部分：&lt;div&gt;&lt;div&gt;else&lt;/div&gt;&lt;div&gt;{&lt;/div&gt;&lt;div&gt;&amp;nbsp; &amp;nbsp; victim-&amp;gt;fd_nextsize = fwd;&lt;/div&gt;&lt;div&gt;&amp;nbsp; &amp;nbsp; victim-&amp;gt;bk_nextsize = fwd-&amp;gt;bk_nextsize;&lt;/div&gt;&lt;div&gt;&amp;nbsp; &amp;nbsp; fwd-&amp;gt;bk_nextsize = victim;&lt;/div&gt;&lt;div&gt;&lt;b&gt;&amp;nbsp; &amp;nbsp; victim-&amp;gt;bk_nextsize-&amp;gt;fd_nextsize = victim;&lt;/b&gt;&lt;/div&gt;&lt;div&gt;}&lt;/div&gt;&lt;div&gt;&lt;br&gt;&lt;/div&gt;&lt;div&gt;bck = fwd-&amp;gt;bk;&lt;/div&gt;&lt;div&gt;&lt;br&gt;&lt;/div&gt;&lt;div&gt;victim-&amp;gt;bk = bck;&lt;/div&gt;&lt;div&gt;victim-&amp;gt;fd = fwd;&lt;/div&gt;&lt;div&gt;fwd-&amp;gt;bk = victim;&lt;/div&gt;&lt;div&gt;&lt;b&gt;bck-&amp;gt;fd = victim;&lt;/b&gt;&lt;/div&gt;&lt;/div&gt;" style="text;html=1;align=left;verticalAlign=middle;resizable=0;points=[];autosize=1;strokeColor=none;fillColor=none;" vertex="1" parent="1">
          <mxGeometry x="-64" y="-50" width="280" height="230" as="geometry" />
        </mxCell>
        <mxCell id="Qs5tFnQ5pcPWy0FM0qQY-14" value="&lt;div style=&quot;text-align: left;&quot;&gt;&lt;span style=&quot;background-color: initial;&quot;&gt;对以前的利用点添加了两项检查：&lt;/span&gt;&lt;/div&gt;&lt;div style=&quot;text-align: left;&quot;&gt;fwd-&amp;gt;bk_nextsize-&amp;gt;fd_nextsize != fwd&lt;br&gt;&lt;/div&gt;&lt;div style=&quot;text-align: left;&quot;&gt;bck-&amp;gt;fd != fwd&lt;br&gt;&lt;/div&gt;" style="text;html=1;align=center;verticalAlign=middle;resizable=0;points=[];autosize=1;strokeColor=none;fillColor=none;" vertex="1" parent="1">
          <mxGeometry x="145" y="480" width="220" height="60" as="geometry" />
        </mxCell>
        <mxCell id="Qs5tFnQ5pcPWy0FM0qQY-15" value="利用的主要源码部分：&lt;div&gt;&lt;div&gt;bck = bin_at (av, victim_index);&lt;/div&gt;&lt;div&gt;fwd = bck-&amp;gt;fd;&lt;/div&gt;&lt;div&gt;if (fwd != bck)&lt;/div&gt;&lt;div&gt;{&lt;/div&gt;&lt;div&gt;&lt;span style=&quot;white-space-collapse: collapse;&quot;&gt;&lt;span style=&quot;white-space-collapse: preserve;&quot;&gt;&#x9;&lt;/span&gt;...&lt;/span&gt;&lt;/div&gt;&lt;div&gt;&amp;nbsp; &amp;nbsp; if ((unsigned long) (size) &amp;lt; (unsigned long) chunksize_nomask (bck-&amp;gt;bk))&lt;/div&gt;&lt;div&gt;&amp;nbsp; &amp;nbsp; {&lt;/div&gt;&lt;div&gt;&amp;nbsp; &amp;nbsp; &amp;nbsp; &amp;nbsp; fwd = bck;&lt;/div&gt;&lt;div&gt;&amp;nbsp; &amp;nbsp; &amp;nbsp; &amp;nbsp; bck = bck-&amp;gt;bk;&lt;/div&gt;&lt;div&gt;&amp;nbsp; &amp;nbsp; &amp;nbsp; &amp;nbsp; victim-&amp;gt;fd_nextsize = fwd-&amp;gt;fd;&lt;/div&gt;&lt;div&gt;&amp;nbsp; &amp;nbsp; &amp;nbsp; &amp;nbsp; victim-&amp;gt;bk_nextsize = fwd-&amp;gt;fd-&amp;gt;bk_nextsize;&lt;/div&gt;&lt;div&gt;&lt;b&gt;&amp;nbsp; &amp;nbsp; &amp;nbsp; &amp;nbsp; fwd-&amp;gt;fd-&amp;gt;bk_nextsize = victim-&amp;gt;bk_nextsize-&amp;gt;fd_nextsize = victim;&lt;/b&gt;&lt;/div&gt;&lt;div&gt;&lt;span style=&quot;white-space-collapse: collapse;&quot;&gt;&lt;span style=&quot;white-space-collapse: preserve;&quot;&gt;&#x9;&lt;/span&gt;}&lt;/span&gt;&lt;/div&gt;&lt;div&gt;...&lt;/div&gt;&lt;div&gt;}&lt;/div&gt;&lt;div&gt;&lt;br&gt;&lt;/div&gt;&lt;div&gt;victim-&amp;gt;bk = bck;&lt;/div&gt;&lt;div&gt;victim-&amp;gt;fd = fwd;&lt;/div&gt;&lt;div&gt;fwd-&amp;gt;bk = victim;&lt;/div&gt;&lt;div&gt;bck-&amp;gt;fd = victim;&lt;/div&gt;&lt;/div&gt;" style="text;html=1;align=left;verticalAlign=middle;resizable=0;points=[];autosize=1;strokeColor=none;fillColor=none;" vertex="1" parent="1">
          <mxGeometry x="-114" y="593" width="430" height="320" as="geometry" />
        </mxCell>
        <mxCell id="Qs5tFnQ5pcPWy0FM0qQY-32" value="" style="edgeStyle=orthogonalEdgeStyle;rounded=0;orthogonalLoop=1;jettySize=auto;html=1;" edge="1" parent="1" source="Qs5tFnQ5pcPWy0FM0qQY-25" target="Qs5tFnQ5pcPWy0FM0qQY-26">
          <mxGeometry relative="1" as="geometry" />
        </mxCell>
        <mxCell id="Qs5tFnQ5pcPWy0FM0qQY-25" value="&lt;b&gt;&lt;font style=&quot;font-size: 16px;&quot;&gt;unsotedbin&lt;/font&gt;&lt;/b&gt;" style="rounded=1;whiteSpace=wrap;html=1;fillColor=#f8cecc;strokeColor=#b85450;" vertex="1" parent="1">
          <mxGeometry x="-960" y="360" width="120" height="60" as="geometry" />
        </mxCell>
        <mxCell id="Qs5tFnQ5pcPWy0FM0qQY-26" value="&lt;span style=&quot;text-wrap: nowrap;&quot;&gt;glibc-2.28以前attack&lt;/span&gt;" style="rounded=1;whiteSpace=wrap;html=1;fillColor=#d5e8d4;strokeColor=#82b366;" vertex="1" parent="1">
          <mxGeometry x="-960" y="240" width="120" height="60" as="geometry" />
        </mxCell>
        <mxCell id="Qs5tFnQ5pcPWy0FM0qQY-27" value="&lt;span style=&quot;text-wrap: nowrap;&quot;&gt;leak&lt;/span&gt;" style="rounded=1;whiteSpace=wrap;html=1;fillColor=#d5e8d4;strokeColor=#82b366;" vertex="1" parent="1">
          <mxGeometry x="-960" y="480" width="120" height="60" as="geometry" />
        </mxCell>
        <mxCell id="Qs5tFnQ5pcPWy0FM0qQY-28" value="" style="rounded=0;whiteSpace=wrap;html=1;" vertex="1" parent="1">
          <mxGeometry x="-1160" y="540" width="580" height="100" as="geometry" />
        </mxCell>
        <mxCell id="Qs5tFnQ5pcPWy0FM0qQY-29" value="由于unsorted是双向链表，因此该链表中必有一个指针指向main_arena结构体，进而可以泄露libc地址" style="text;html=1;align=center;verticalAlign=middle;resizable=0;points=[];autosize=1;strokeColor=none;fillColor=none;" vertex="1" parent="1">
          <mxGeometry x="-1150" y="550" width="560" height="30" as="geometry" />
        </mxCell>
        <mxCell id="Qs5tFnQ5pcPWy0FM0qQY-30" value="释放一个chunk进入unsortedbin中即可保存libc中的地址&lt;div&gt;释放一个chunk进入unsortedbin中再malloc回来里面仍然保存了libc中的地址&lt;/div&gt;&lt;div&gt;同样，释放两个chunk进入unsortedbin中，那么同理可泄露heap地址，但要注意0截断&lt;/div&gt;" style="text;html=1;align=left;verticalAlign=middle;resizable=0;points=[];autosize=1;strokeColor=none;fillColor=none;" vertex="1" parent="1">
          <mxGeometry x="-1140" y="570" width="480" height="60" as="geometry" />
        </mxCell>
        <mxCell id="Qs5tFnQ5pcPWy0FM0qQY-33" value="" style="edgeStyle=orthogonalEdgeStyle;rounded=0;orthogonalLoop=1;jettySize=auto;html=1;" edge="1" parent="1" source="Qs5tFnQ5pcPWy0FM0qQY-31" target="Qs5tFnQ5pcPWy0FM0qQY-27">
          <mxGeometry relative="1" as="geometry" />
        </mxCell>
        <mxCell id="Qs5tFnQ5pcPWy0FM0qQY-31" value="&lt;font style=&quot;font-size: 10px;&quot;&gt;头插尾取&lt;/font&gt;" style="text;html=1;align=center;verticalAlign=middle;resizable=0;points=[];autosize=1;strokeColor=none;fillColor=none;" vertex="1" parent="1">
          <mxGeometry x="-930" y="400" width="60" height="30" as="geometry" />
        </mxCell>
        <mxCell id="Qs5tFnQ5pcPWy0FM0qQY-34" value="" style="rounded=0;whiteSpace=wrap;html=1;" vertex="1" parent="1">
          <mxGeometry x="-1170" y="180" width="540" height="60" as="geometry" />
        </mxCell>
        <mxCell id="Qs5tFnQ5pcPWy0FM0qQY-35" value="利用UAF，修改bk指针到fakechunk，再从unsortedbin中malloc一个chunk时，fakechunk的fd值被修改" style="text;html=1;align=center;verticalAlign=middle;resizable=0;points=[];autosize=1;strokeColor=none;fillColor=none;" vertex="1" parent="1">
          <mxGeometry x="-1180" y="195" width="560" height="30" as="geometry" />
        </mxCell>
        <mxCell id="Qs5tFnQ5pcPWy0FM0qQY-36" value="&lt;div&gt;利用的主要源码部分：&lt;/div&gt;&lt;div&gt;while ((victim = unsorted_chunks (av)-&amp;gt;bk) != unsorted_chunks (av))&lt;/div&gt;&lt;div&gt;{&lt;/div&gt;&lt;div&gt;&amp;nbsp; bck = victim-&amp;gt;bk;&lt;/div&gt;&lt;div&gt;&amp;nbsp; ...&lt;/div&gt;&lt;div&gt;&amp;nbsp; ...&lt;/div&gt;&lt;div&gt;&amp;nbsp; ...&lt;/div&gt;&lt;div&gt;&amp;nbsp; /* remove from unsorted list */&lt;/div&gt;&lt;div&gt;&amp;nbsp; unsorted_chunks (av)-&amp;gt;bk = bck;&lt;/div&gt;&lt;div&gt;&lt;b&gt;&amp;nbsp; bck-&amp;gt;fd = unsorted_chunks (av);&lt;/b&gt;&lt;/div&gt;" style="text;html=1;align=left;verticalAlign=middle;resizable=0;points=[];autosize=1;strokeColor=none;fillColor=none;" vertex="1" parent="1">
          <mxGeometry x="-1080" y="10" width="390" height="160" as="geometry" />
        </mxCell>
        <mxCell id="Qs5tFnQ5pcPWy0FM0qQY-38" value="" style="rounded=0;whiteSpace=wrap;html=1;" vertex="1" parent="1">
          <mxGeometry x="-535" y="540" width="360" height="70" as="geometry" />
        </mxCell>
        <mxCell id="Qs5tFnQ5pcPWy0FM0qQY-40" value="" style="rounded=0;whiteSpace=wrap;html=1;" vertex="1" parent="1">
          <mxGeometry x="-544" y="180" width="380" height="60" as="geometry" />
        </mxCell>
        <mxCell id="Qs5tFnQ5pcPWy0FM0qQY-41" value="" style="rounded=0;whiteSpace=wrap;html=1;" vertex="1" parent="1">
          <mxGeometry x="-544" y="-50" width="380" height="230" as="geometry" />
        </mxCell>
        <mxCell id="Qs5tFnQ5pcPWy0FM0qQY-42" value="" style="edgeStyle=orthogonalEdgeStyle;rounded=0;orthogonalLoop=1;jettySize=auto;html=1;" edge="1" parent="1" source="Qs5tFnQ5pcPWy0FM0qQY-44" target="Qs5tFnQ5pcPWy0FM0qQY-46">
          <mxGeometry relative="1" as="geometry" />
        </mxCell>
        <mxCell id="Qs5tFnQ5pcPWy0FM0qQY-43" value="" style="edgeStyle=orthogonalEdgeStyle;rounded=0;orthogonalLoop=1;jettySize=auto;html=1;" edge="1" parent="1" source="Qs5tFnQ5pcPWy0FM0qQY-44" target="Qs5tFnQ5pcPWy0FM0qQY-45">
          <mxGeometry relative="1" as="geometry" />
        </mxCell>
        <mxCell id="Qs5tFnQ5pcPWy0FM0qQY-44" value="&lt;b&gt;&lt;font style=&quot;font-size: 16px;&quot;&gt;fastbin&lt;/font&gt;&lt;/b&gt;" style="rounded=1;whiteSpace=wrap;html=1;fillColor=#f8cecc;strokeColor=#b85450;" vertex="1" parent="1">
          <mxGeometry x="-415" y="360" width="120" height="60" as="geometry" />
        </mxCell>
        <mxCell id="Qs5tFnQ5pcPWy0FM0qQY-45" value="&lt;span style=&quot;text-wrap: nowrap;&quot;&gt;double free&lt;/span&gt;" style="rounded=1;whiteSpace=wrap;html=1;fillColor=#d5e8d4;strokeColor=#82b366;" vertex="1" parent="1">
          <mxGeometry x="-415" y="240" width="120" height="60" as="geometry" />
        </mxCell>
        <mxCell id="Qs5tFnQ5pcPWy0FM0qQY-46" value="&lt;span style=&quot;text-wrap: nowrap;&quot;&gt;attack&lt;/span&gt;" style="rounded=1;whiteSpace=wrap;html=1;fillColor=#d5e8d4;strokeColor=#82b366;" vertex="1" parent="1">
          <mxGeometry x="-415" y="480" width="120" height="60" as="geometry" />
        </mxCell>
        <mxCell id="Qs5tFnQ5pcPWy0FM0qQY-47" value="&lt;font style=&quot;font-size: 10px;&quot;&gt;size&amp;nbsp;[0x20, 0x80]&lt;/font&gt;" style="text;html=1;align=center;verticalAlign=middle;resizable=0;points=[];autosize=1;strokeColor=none;fillColor=none;" vertex="1" parent="1">
          <mxGeometry x="-405" y="400" width="100" height="30" as="geometry" />
        </mxCell>
        <mxCell id="Qs5tFnQ5pcPWy0FM0qQY-48" value="free chunk1、free chunk2、free chun1，那么就构造了一个循环的结构，&lt;div&gt;后续的构造利用通fastbin attack，也是在fd处写入target然后申请出来&lt;/div&gt;&lt;div&gt;利用了double free，在没有uaf的前提下&lt;/div&gt;" style="text;html=1;align=left;verticalAlign=middle;resizable=0;points=[];autosize=1;strokeColor=none;fillColor=none;" vertex="1" parent="1">
          <mxGeometry x="-544" y="180" width="410" height="60" as="geometry" />
        </mxCell>
        <mxCell id="Qs5tFnQ5pcPWy0FM0qQY-49" value="UAF修改fastbin的fd为target，但fd 指向的内存能申请出来的&lt;div&gt;前提是该内存对应 size 处的值与该 fastbin 对应 size 相同，&lt;div&gt;通常修改fd指针为__malloc_hook 往前 0x23 的&lt;span style=&quot;background-color: initial;&quot;&gt;偏移，&lt;/span&gt;&lt;/div&gt;&lt;div&gt;&lt;span style=&quot;background-color: initial;&quot;&gt;这样就可以确保size为0x7f&lt;/span&gt;&lt;/div&gt;&lt;/div&gt;" style="text;html=1;align=center;verticalAlign=middle;resizable=0;points=[];autosize=1;strokeColor=none;fillColor=none;" vertex="1" parent="1">
          <mxGeometry x="-525" y="542" width="340" height="70" as="geometry" />
        </mxCell>
        <mxCell id="Qs5tFnQ5pcPWy0FM0qQY-52" value="源码size检查部分：&lt;div&gt;&lt;div&gt;&lt;span style=&quot;white-space-collapse: collapse;&quot;&gt;size_t victim_idx = fastbin_index (chunksize (victim));&lt;/span&gt;&lt;/div&gt;&lt;div&gt;&lt;span style=&quot;white-space-collapse: collapse;&quot;&gt;if (__builtin_expect (victim_idx != idx, 0))&lt;/span&gt;&lt;/div&gt;&lt;div&gt;&lt;span style=&quot;white-space-collapse: collapse;&quot;&gt;&amp;nbsp; &amp;nbsp; &amp;nbsp;malloc_printerr (&quot;malloc(): memory corruption (fast)&quot;);&lt;/span&gt;&lt;/div&gt;&lt;/div&gt;" style="text;html=1;align=left;verticalAlign=middle;resizable=0;points=[];autosize=1;strokeColor=none;fillColor=none;" vertex="1" parent="1">
          <mxGeometry x="-514" y="620" width="320" height="70" as="geometry" />
        </mxCell>
        <mxCell id="Qs5tFnQ5pcPWy0FM0qQY-53" value="&lt;font style=&quot;font-size: 10px;&quot;&gt;LIFO 后进先出，类似于栈结构&lt;/font&gt;" style="text;html=1;align=center;verticalAlign=middle;resizable=0;points=[];autosize=1;strokeColor=none;fillColor=none;" vertex="1" parent="1">
          <mxGeometry x="-435" y="390" width="160" height="30" as="geometry" />
        </mxCell>
        <mxCell id="Qs5tFnQ5pcPWy0FM0qQY-56" value="" style="shape=image;verticalLabelPosition=bottom;labelBackgroundColor=default;verticalAlign=top;aspect=fixed;imageAspect=0;image=data:image/png,iVBORw0KGgoAAAANSUhEUgAABDwAAAPOCAIAAABs9Z8oAAAAAXNSR0IArs4c6QAAIABJREFUeAHs3Qd4FNXCxvF5JEqEEDpEAkSaXhAFAbFQlGIDQUXE8llR8V7FgpEigixFQeCiIITeMRB6LyGACaHXNEhoCS0JTUogJKTMRzjc4zC7CdndZHey++fJg7Oz58yc8zu78bxMU1T+IIAAAggggAACCCCAAAIGFlAM3DaahgACCCCAAAIIIIAAAgiohBY+BAgggAACCCCAAAIIIGBoAUKLoYeHxiGAAAIIIIAAAggggAChhc8AAggggAACCCCAAAIIGFqA0GLo4aFxCCCAAAIIIIAAAgggQGjhM4AAAggggAACCCCAAAKGFiC0GHp4aBwCCCCAAAIIIIAAAggQWvgMIIAAAggggAACCCCAgKEFCC2GHh4ahwACCCCAAAIIIIAAAoQWPgMIIIAAAggggAACCCBgaAFCi6GHh8YhgAACCCCAAAIIIIAAoYXPAAIIIIAAAggggAACCBhagNBi6OGhcQgggAACCCCAAAIIIEBo4TOAAAIIIIAAAggggAAChhYgtBh6eGgcAggggAACCCCAAAIIEFr4DCCAAAIIIIAAAggggIChBQgthh4eGocAAggggAACCCCAAAKEFj4DCCCAAAIIIIAAAgggYGgBQouhh4fGIYAAAggggAACCCCAAKGFzwACCCCAAAIIIIAAAggYWoDQYujhoXEIIIAAAggggAACCCBAaOEzgAACCCCAAAIIIIAAAoYWILQYenhoHAIIIIAAAggggAACCBBa+AwggAACCCCAAAIIIICAoQUILYYeHhqHAAIIIIAAAggggAAChBY+AwgggAACCCCAAAIIIGBoAUKLoYeHxiGAAAIIIIAAAggggAChhc8AAggggAACCCCAAAIIGFqA0GLo4aFxCCCAAAIIIIAAAgggQGjhM4AAAggggAACCCCAAAKGFiC0GHp4aBwCbiWQmZF1/Wra9avptv6kZWRkupUYnUUAAQQQQMBNBAgtbjLQdBMBowtkZWXNG7FqYu8ge35mDFqSnZVt9K7SPgQQQAABBBCwUoDQYiUYxRFAoHAEsjKzZg5aEuAfaM/PhN7zMjnYUjgDxFYRQAABBBBwogChxYn47BoBBP4RyMrMmjVo6fjv50aHHzm4/Zi1P1GbD0/oOW9i7yBCyz+mLCGAAAIIIOAqAoQWVxlJ+oFAERe4HVp6zj2898TxmCRrf+KjTk/uO5/QUsQ/BTQfAQQQQAABywKEFssurEUAAQcL2B1aEif3XUBocfCosTsEEEAAAQQcI0BocYwze0EAgbsIEFruAsTbCCCAAAIIuLEAocWNB5+uI2AkAUKLkUaDtiCAAAIIIGAsAUKLscaD1iDgtgKEFrcdejqOAAIIIIDAXQUILXclogACCDhCgNCiU87MzNywYcNnn3324IMPKori7e3dtGnTxMREXTEDvpw5c6aiKD179rS5bVlZWZMmTTKZTJMmTcrKyrJ5Ow6ouGfPHtOtPwkJCXbubtOmTSaTacaMGRa3c+rUqUceeURRlClTplgswEoEEEDAtQUILa49vvQOgSIjQGjRDlV2dra/v79y55/q1atfvnxZW8yAy0eOHKlYsWK1atXOnz9vc/MyMjKaNGmiKEqTJk0yMjJs3o4DKt4MV2KUQkND7dldcnKySKetWrXKbTuxsbHVqlWrUKHC4cOHcyvDegQQQMBVBQgtrjqy9AuBIiZAaNEO2OHDh0uWLClmw35+ft27d+/Vq5fJZDL4YYe0tLROnTopijJmzBhtd6xddrfQkpaW1qVLFzHceYQWVVUnTJigKErHjh0NnuWsHXHKI4AAAncVILTclYgCCCDgCAFCi1Z5+fLlYgpbqVKlU6dOad8y7HJ6evr333/v4eFRt27dlJQUe9rpVqElLS3to48+EsOtKEreoSUlJaVevXqKoixfvtweYeoigAACRU6A0FLkhowGI+CaAoQW7bhOmzZNzGJbtGiRnZ2tfcuwy/PnzxdtHjt2rJ2NdJ/Qcvbs2Xbt2snEctfQoqrqxIkTb4aWRo0aXb9+3U5nqiOAAAJFSIDQUoQGi6Yi4MoChBbt6MorJfL+d3dtFecup6enP/HEE4qi+Pj4nD171s7GuENoyc7OXrx4cbVq1RRF8fDwqF+/vogudx3xs2fP+vj4KIoyb948O52pjgACCBQhAUJLERosmoqAKwsQWlRVlXfN6tChg5jC1qhRQ9ycauTIkampqaqqBgUFmUymoKAg8WmIjIwcOXLkmDFjIiIizI/JZGdnR0dH3zxuYzKZRo0aFRoampaWlp+PUXp6enh4+JgxY8QtvCIiIvK+nGbNmjWiwe+//37e209PTw8LCxs1apTJZJo2bVp0dLR5s81DS3Z2dlRUVEBAgKgVFxdncS+XL18WXGFhYRYLpKamjhw5Ugsoip05c0Z3E7BLly6FhIQMHz58yJAhy5cvz+0WCDJeWrwQf/HixWKzU6ZM0QJeu3bttddeE2Lly5efMWOGOH6SnyMtqqp++umniqI0b96cK1ssjjIrEUDAJQUILS45rHQKgaInQGhRVVVO1sV0Vvu3j4+PuB+XuNK9U6dON27c6N27t4eHhyz2888/y4HPzs5eunSpuEmuLHDzEvly5cp9+OGHe/bskSV1CykpKb/++mvFihW1tRRFeeihhxYsWJCZmakrL1527txZlF+5cqXFAqqqJiUlDRgwoHz58rotN2jQYNy4cdpUIB2aNGly9erVoKCgp59+Wlfr+eefN7+J1okTJ0SxIUOGWGzG+fPnxWGKTp06aQtERkaKiqGhoceOHWvfvr1udyVKlOjZs6fIjdqKeYSWWbNmeXp63rxJcdWqVQ8cOKCtJZvRuXNnca9kuZ27HmlRVVVERA8Pj927d2s3yzICCCDgwgKEFhceXLqGQFESILSoqpqZmfnTTz999NFHzZo1E5PmKlWqfHTrz1dffXXlyhVVVUVoadasmZhYlyhR4rnnnqtXr56Xl5c8/hATE9OiRQs57a5evXrbtm0ff/zxe++9V6wsUaLE3LlzzT8fQUFBYk4vitWvX79t27Z16tSRm3ryySejo6N1FZOTk8uUKaMoSu3atc+cOaN7V7wcN27c/fffL7cjtly9enW5plmzZhcvXhSFZWipU6eOzA8eHh41atR44IEHZBVfX9+TJ09qd2d/aJk+fbqvr6/YRalSpWrVqlWiRAm5x/fff197wERVVRk2dEda5s2bJxKLn5+fHBfZ1AsXLnz00Uc7d+6Ua+R28hNazp49W6FCBUVR/P395RZYQAABBFxbgNDi2uNL7xAoMgKEFu1Q5TGFFaFFTKPLlCmzd+9eUXHTpk3iPKusrKy2bdvKefYff/wh59kxMTFyRl61atVz585pd3ru3LmqVauKihUqVNDOwufPn1+8eHHxVtu2beUGRfXQ0FDx1qeffnrjxg3tNsVyQkKCSDWKomi3nJGR0aNHD21TRXkZWuRbjz766LFjx1RVzc7ODgoKko3573//q92d/aGlXLlyIn2tXr1a9OXq1asdO3YULSlevLhohtypHCkt19atW2X2W7NmjSycx4LcTn5Ci/QpQvdpyKPvvIUAAgjkR4DQkh8lyiCAQKELEFq0xHlMYbWhZeLEidpaYjkkJEScM+bp6Tlz5kxdgbi4uDZt2ogpeN++fbXv9u/fX6z39fWVWUgWWL58ube3t7hqPDg4WK5XVfXmpS+iYm4Pa7/5kBlRoEKFCuHh4dq66enpb731lnhX3hFLTsoVRfH29h48ePDff/+trTV+/HhRpV27dtpLYuwPLeJakdOnT2t3d/Xq1RdeeEHscc6cOdq35EjJ0LJ69WqZ/fr27asLeNq62mW5nfyEFnnArWrVqpcuXdJuh2UEEEDAVQUILa46svQLgSImQGjRDlgeU1gZWtq0aaO9DkRU1x5m6dmzp3abcvn69eutWrXS3elL3pMqj2eADBgwQEzcdQdbRJMqVqyou3JD7FFev6EoyvTp02Uz5MKJEydq1qwptizOmNKGlqFDh8qSciE1NVU8rqROnTra40X2hxZvb+/Y2Fi5I7kQHh4uWvjFF1/IleanhwUHB4topyjKTz/9lM/Eot1OPkPL0KFDRXvM46W2eSwjgAACLiNAaHGZoaQjCBRtAUKLdvzyE1rGjx+vrSKWjx49Kq7BKFWqlPmlFLL8rFmzxJRXPqNQPmXlnXfeye0BILGxseK8LC8vrxMnToityYDx6KOPiqtu5F7EwsqVK8W+WrRokdthgQ0bNixatCg2NlackSW3WaJEifj4eN0Gxcs333xT5C5txrA/tLRu3Vp76EbuOjk5uXTp0oqi6K7glyMVGhq6efNmcXaZtYnFhtCycOFCoTp//nzZSBYQQAABFxYgtLjw4NI1BIqSAKFFO1pyKmz+7+7isIaXl5fFf2JftmyZmMs+8cQT69evD8/lz9SpU0Wx/v37i/12795drOnbt28ulcKDg4MbNWokioWEhIiKly9fFtfTmzdVFLh5z19RZcyYMdo+5rEsQ0vt2rXNb9glKnbt2lVRFJ2D/aGlW7duFhsmjxflFlqGDh0qLo5XFKVDhw4pKSkWt5PbyjxG3GKVsLAwoTpixAiLBViJAAIIuJgAocXFBpTuIFBUBQgt2pHLYworQouPj4/2CIOsO3r0aDGXzeffH3zwgagrb9KVz4ryQTFnzpwRhxdeffVV2Qztwrvvviu2uXnzZu36PJZlaGnSpElujyIRoUVRFO1FMvaHFmvvlSxHSuc2ePDgPDpo/pbcTm7ZT1dF3qP5m2++0b3FSwQQQMAlBQgtLjmsdAqBoidAaNGOWR5T2LxDy5AhQ3Sz57xfdunSRexXXOWSd2Htu9OmTRMVZU7QHYKQ3REN1qUL+a7FhSIaWvz8/D7//HOh5O3tvW/fPou9s7gyjxG3WF6Glq5du1oswEoEEEDAxQQILS42oHQHgaIqQGjRjlweU9i8Q8vNJ82LSXOvXr3yfxW4qqovv/yyoiilS5fev3+/tiV3XT59+rS4iia30PL222+LJrn2kZYHH3wwLi4uNTVVPmOnefPmuV0dZK6ax4ibF7559zBCi0UWViKAgAsLEFpceHDpGgJFSYDQoh2tPKaweYeWuXPnioTQunVri5fFa/eiXf7www9FxUmTJmnX33X5woUL4oGPL774osXCvXv3FlvO45qWc+fOzZo1a+vWrWfPnlVV1f4jLd99953FxiQlJXl5eZlfTy8zgM2nh61bt07scdeuXRUrVhRdHj58uMVmmK/MY8TNC6uqunPnTrELa89Ds7g1ViKAAALGFyC0GH+MaCECbiFAaNEOcx5T2LxDS3R0tHhIi6IoW7Zs0W5TuxwXFzdr1qxt27ZduHBBrJ82bZqYBD/xxBO6h6LIileuXBk3btyCBQv2799/7do1sT4tLe2RRx5RFOWpp55KT0+XheWCvM9VG0v3aBbFpk+frp2C2x9aPvroI9kA7cLmzZvFjnTHhewPLfI5LaqqbtiwQeSWsmXLWrwNtLZJYjmPETcvrKrq2rVrRUemTp1qsQArEUAAARcTILS42IDSHQSKqgChRTtyeUxh8w4tKSkp8pknX331lXab2mX5HEl5XGXv3r1iEqwoypIlS7SF5fL69etlmcjISLE+Ozu7RYsW4iny58+fl4XlwtGjR2WtrVu3yvVyISUlpW3btqLMqlWr7DnSkpiYWKpUKUVRXnnlFbl97cKIESPEjgo1tKiq+uWXX4odffnll9oG5Lacx4hbrCJvWi3ELJZhJQIIIOBKAoQWVxpN+oJAERYgtGgHL48pbN6hRVXVzz77TEyXK1asGBUVpd2sWN67d6+fn5+4X7B8lktqamrDhg1FxSeffNL8gSo3btzo0KGDKNCwYUPtnYjFI+3LlCkTERFhvrv09PSnnnpKVPzwww8zMzN1ZeShGB8fHztPD0tJSaldu7aiKFWqVElOTtbt6OzZs+KRlIVxepj2SIuqqjExMeK5LuXLl5fIuvZoX+Yx4tpiclneSFqmR/kWCwgggIBLChBaXHJY6RQCRU+A0KIdszymsHcNLSdPnvT19RUhwdfXd+HChTInXLlypV+/fuIBkYqi9OjRQ7vTdevWeXp6ytyye/du+e7x48fFwxwVRfHw8Fi0aJF8S1XVCRMmiFpjx47VrpfLmzZtklv++OOPZZzIzMycO3eufCDjsGHDRBWbTw9TVfWTTz4RjWnZsqVMC1lZWcHBwfXr1/fw8ChfvrwDQouqqsOGDRMteeWVV8RDMyWI+UIeI25eWFVVESBr1Khh1ZVLFjfFSgQQQKBICBBaisQw0UgEXF+A0KId4zymsHcNLaqqbt++vUGDBmLGrChKhQoVWrVq9cwzz4jbfIn1b7zxhrwuRe56woQJZcqUkRVr1qzZtm3bhg0byutkihcvPmTIEN0z4+WFNHlc/a/d8r333tukSZM2bdr4+PjIfXXt2lXO7O0JLYcOHZIPeRR9r1Wrljhn7Oa+TCbT66+/7pjQcu3atcaNG4sOTp48WSJbXMhjxM3LX7lypVatWoqivPHGG+bvsgYBBBBwSQFCi0sOK51CoOgJEFq0Y5bHFDY/oUVV1czMzNmzZ9etW1emArHg4eHRoEGDcePGyYSg3e/NizHOnTs3cOBAcThCW9fLy+vbb789evSorryqqjdu3JCz823btpkXEGuSkpL69eunDUVi++3btw8JCZGHg+y5pkXsKCYmpmXLltrGK4pSuXLlqVOnZmdnC8DCvqZFtCQsLEwcYqpUqVJ8fHxuMqqq5jHi5rV2794teicf8WlehjUIIICAiwkQWlxsQOkOAkVVgNCiHbk9e/bcvGjBZDLNmDFDu15V1aCgIJPJNHLkSItXvesKZ2dnHzx4cMaMGSaTadiwYYsXL5anZulK6l6mp6dv27Zt3LhxJpNp1KhRwcHBV69e1ZXRvpTPh+nTp492vfnytWvXQkJCbpY3mUxz5syxOJXPysq6OYk3mUyTJk3K7Wkzy5YtE0QnTpww34uqqnFxcZMnTzaZTMOHDw8JCUlLSxPFBKBuun/mzBmxtbCwMItbS01NHTlypMlk0lWUI5WQkGBeMTs7e+bMmWLLwcHB5gXkGrkd8xGXZeTCgAEDFEXx8/O7ePGiXMkCAggg4NoChBbXHl96h0CRESC0FJmhstTQ06dPly1bVlGU+vXra6/Rt1SWdXYJpKWliVsm9OrVy64NURkBBBAoUgKEliI1XDQWAdcVILQU9bH96quvxDlLGzZsKOp9MXL7//rrL0VRSpcuffjwYSO3k7YhgAACBStAaClYT7aGAAI2ChBabIQzTLWjR4/WqFFDUZSOHTvqrtQ3TBuLfEOys7O7dOmiKMrXX39d5DtDBxBAAAFrBAgt1mhRFgEECk2A0FJotI7b8I4dOypVquTp6bl3717H7dWd9hQZGVmyZMlKlSrldiWPO2HQVwQQcC8BQot7jTe9RcCwAoQWww6NVQ377rvvFEXp2bOnVbUonE+B/v37K4ry5Zdf5rM8xRBAAAGXESC0uMxQ0hEEirYAoaVoj9//Wi8ek1KtWrX83Nzsf5X4b74Ejh49WqtWrbJlyx44cCBfFSiEAAIIuJAAocWFBpOuIFCUBQgtRXn07mj7tGnTFEXp27fvHWt5YZ9AYmJi06ZNFUWZOHGifVuiNgIIIFAkBQgtRXLYaDQCridAaHG9MaVHCCCAAAIIFJQAoaWgJNkOAgjYJUBosYuPyggggAACCLi0AKHFpYeXziFQdAQILUVnrGgpAggggAACjhYgtDhanP0hgIBFAUKLRRZWIoAAAggggICqqoQWPgYIIGAIAUKLIYaBRiCAAAIIIGBIAUKLIYeFRiHgfgKEFvcbc3qMAAIIIIBAfgUILfmVohwCCBSqAKGlUHnZOAIIIIAAAkVagNBSpIePxiPgOgKEFtcZS3qCAAIIIIBAQQsQWgpalO0hgIBNAoQWm9iohAACCCCAgFsIEFrcYpjpJALGFyC0GH+MaCECCCCAAALOEiC0OEue/SKAwB0ChJY7OFQ1MzNzw4YNn3322YMPPqgoire3d9OmTRMTE3XFDPhy5syZiqL07NnT5rZlZWVNmjTJZDJNmjQpKyvL5u04oOKePXtMt/4kJCTYsLvLly8HBwePHDnSZDJNnDgxJCTk7NmzFrdz6tSpRx55RFGUKVOmWCzASgQQQMC1BQgtrj2+9A6BIiNAaNEOVXZ2tr+/v3Lnn+rVq1++fFlbzIDLR44cqVixYrVq1c6fP29z8zIyMpo0aaIoSpMmTTIyMmzejgMq3gxXYpRCQ0Ot2l1ycnK3bt08PT3vHGTFw8Pj9ddfP3r0qPnWYmNjq1WrVqFChcOHD5u/yxoEEEDAtQUILa49vvQOgSIjQGjRDtXhw4dLliwpprN+fn7du3fv1auXyWQy+GGHtLS0Tp06KYoyZswYbXesXXb50BIXF+fn5yfG19PTs0mTJm3btq1evboMMJUqVdq+fbu524QJExRF6dixo8GznHnLWYMAAgjYKUBosROQ6gggUDAChBat4/Lly8X8tVKlSqdOndK+Zdjl9PT077//3sPDo27duikpKfa007VDy7lz555++mkxvt9+++3ff/8trLKzs48fP96rVy8PDw9FUR588EHzo1UpKSn16tVTFGX58uX2CFMXAQQQKHIChJYiN2Q0GAHXFCC0aMd12rRpYlLbokWL7Oxs7VuGXZ4/f75o89ixY+1spAuHluvXr7/33nsysZgPbnZ29s2jaqLA8OHDzSUnTpx4M7Q0atTo+vXr5u+yBgEEEHBVAUKLq44s/UKgiAkQWrQDJq+UaNWqlXa9YZfT09OfeOIJRVF8fHxyu5Q8/4134dCyc+dOEUhKly598uRJiybJyckVKlRQFKVly5bmJwSePXvWx8dHUZR58+ZZrM5KBBBAwCUFCC0uOax0CoGiJ0BoUVVV3jWrQ4cOYmpbo0YNcXOqkSNHpqamqqoaFBRkMpmCgoLEGEdGRo4cOXLMmDEREREW/9k+Ojr65nEbk8k0atSo0NDQtLS0/Hw40tPTw8PDx4wZI27hFRERYT571m5nzZo1osHvv/++dr35cnp6elhY2KhRo0wm07Rp06Kjo82bbR5asrOzo6KiAgICRK24uDjzLauqevnyZcEVFhZmsUBqaqq4VZcEFMXOnDmjuwnYpUuXQkJChg8fPmTIkOXLl+d2CwQZLy1eiL948WKx2SlTpgjAqVOnCqinn346N1LZ/Tp16ohB1/Xl008/VRSlefPmXNmik+ElAgi4sAChxYUHl64hUJQECC2qqsrZqpjXav/28fERVziIK907deqkquratWuLFy8ui/Xu3Vs75KmpqV26dJHvioXatWtv3LjRPCdoKyYkJNStW1dXsX379teuXdMW0y7/5z//EeVnzZqlXa9bjo2Nfeihh3Rb/uCDD65evaotKR3E3cPS0tJ69OihqzV48GDzXpw4cUIUGzJkiHaDcvn8+fPiMIUAlOsjIyNFRZE9fvvtN93uKlSoEB4eLsvLhTxCy4EDB8qUKSO2Iy9BiYyMHDZs2AcffJBHupPdr127tsXQMm/ePEVRihcvfuzYMdkSFhBAAAHXFiC0uPb40jsEiowAocWq0PL6669v3LjR19dXO7deuHChGO+srKyQkBBxvpa2gFx+++23L168aP7huHz58ogRIx544AFZUrvw+OOPr1ixIjMzU1cxLS2tYcOGYhodHR2te1e8TE5O7tGjR/ny5bUblMu+vr5z5syRFeWsvUmTJmvXrn300UdlSbng4eHRu3dv3cEK+0PLxo0bf/jhB3EpvNyXWChfvnxwcLBspFjILbRcvHjx2WefFRX79Omja6duI7qX586dq1ixoqIouR2NiY6OFi3Uouk2wksEEEDAxQQILS42oHQHgaIqQGgRI3fy5Mn4+PihQ4eK+e4zzzwTf+tPQkKCSAviSEv58uWLFy/u6enZo0ePTZs2BQUFde/eXRwJyc7O7tu3r5xwt2vXbsqUKZs3b166dOk333zj7e0t3nrhhRd0R06uXbv2wgsviHdLlCjx8ccfL1iwIDw8fM6cOW+++aacx/ft21d3iGPfvn2i1quvvqrbpujUxYsXZYKSW968efPkyZPlfbQ8PT3XrVsnysvQUrJkyRIlSiiKUrlyZX9//5kzZ06YMEHbmEWLFmk/8faHlnbt2t28ZXO5cuX+7//+79dff509e/aQIUMefvhh0UHz589YDC0nT55s27atqNK3b1+rEouqqlOmTBF1v/vuO23v5PL169fFPcTat28vV7KAAAIIuLYAocW1x5feIVBkBAgt2qGSU2HzC/FFaBGT2okTJ2prieWQkBARMDw9PWfOnKkrEBcX16ZNGzmf1r7bv39/sd7X13fv3r3at1RVXb58uQg8Hh4eugMONy99ERVze1i7vB2W+UlW6enpb731lqgu74glQ4uiKN7e3oMHD5b3BRatGj9+vKjSrl07bYKyP7SIa0VOnz6t7f7Vq1dlnNMd3JAjJa9pWb16ddWqVUXzbEgsp0+frlKliqIoXl5euR22UlVVfAyqVq166dIlbVNZRgABBFxVgNDiqiNLvxAoYgKZGZmzBi0d33Pu4b0njsckWfsTH5U4ue+Cib2DMjP0Jy8VMYhbzZVT4TxCS5s2bcyvDs/KypL/xt+zZ0+Lfb9+/XqrVq10d/qS96TK4xkgAwYMEHPxtm3bao8eiAl0xYoVDxw4YL5HeRmJoijTp083L3DixImaNWuKLe/cuVN3mtzQoUPNq6SmpopDDXXq1Dl37pwsYH9o8fb2jo2NlRuUC+Hh4aKFX3zxhVypqqocKRFagoOD5bGsn376SaukrZXbcmJiokxHffr0ya2YqqryWJx5vMyjFm8hgAACRVeA0FJ0x46WI2AggbTU9PTrN+z5OZ94cWrGCJGFAAAgAElEQVS/hXaGlvHfz/07+ZKdjUlLTc/KzHIurpwK5xFaxo8fb97Io0ePivOpSpUqldsttlRVnTVrlpiCywvE5VNW3nnnndweABIbGyuu+/fy8jpx4oTYuzwq8uijj165csW8SStXrhT7atGiRW6HBTZs2LBo0aLY2NgbN25oQ0uJEiXi4+PNt6mq6ptvvilylzZj2B9aWrdurT10I3ednJxcunRpRVF0V/DLkQoNDd28eXO5cuVEZ21ILGvWrJGHaMxP3pMtEQsLFy4UO5o/f77uLV4igAACLilAaHHJYaVTCDhaYOuq/RN7z5vcd4HNPxN6zgvwD7QztAT4BwZ8/+fkvvNtbsbkvvOnmxanXMz1NlmOkZVT4dxCi5eXl8V/Yl+2bJmYyz7xxBPr168Pz+WPvPFu//79RY+6d+8uKvbt2zeXSuHBwcGNGjUSxUJCQkTFy5cvV69eXVEU86aKAjfv+SuqjBkzJp96MgjldvssVVW7du0qzqHSOtgfWrp162axkfJ4UW6hZejQoeLhKoqidOjQISUlxeJ2clu5YMECLy8vAdWsWbMLFy7kVlKsDwsLE4VHjBiRd0neRQABBFxDgNDiGuNILxBwskBGesbC39fmZIZbPxN7z7Plp9e8af0XHYs8Ze25YcdjkuKjEqfknB5m0357B8mWB3wfGLvL+beRvWto8fHx0R5hkMM/evRoMZfN598ffPCBqNu+fft8VhHF5HNOzpw5Iw4vvPrqq7IZ2oV3331XVNm8ebN2fR7LMrSIWx5bLClCi6Io2jsR2x9arL1Xshwpnd7gwYMtNtt8ZXZ29qhRo+69916xhdatW981sdy8pkXeo/mbb74x3yZrEEAAAdcTILS43pjSIwScI3DlQspM05IA/8D1c7Yej05KiE604ceGuKKtYsMeRZWQOVtFblkz/6hz+O7cq5wKmx++EBeQ5BZahgwZops95/2yS5cuYs/iKpe8C2vfnTZtmqgoc4LuEITskGiwLl3Idy0uFNHQ4ufn9/nnnwslb2/vffv2WeyddmVaWpp8xE25cuV+/fXXfB6ikaGla9eu2g2yjAACCLiqAKHFVUeWfiHgBIHEo2fH98w5xWvnmihtljD48vZVEeO/nxvgH7h2epjTr2YRw2ZzaLn5pHkxae7Vq5dVV4G//PLLiqKULl16//79Vn10Tp8+La6iyS20vP3226JJrn2k5cEHH4yLi0tNTW3WrJnob/PmzXO7OkgIX7hw4fnnnxeF/fz88hNy5NAQWiQFCwgg4CYChBY3GWi6iYCDBP6avyPAPzDnLK+I0wbPKqJ58VGJM24dIJrYe97l89Zdh1B4pjaHFnmxSufOndPS0vLfws6dO4vZ87Jly/JfS1VVebHHK6+8YrHiF198Ibasu1mwxcJipf1HWgYNGmRx++fOnatcubL59fQyA9h8epi8pcGiRYtEfxVFWb16tcVmqKqanZ393nvviZLFixffvXt3biUtrpcNzq2nFmuxEgEEECi6AoSWojt2tBwBIwqkXL4xa8iyAP/AP39ZfnBHvPFzy7qZ4QH+gTMHLjl/2sIT4p1FbHNoCQkJEfNgHx+f48eP57/9/fr1ExW/+OKLjIyM/Fe8cuWKn5+foijPPvusxftu/f7772LLX3/9tXg+pvnGd+zYUbNmzRdeeEEEG/tDS24nTcXFxYnG6I4LyQxgc2iRz2m5evXq+++/L/by3HPPpaenm/dXVdVx48aJx+l4e3vPmzfPYpk8VsoL8UeNGpVHMd5CAAEEXEaA0OIyQ0lHEDCKQHLCuck/zL+VW1Yc3X/SyLll6/L9Af6BU35ccOb4eaPw3WqHzaHl7NmzFStWFDPm33//PbdOTZgwoWbNmi+99JJ8TOTGjRtFrVKlSomHpZjX3b9/f6VKlerXr//aa68dO3b7dgWZmZlPPfWUoij169c3f26Mqqq7d+8WW65YsaLFmwekp6d/+umnooydoeXUqVPipsxvvvmmeftVVZ0xY4bYUeGFFlVVr1271q5dO7GjP/74w7wlM2fOFImlQoUKMu2YF8tjTVBQkNj+woUL8yjGWwgggIDLCBBaXGYo6QgCBhI4uPOouK59acAGw4aWiL/iJvUJCvg+8MBOK45IOEbZ5tCiqupnn30mprMVK1aMiooyb/DevXvFsREvLy/5LJfU1NSGDRuKik8++aT5A1Vu3LjRoUMHUaBhw4apqalyy+KR9mXKlImIiJAr5UJ6erpINYqifPjhh+YHW+QjR3x8fM6ePat9Tou1dw9LSUmpXbu2oihVqlRJTk6WbRALZ8+eFY+kLIzTw3TZIyYmRjzXpXz58hJZnBW2bNmy8uXLK4ri7e2d/+t8dH2RN5KOjIzUvcVLBBBAwCUFCC0uOax0CgHnCxyPS5phWhTgH7ghcLsBc8uhXcen/ZTTvO2L736LJ8dr2hNaTp486evrK9KFr6/vwoULZU64cuVKv379xLEIRVF69Oih7dq6des8PT1lbtFeZXH8+HHxMEdFUTw8PBYtWqStOGHCBFFr7Nix2vVyedOmTXLLH3/8sYwTmZmZc+fOlQ9kHDZsmKhi8+lhqqp+8sknojEtW7aUaSErKys4OLh+/foeHh4iMBTqkRbRi2HDhomWvPLKK+KhmaqqbtmypVSpUmJ9//794/P8c/z4cYtn3KmqKgJkjRo1LD7QU8qzgAACCLiMAKHFZYaSjiBgOIFTh5In9g4y4M3EjkWcmjd8VYB/4IrJm3KbFDpX057Qoqrq9u3bGzRoIGbGiqLcPAepVatWzzzzjLjNl1j/xhtvXLumf4bmhAkTypQpIyvWrFmzbdu2DRs2FOcyKYpSvHjxIUOG6NCio6NFgdatW+c2h9Zu+d57723SpEmbNm18fHzkvrp27Spn9vaElkOHDsmHPIq+16pVS+YEk8n0+uuvO+BIizhJrHHjxqKDkydPFp8oeQNo2fE8FnJ7tuaVK1dq1aqlKMobb7zh3A8qe0cAAQQcJkBocRg1O0LAHQWithwK8A+c/MP8mK1HjXK8JTppxcRNAf6Bc39ddf2aFffXcuT42RlaVFXNzMycPXt23bp1dXNiDw+PBg0ajBs3TiYEXb/OnTs3cOBAcThCW9fLy+vbb789etTCc2xu3LghZ+fbtm3TbVC+TEpK6tevnzYUie23b98+JCREHg6y5/Qwsa+YmJiWLVtqG68oSuXKladOnZqdnS1igwOOtKiqGhYWJg4xVapUKT4+/vLly+LEPF3bcnuZW2iRlwnJR3xKZBYQQAABVxUgtLjqyNIvBIwisHFhzk2QZw1eenjvCSPklrBFu8XF9+fPXDKKkVk79uzZc/OiBZPJNGPGDN2bN6/ANplMI0eOPH/+7jcPyM7OPnjw4M2rz00m07BhwxYvXixPzdJtVvcyPT1927Zt48aNM5lMo0aNCg4Ovnr1qq6M9qV8PkyfPn20682Xr127FhIScrO8yWSaM2dOfHy8eZmsrKybsc1kMk2aNCm3p80sW7ZMEJ04ccJ8C6qqxsXFTZ482WQyDR8+PCQkRN4AWgDqpvtnzpwRWwsLC7O4tdTU1JEjR5pMJl1FOVIJCQnmFbOzs2fOnCm2HBwcLDci1tz17zFjxli8k9uAAQMURfHz87t40UC3vDPvPmsQQACBAhQgtBQgJptCAAELAhk3MpeNDwnwD1z4+7r4KCc/vGXfhoPje86d0HPuseiTFtrKKlsFTp8+XbZsWXEPMe01+rZuj3q5CqSlpYlbJvTq1SvXQryBAAIIuJwAocXlhpQOIWA8gYtnLoubiW1fGeHEgy0JUYmzBuc8Q2bdrHDjIRX5Fsl7i3E/q0IdywMHDojTyfI4E69QG8DGEUAAAacIEFqcws5OEXA7geAFewL8A6cPWHx4j3NOEju0+/j8/67JaYNp8eVzRnnyvSt9DubPny8m07/88osr9ctofRFn4jVu3Pj69etGaxvtQQABBApPgNBSeLZsGQEE/hHIzspeMXFjgH9g0IjV8ZGOPkksPioxaMTqAP/A8T3nnohL/KdZLBWcQHp6ur+/v6IotWvXtviUyYLblftu6cqVKw8//LCiKEuXLnVfBXqOAAJuKUBoccthp9MIOEPg+rXrgcNWBPgHrpoc6uCTxFZNCRXnp0VsjnNG191ln9evX+/YsaOiKAEBAe7SZ8f2c8qUKYqitG/f3uIF+o5tC3tDAAEEHCpAaHEoNztDwM0Fzp/+e3Lf+QH+gYtGBx/Zd9Ix0SV04a3bhfVfeCTyuJrt5iNQ6N0Xj0mpVq1afm5uVuitca0dHD16tFatWmXLlj1w4IBr9YzeIIAAAncXILTc3YgSCCBQgAJHI46P7zk3wD9w8ZjghKjEws4t+zYcnNBr3vjv5x6NtHxj3ALsGpsSAtOmTVMUpW/fvoAUoEBiYmLTpk0VRZk4cWIBbpZNIYAAAkVFgNBSVEaKdiLgOgK71sWIk7XWzdxSqKEldkf81H4LA/wDd66LdB0+eoIAAggggID7CRBa3G/M6TECzhbIysqO2hw7sXfQ+O8DC+8myEf3nZzzy/IA/8Dg2VuyszgtzNmjzv4RQAABBBCwQ4DQYgceVRFAwA6B2F3HAvwDJ/YOigo7VODHWxKiE5eOy3miZdCI1TfSMuxoJlURQAABBBBAwPkChBbnjwEtQMBtBbYt3xvgHzjtp0VxuxIKNrdsnLsjZ8v9F12/mua2vHQcAQQQQAABlxEgtLjMUNIRBIqeQEZ6xoyBSwL8A1dO/qsAQ8vB7fHiWv/9obFFD4UWI4AAAggggICZAKHFjIQVCCDgQIFD+xLGfz93fM+5+zfFFkhuiY86veC3deKuyhk3Mh3YFXaFAAIIIIAAAoUlQGgpLFm2iwAC+RTYsWa/OJUrdme8nbkldke8uPh+xsDFKZev5rMBFEMAAQQQQAABgwsQWgw+QDQPAdcXyM7KXjt9c4B/4J+/rDgWccrm3HIs4lTgsBXi4v7E+HOuD0cPEUAAAQQQcBsBQovbDDUdRcDAAjfSMuaNWBXgH7h8wsaEaFueOJkQnbgsYIN4/MvBnUcN3FeahgACCCCAAAJWCxBarCajAgIIFIbAlXMpU/vnPAjyrwW7bDjYsmlezu3CpvZfdPLg6cJoHttEAAEEEEAAAScKEFqciM+uEUDgDoETh5In9Jo3/vu5a6Ztjo88nf/osjs4Zvz3cyf0mpdwMPGOLfICAQQQQAABBFxCgNDiEsNIJxBwFYENy3Iubsm5CfKkv/J5nlh0+JHJfefnHKJZucVVGOgHAggggAACCNwhQGi5g4MXCCDgZIFsdd3sLSK3bF68564HW47sPSGe9LJp3lY128ltZ/cIIIAAAgggUEgChJZCgmWzCCBgo0DGjcywRbsCvg+c0Gve3g0H88gt8ZGnF/6e80iWhb+vzbiRYeP+qIYAAggggAAChhcgtBh+iGggAm4psHLKXwH+gbOHLMvjJLEdqyPFMZnkY9zg2C0/JXQaAQQQQMBtBAgtbjPUdBSBIiVwIfnvKX0XBPgHhuZyM7HDe47PGLA4p8DC7UWqZzQWAQQQQAABBKwWILRYTUYFBBBwjMCRiOPjewZO6Dl3z/oY3Uli8ZGn5/93TYB/4NJxIVmZWY5pD3tBAAEEEEAAAWcJEFqcJc9+EUDg7gLrl8QH+AdO+XHBgW3HZG5JiE5aMy0swD9w1uClVy9du/tWKIEAAggggAACRVyA0FLEB5DmI+DaAtnqulk5N0GeNWTZkX0nj8ckHdl3cunYkAD/wMl9F/x96qJr957eIYAAAggggIAQILTwSUAAAUML3Ei7seC3tQH+gYvHrD+y76S4Xdj4nnMP7z9u6HbTOAQQQAABBBAoOAFCS8FZsiUEECgcgcsXr8wYtCTAP3DmoKXidmHbFuwpnF2xVQQQQAABBBAwogChxYijQpsQQEAnkBR/bmLvoAD/wIm950WExWZl8SBJnRAvEUAAAQQQcGUBQosrjy59Q8CVBCI3x03oPe/A9iOu1Cn6ggACCCCAAAL5ESC05EeJMgggYAiBQ9GXDdEOGoEAAggggAACjhUgtDjWm70hgAACCCCAAAIIIICAlQKEFivBKI4AAggggAACCCCAAAKOFSC0ONabvSGAAAIIIIAAAggggICVAoQWK8EojgACCCCAAAIIIIAAAo4VILQ41pu9IYAAAggggAACCCCAgJUChBYrwSiOAAIIIIAAAggggAACjhUgtDjWm70hgAACCCCAAAIIIICAlQKEFivBKI4AAggggAACCCCAAAKOFSC0ONabvSGAAAIIIIAAAggggICVAoQWK8EojgACCCCAAAIIIIAAAo4VILQ41pu9IYAAAggggAACCCCAgJUChBYrwSiOAAIIIIAAAggggAACjhUgtDjWm70hgAACCCCAAAIIIICAlQKEFivBKI4AAggggAACCCCAAAKOFSC0ONabvSGAAAIIIIAAAggggICVAoQWK8EojgACCCCAAAIIIIAAAo4VILQ41pu9IYAAAggggAACCCCAgJUChBYrwSiOAAIIIIAAAggggAACjhUgtDjWm70hgAACCCCAAAIIIICAlQKEFivBKI4AAggggAACCCCAAAKOFSC0ONabvSGAAAIIIIAAAggggICVAoQWK8EojgACCCCAAAIIIIAAAo4VILQ41pu9IYAAAggggAACCCCAgJUChBYrwSiOAAIIIIAAAggggAACjhUgtDjWm70hgAACCCCAAAIIIICAlQKEFivBKI4AAggggAACCCCAAAKOFSC0ONabvSGAAAIIIIAAAggggICVAoQWK8EojgACCCCAAAIIIIAAAo4VILQ41pu9IYAAAggggAACCCCAgJUChBYrwSiOAAIIIIAAAggggAACjhUgtDjWm70hgAACCCCAAAIIIICAlQKEFivBKI4AAggggAACCCCAAAKOFSC0ONabvSGAAAIIIIAAAggggICVAoQWK8EojgACCCCAAAIIIIAAAo4VILQ41pu9IYAAAggggAACCCCAgJUChBYrwSiOAAIIIIAAAggggAACjhUgtDjWm70hgAACCCCAAAIIIICAlQKEFivBKI4AAggggAACCCCAAAKOFSC0ONabvSGAAAIIIIAAAggggICVAoQWK8EojgACCCCAAAIIIIAAAo4VKPTQcmB1F34QsE3g3OEFjv06GGVvg1Z04wcB2wRC41YY5XPs2HZ0H7WJHwRsE1i9Ld6xn1b2hgACtggQWshUxhUgtNg2baWWOwsQWmybtlLLnQUILbbMH6mDgMMFHBRazkaP5geB/AskbPE/sLqLm4eWBXum8oNA/gUC/ho4aEU3Nw8ts9cf5QeB/AsMnbO3+6hNhBaHTz7ZIQK2CDgotKhXdvODQP4FzkaPJrTEJEfzg0D+BRbsmUpoOZScyQ8C+ReYvf4oocWWySN1EHCGAKGFNGVEAULLoBXd8j9bpSQCMcnRhJbuozblf7ZKSQQOJWcSWpwx82SfCNgoQGgx4pQ9/0ckXLUkoYXQQg6xVoDQQmghh1grQGixcfJINQScIUBoIbQYUYDQQmixdspOeUILocXaKTvlCS3OmHmyTwRsFCC0GHHK7qrHT/LfL0ILoYUQYq0AoYXQQgixVoDQYuPkkWoIOEOA0EJoMaIAoYXQYu2UnfKEFkKLtVN2yhNanDHzZJ8I2ChAaDHilD3/RyRctSShhdBCCLFWgNBCaCGEWCtAaLFx8kg1BJwhQGghtBhRgNBCaLF2yk55QguhxdopO+UJLc6YebJPBGwUILQYccruqsdP8t8vQguhhRBirQChhdBCCLFWgNBi4+SRagg4Q4DQQmgxogChhdBi7ZSd8oQWQou1U3bKE1qcMfNknwjYKEBoMeKUPf9HJFy1JKGF0EIIsVaA0EJoIYRYK0BosXHySDUEnCFAaCG0GFGA0EJosXbKTnlCC6HF2ik75Qktzph5sk8EbBQgtBhxyu6qx0/y3y9CC6GFEGKtAKGF0EIIsVaA0GLj5JFqCDhDgNBCaDGiAKGF0GLtlJ3yhBZCi7VTdsoTWpwx82SfCNgoQGgx4pQ9/0ckXLUkoYXQQgixVoDQQmghhFgrQGixcfJINQScIUBoIbQYUYDQQmixdspOeUILocXaKTvlCS3OmHmyTwRsFCC0GHHK7qrHT/LfL0ILoYUQYq0AoYXQQgixVoDQYuPkkWoIOEOA0EJoMaIAoYXQYu2UnfKEFkKLtVN2yhNanDHzZJ8I2ChAaDHilD3/RyRctSShhdBCCLFWgNBCaCGEWCtAaLFx8kg1BJwhQGghtBhRgNBCaLF2yk55QguhxdopO+UJLc6YebJPBGwUILQYccruqsdP8t8vQguhhRBirQChhdBCCLFWgNBi4+SRagg4Q4DQQmgxogChhdBi7ZSd8oQWQou1U3bKE1qcMfNknwjYKEBoMeKUPf9HJFy1JKGF0EIIsVaA0EJoIYRYK0BosXHySDUEnCFAaCG0GFGA0EJosXbKTnlCC6HF2ik75Qktzph5sk8EbBQgtBhxyu6qx0/y3y9CC6GFEGKtAKGF0EIIsVaA0GLj5JFqCDhDgNBCaDGiAKGF0GLtlJ3yhBZCi7VTdsoTWpwx82SfCNgoQGgx4pQ9/0ckXLUkoYXQQgixVoDQQmghhFgrQGixcfJINQScIeAuoeVcfMi86b8M+KHbgB+6TRrz445NM7Mv73LVGb8L9IvQQmixdspOeUILocXaKTvlCS3OmHmyTwRsFHD90JJ9edeY4d/ff39xRfPn5eefcfzM/kpi6KAf/30+YUM+d33tTPiLbZ4Wrf5r9aR81lKv7I7YNlfUqlyp/Ln4kPxXNE5JQkvRCi2mkQPER27mkhlGDg9zls8W7ez0zutWtTM6KSo08q/+w/q1erFVpcqVFEUpUbLEY40e++zrz9btWGvVpgqvMKGlaIWWwSPHi0/jnCUbjRwe5i0PE+3s/M7HdrZz7NQFiqLYvx07m6GtTmixcfJINQScIeD6oSU8eMp9990rfufKv7/76j0HT9BXBP1Ww6+KVSmC0HLu8AJnfCmcv89BK7oRWgpjcm9baNkTv/vtj9++1+zXiPh94unp+cPPP0QlRhZGg63aJqGF0KKdjhfUckGFlvCIkw/4Vie0OP9/MLQAgSIr4Pqh5T+fdhZzi/982vnArgUpiWGXTv514fhGB4eWTh1bKYpCaMknu2scaUlJSbHtNwOhxarJev4L2xBaIk9HdHrndfE75J5i97Rt13bY2GGzl88aM310l/ff9PT0FG+1bNtyc0xY/ltSGCVdI7TY/K3pPmoToaWggop2OwUSWnbFnmvyZHPxZeFIi23/X6AWAgi4fmh55aUWiqKULeOdfCQ4nzPmwijmyNBSGO138DZdI7QkJCS0bt16w4YN1v6iIbQUxpw+JjnahtAybvY4MdMq5V3q14Bfo5OitG0LWjuvTLkyosD/ffJ/une1JR2w7BqhxeZvDaFFmzQKcNn+0BIecfLxJrdPdeZIi7X/O6A8AghIAdcPLa1aNFEUpVaNqtfOhDt45q3dHaFFq3HXZdcILaqqfvrpp4qitGzZ0qroQmgppCm+taElKjGyeeucfx4u6VVy7KyxFjPJoFGDRGip5FNpa+zWQmp5fjbrGqHF5m8NoaUAg4p2U/aElrikjD+XbHzAt5r4joi/OdIiZ2AsIICAVQKEFgfd8pjQctegoi3gMqHl2LFj9957+5Kqli1bbty4MT/fT0JLfuboNpSxNrRsPbilYuWKiqI83fLpyNMRFve4cd+G+0vcL2ZjQWvnWSzjmJUuE1ps+9YQWrRJowCXbQstB0+nj5kS1Lhps3uKFVMUxauUdx/TSEJLfn7/UwYBBHITcNnQIu+gpf0HHrHcqWMr7fz4eMzKXwZ8+fLzzWrVqCpuMuZdqmTTxo/0+e6jQ/sWa0tql08cWDmgz2fPPPmYV8mc+cr99xd/rH6df3/yRnjwVO3NlHNrRuPH6964sF27QfNl3YX4189u+W3Yd083fbR48fu8St7f8NGHPvngVYv3bpY71V1C0/X9joqiNH68buqZLeqV3fvC/+z2cafaNXP+DaxcWe+O7VrOmjQo/cI285Y4fo3LhBZVVbt27ar9EFavXn3AgAEXL17M7TupqqpBQstfEZu+7fvNs88/W9Wvqrhf1uNPNOze88uwqFDdLFx797DI0xG/Tfmt1YutHvB94J5i95QoWaJR08d7Dey16+hOXa2Y5GhxuUj5iuXDD4SbvxuTHP1Vn6+E3pKNi2WBPQl7HmnwiKIo4iZgoZF/ff5tt3qP1i3mUczT07POv2q/2qXjjCUzzA+M5BFaVoaveKzRY2Jf9R6rJ/r4V8SmFq2b16xT852P35Z71y2EHwgvX7G8qOjcm6e5TGix7VtjkNASHnHyu75DWj3fvppfjVvfGq9GTzz9dc8BW6NO64KE9u5hB0+n/zFlfusXO1TxrX5PsWIlSno1btrsh4Ej9x29pKt1KDmz8zsfK4pSoWLlHQeSzd89lJz5bZ+B4gO5YuM+WSAyIaV+g8by7Kwtkaf+823fRx59vJiHh6fn/XX+9chrXd6fs2RjXFKGrCIW8ggt68JjGjR6Uuzrkccaafu4YuM+sV5RlKZPt1wbHhO6J16s4UhLHr/8eQsBBPIQcOvQknlxxy+m7rq7IcvfsyKKBIzqow0hYvo+b/rQUl4ltCW1yx+80/5a8u1T0WR+0BYQycGq0BI0Y+gTjerpNqIoSrFi93z7xbtp57Zqc4XcaW6hJSVp87CBX3l45PwDmO7PC22eio9eod2aU5ZdKbQcPXrUw8ND51y6dOmffvopt+ji9NASlRj549AfS3qV1DVbvCxdtvS4WWO1c3cZWv6YMab1izn3nDD/U+uhWsG71mlrFUhomTJ/ctn/XVWi3ek9xe755MuuusMjuYWW4I23Qs4AACAASURBVJ3rqlb3FdUfa/SYeSrTNVv7ctGGRXK/K8NXaN9y8LIrhRYbvjVODy2xiTd+GjqmpFcp+XnQLpQpW27CrKXaPCBDS8CMxW1ezPkXJfM/tR6qu2nXEW2tAgkt0+evLVuugvnu7ilW7LMvex48na7dY26hZePOw1Wr5wQzRVEaNHpSm1gOJWeu2LivmIfHU82eG/7HDLFBQkseUzHeQgCB/Ai4bGi5eHLTplUTN62a2KjhvxRF8a1Sae2SP8SafVsCxUQ8dM1k+Vu7fLnSb3d+4ZcBXw788fP69WrJ9RXKl0k+sk47cT97bL1vlZwHNSiK4lO5/Pdfvz9s4Fc/+H/sU/n2v7YqijJz4kBRRTbj2eY5/8RVrmzpZfNGbVo1cVvI9KxLd3m6pfZIy8N1/MQeGz9e95cBX3Zo11K8FH9P/qOftoV5h5ZGDf81cXRfeRvopo0fafZUA+3WOrZreTVps3aDjl92pdCiqmqrVpbn8X5+fvHx8eZfVKeHlllLZ2o/EjVq1+je68su779Z3PP2844qP1A5PGaznJTL0PJgrQdFxeKexZs2a/pUi6dkFUVR3ni3k6wiFuw80vJihxdq1L49bfKr4afb3c25lPb4TG4X4kclRj7d8inR7FLepZaHLdM1Mu+XfX/uK+r6VPHZfmhb3oUL9V1XCi02fGucHlr+XLpJ+62pWfvhr3uZ3n7/s+Ket88erPyA7/aYJJkHZGipUeuh/31r7n+q2XPPtGgtq+QcGHm3q6wiFuw80vJSh841az8s9uhXo7Zudzf/TU17fOZQcqbF0BKbeOOZlm3ERkp5l14dFqVr5NrN0bMWrdeuJLSY/6pnDQIIWCXgsqFFzrNzuxD/xt/b2zzXVBysGDawe+rZnDOmxE/WpZ0bVkx4sPoD4jfynCmD5Vvqld1jRvQU6/v3+lRbK/XslmEDuxcrdo+iKM+1aJxxcYe2lp3XtIjAM2/6Lxl/52w2+/KuxENre/f4UOzu4Tp+f5/45ybOeYeWe+/1uO++e4sVu+eLz948FbtaNPLkwVVdOj0v+qUoyprFf2gb7/hlFwst06dPl7a6hTJlyphMJt0hF+eGlj3xuxs+0VC087W3X1sWulQer9iwN6Rlm5zb8SmK8oX/f+QUXIYWRVG8y3j/MKTPziO3TwbbeWTn5992u+fW96LyA5W3xm6Rtew/0iKuF3q65dMLQxaKk8F2Hd05etrvtf9VWzTyk+5dtbszP9ISnRTVa2Av0bxS3qWG/DbY/KQy7RZ0y7uP7ar3aF2xr1YvPOfcp7W4WGix9lvj3NASEX/l8Sdu3yCr09sfrgqNlMcrwvYmPNvmZfEh6e7fX87jZWhRFKV0mbI/Dvlt35HbJ4PtO3LpP9/+IK4GqfyA787Ys7KW/Uda7r33PkVRnmnZdmnIbnEy2P6jl8ZOW1DnXzmnXCqK8ln3ntrdmYeWuKSMHwaOFM0r5V166G9TzE8q025BLBNarJqcURgBBMwF3De0bN84Q/yC/uj/OpifAKZe2b1x1QRR4N03X9LO2l9onfOPsk0a1bvxt/6ilOzLu966NfW/37P40chl2lp2hpbixe/btGqCdoMiuvT57iPRyP/+0kO+m3doEeUH9/u3rtdXkzc//tjtf377z6ed5dacsuBioSUjI6NmzZpC3uLfpUuXHjhw4KVLl8RX1LmhZdjYYaKRb7z7howrcrK+LW5rzTo5fankU2lb3O2bZcnQ4nm/56ylM2VhsRCVGPlihxfFNmcsma59184jLTl3ZmvTYt/xvdptxiRHrwxfIc5tq/dYvYiT++W7utASnRTVb+iPIrE0frLR8rBlViWW6KSoT7/KuTucoiilvEvNW+PMq/BjkqNdLLRY+61xbmgZMfb2wck33+0q44qcuO+KO1erTs4x/8o+vrvizon1MrR43l/iz6WbZGGxEJt446UOtx8yNmfJRu27dh5pURTl2TYvRx+/pt3moeTMteEx4ty2Rx5rdODkdfmuLrTEJWX8NHSMSCxNnmy+OiwqP4nlUHImocV8BsYaBBCwSsB9Q0vw0rGvvNT8weoP7AqdbXFefvbY+koVyuZc7Ku5cD/r0k5xMtVDtatfOR1qXnHflsBFf46I3jE//fwdV7TbGVpyS1Z/n9hYrWplRVEaNfyXvIb+rqHliUb1LhzfYN54GYFeev4Z83cduUaElnkT/mNylT/PPvusmN3m8XeZMmW6du26ddsWJ4aWqMTIJ5vnXFlbyrtUyJ71crqvXeg39Me69eu+8sYrsoAMLS+/9rLFef8fM8aIjv8y5mftpuwPLXOWz9ZuUCxHJUY2avp4zgmcd56ypQ0t0UlRg0YNKnbryq7GTzbactDynQDMNy7WRCdF/TDkBxF4KvlUClz1p8WO51a9MNaL0DJgfA9X+dKY8v+t2bJ1uxNDS2xi+tPNW9/61pQO3RMvp/vahQFD/6hXv2HHN979a88xsV6GlvavvWVx3h8wY7H41vw6Zpp2U/aHlnnLw7QbFMuxiTcaN21261tTdc+hC7KANrTEJWX8PGpSsVsX6TV5svnOg2dksbsuEFqsmpxRGAEEzAXcN7TcdQqekrS5xoM51+a2btlEW/jfn7wh/kfyXIvGqxaO1p4hpi2mW7YztKxdkuv5Wl1ezzmtS3ts566h5b+/9NAdZhGtnTj6R9G1Vi3u6LKuLw54KULLl/93+3QF0Sr3+duJoSX8QHi5CuXETX7zf7KTDC0/jx5icTo+f12QGD7TyAHaAnaGlpyjPbk8GqVtu7aKoujuS6YNLSPGD7+veM55MnUfrWtDYukzuLdILKXLlv5zxRxtp5y1LEJLq3dyLp9zwz9ODC07DpwpXyHnQsdnWraJTbxx1+m7KCBDy7DRUy1WWbxuhxjHwSPHawvYGVoq+VTZFXv7aI92s4eSM19o97r5fcm0oWXU+Dn3Fc+5sK3eo49blVg40mI+/WINAghYK0Bo+ec5LdmXd6UkhkVtD5o9efB33f+vyf/u1qWbwR/cvbB8udJyTlC8+H1NGtX7d9c3Fs0ZfunkX7lN6O0JLcWK3ZPHHb3++0sP0ZjN66aIvd81tKxeONpiO40WWtztSEv58uW7deu2Y9d2J4aWZaFLxcfpw88/yP/kW4aWSXMnWqy1ZOPtfzP+qs9X2gJ2hpY6/6qz74T+3DCx/bxDS5WqD4jEoihKxcoVN+3fqG1V3suRpyPkVTqly5aesfiOE97yrluo77rnkZbb35qdu5wYWlaFRopvzceff6uLAXm8lKFl6tzVFovJuwZ/22egtoCdoeWhf9WPPqE/N0xsP+/QUqVqdZFYbn1rHti8/4S2VXdd5kiLtfMzyiOAgE7A3UPLheMbRg3t0alj65q3DqrIKKJd0IUW9cruzeum1Kl1xyN+RXkPj2LtX2y+cPbwzDuvwlev7LYntOjuXKzLGzJpLP5zRD5DS3jwVN1GxEu5KfMuWyxfeCtd75qWWrX+uSWd9tMllsuVK/fzzz9fuXJFfD+dGFpmLrl9rZcuXeQ925ahJbcHlRRSaHmkwSMRp/65ZEXbyLxDi2D3KuUlFjq+2TGfh5V2HtnRoXMHUati5Yrz1szV7tS5y653TYtV3xonhpY5SzaKj4QuXeQ9j5ehRXfJiqxVSKGlfoPGB079c8mK3N1dj7T871vjLRZee/P92MQ7bo6s3ZT5MqFFN/3iJQIIWCvgvqEl+/KuwKk/a4+ZiF/EiqI8VMev20evTx8/oOKta1oszuBvXNi+ZtGYTz54tXKlnHNpdH/efL3t1eQ77hrsgNCycsHvIkXc9UgLocXa74md5WfOvOMOwtpPS7ly5YYMGXL58mXtLggtcvaf98Ml7Qktjz/xeMiekMdvXfpyT7F7Rk/7Xe40t4UNe0MaNL59f/AatWus3roqt5JOWe9iocXabw2hReaEvB8uaU9oafTEM6F74sWlL/cUKzZ22gK507suEFq0v+RZRgABGwTcN7RsWDG++K0z2osVu6fDyy1GDPlm5YLfI7fNu3bm9nMhz8WHVK6U8+gVi6FFHmTIurTz9KE1qxaO9v/qvYdqV5fz0d+G+csydh5pURQlISbXBz4OH/y12On2jTMILTZ8Bwq7SmZmZp06deQHQy6ULVt28ODBurgiGuPE0LIoZKFooW2nh9lxpOWfp75oZ/xf9e4u2qN94sqehD2PNMi53snm0FLvsXriOpYFwfPvL5HzGI0q1aosC12q3bV2OfJ0xNiZY6tUqyIa07x1880xYdoCRlh2pdBiw7fGiaFlWcge8cGw7fQw2460lK9YaceBZItR4ZveJtEe7RNXIhNS6jfIud7J5tDyyGONxHUsS4J3liiR8+RZ32p+q0IjLLbBfCWhpbD/X8P2EXB5ATcNLZkXdzzbrJF4SMu8GUMtXpV++tCakiVzZjN5hxZtMsm8uHPi6L7i2Sktmz2edWmnfNeeIy2KomxZP01uSruQfXnXq+1zbkvl5VUi8dBa8RZHWgz1vZ01a5aYQMi/y5YtO2jQIHmDY/PWOjG0hEb+VaJkiZxLip97JrfbYS0PW+ZbzbdFmxYBs8eJybqdp4cpiiJvRKab/bd7vZ1wK9jQ0umd18WOopOiPun+idiFj6+PxdwSeTrig88/kMPX5YM39x7fo2unEV66Umix4VvjxNCyJfJUyZI5pxo2f+55i/cBO5ScuTosyrea37NtXpo4e5mY0Nt5etjN/zfldqeyV15/W3xcCza0dH7nY9HyuKSMbt1vP6/sAd9qq0MjzSOK+RpCi/mvetYggIBVAm4aWi6e3FTNN+dOwbVrVruWfPvQijYMqFd27wqdLX7va0NL+vltG1dO+HfXN/6cOkRXXry8mrxZXB7T+PG6Ny788yCXzq/mPDw476tTdBu8dib8xTa3n1Y27r+9de+Kl6lnt/zroZxnkD9Wv07a/26yTGix6jtQ2IXbtLn93OjbH6dWrY4fP573Tp0YWvad2PtwvZznc1f1q7rzyA6Lc/HR00eLvoycMEIUsD+0rN2+xnxfkacj5OlYhRRaYpKjQ/asL+VdSvTojXc7mTdjzP/6e/Nh4Y2fbLT/5D7zMkZY40qhxYZvjRNDS/SJa/+q95iiKNX8auw7ctF8vn4oOXPc9NvHMH+b8KcoYH9oCdl+yHxfB0+nN2yc8zAx3bPt7T/SIkOLuBVYKe/bN6Tp/G5X82aYryG05P1rn3cRQOCuAm4aWuSpX40a/ksbLWQwyL68Sz60RBtaDuxaIA6k5PbgFHmj5KebPpZ58Z8jLV3f72hPaGn5zOO6B7+Ipq5d/IdoT/duXWTjCS13/dw7rMCxY8fEU9sVRXnuuedCQ0Pzs2snhpaY5OjO791+pN3koEnmc/HopKjX3n5NURTP+z1Xhq8QBWwOLf/u8bmYXVm87Zh8RqSiKIUXWqKTot7+6Pa/TJcuW3rVlpXaXm+N3VKjdg3RyKp+VdftXKt911DLLhNabPvWODG0HErO7PLe7ceMTgtaYz5fj0vK6PT2h7e+NSXWhseIAjaHli963L43vcXbjslnRBZqaLl5QOndj/4tvhdlypZbt+WAea91awgt+fnlTxkEEMhDwE1DS+qZLXUfzpmIlLjfc3eY/uGSWZd2Th8/QFzxojs97Mbf28XDJUvc77lmsf7ZKdmXd00fP0D8Hu/17YcyRahXdovQUqzYPTE752vX57GsPdKiKErvHh9qU9DN62Qit8+r8kBFRVHKlC4Vt3eR3BShJY9PvIPf+vTTnKnMs88+u2nTpvzv2rmhZelfS8Tj5KtW91297Y5rzaOTon6f+pu4WfBLHV+Ud9yyObRMDJwgvi8NGjfYFrdVmwE27d/4WKOcf70WfwovtMQkR2+ODpPXq7Ro3WL/idvHUqKTot75+HaeqVG7hrYN2qYaZNllQott3xrnhpaVf0WIx8lXrV5j/bZY7Xw9Linjj6nzxc2CX+74pnyQi82hZUrgSvGlaNj4qd1x57X72rz/RINGOQ+HFX8K6fQwscdt0Ym+1fzEjlq2finmRKq2JebLhJb8/y+AkgggYFHATUOLemV3v563T2SvXKncqKHfRW2fFx+1PGp70IwJpjbPNc15trFXibJlcu7tqDsaI6/g9/Ao9t7b7WZPHrx53ZTN66YETvv5vbfbedx6wHa1qpXlFSYiS4wa+p345f5Q7erfdf+/kT9/m/H3PyePybyhXZChpWSJ+x+snnMFcJvnms6ePGjzuinTxv30/tvtSnnlXHtQrNg9MyaYtBUJLRY/645fmZCQ0KZNm40bN1q7a+eGluikqF6m2yese5fx7vhmx0H/HThr2awx00e/9tZr4hHylXwqrdu5Tk7WbQ4tu47urPXw7ZtB+9Xw696r+9CxQ7/r9137Tu3F/Yhfe+tV8cXRBgb7L8SX17TILvw+5Texo5t/m0bcfgLm0r+WeN7vKdY/3fLp1956Ne+f5WHL5AYdv+AaocXmb41zQ0tcUkYf0wjxUSldpuxrb77/838nBS77a9z0RZ3e+kA8Qr6ST5WNOw/L2bzNoWX/0Uu1H64n9uVXo/Y3vUwjxs7o2W9oh07vlCqVc8rW62/dvgSrUEPLoeTMP6bMF824+X+iwSPueAKm7KZcILRY+z8CyiOAgE7AfUPL1eTNr3doJX/h6haaP9UwYuvcD95pryhKpYplz8WHyFSQczglYIAIDLpa4mXdh2tE79AfToneMb9UqZzbrYg/FcqXOXtsvdymxQUZWipXKr/rr1l1av1za7L/bSYnWU0L+El3IwFCi+5T7qyXKSkptu3auaHl5hli0UlRP/3aXxxvkR82uVCzTk3d7Nzm0BKTHD139dxKPjlPE9f9KeZR7Kve3eXdzAo7tESeiug39EdxEKlsuTLrduScBvbF91/oWpX3y9xunuaYAOMaocXmb41zQ8uh5My4pIyBv44Tx1vMPye16tRdHRYlZ/CHkjNtDi2HkjMXrN5ayef2vey0+yrm4fFt74HLQnaLlYUdWg6eShsw9A9xEKlsuQobdvwTybQ9FcuEFtv+d0AtBBCQAu4bWm4ebMm8uGPOlMEd27X0qZxza+P77rv34Tp+H7/XYc3iMeLpkHOn/yJ+9c+b/osuV5w4sNL0Q7dnmzWqUL6MKPNg9Qc6v9ZmxgTT9XNbdYXFy60h015+/hmvW3ckUxQlekeQxWJypTa0nIsP+fvERlPfzx+rX6dYsXvKlfVu/nTDnl+/nxBt4VbIhBb5+S6iC04PLWKSHbIn5N/f/btZq2a+1XwVRSnpVfLplk/1H9Zvb4L+3ln2hJaY5OitsVu+7vPVY40eu6/4fZ6eno2aPv7B5x/MWzM3OilKPpWysENLTHJ0VGLUe5+9J77OrV9qHXFqv3hCpViTn78JLU78xjk9tMip+Zff/dii1Qvi1Ckvr1LPtGwzYNgfUQlXdfN4e0LLoeTMXbFnv+0zqEGjpvcVL+7peX/jps0++vybhWu2xSVlyKdSFnZoOZScGZt444PPvhLfjrYvvZrbYyvFtfuimPaCfp2J41/OXn+0+6hNq7fFO/Gjy64RQCCfAq4fWmQGYKEICZyNHn1gdZdzhxfk83PsYsUMElocc3yAvRSUgGscabH5u2yQ0OL4aTd7tEeA0GLzN46KCDhegNCyuwhN5d2nqYSWQSu6FdRclu24iQChpfuoTfbMX6nrhgKEFsfPO9kjAjYLEFoILUYUILQQWtwkaRRgNwkthBY3TB12dpnQYvP0kYoIOF6A0GLEKbv7HFHJraeEFkJLAc7m3WRThBZCi50zeDesTmhx/LyTPSJgswChhdBiRAFCC6HFTZJGAXaT0EJoccPUYWeXCS02Tx+piIDjBQgtRpyy53b8wX3WE1oILQU4m3eTTRFaCC12zuDdsDqhxfHzTvaIgM0ChBZCixEFCC2EFjdJGgXYTUILocUNU4edXSa02Dx9pCICjhcgtBhxyu4+R1Ry6ymhhdBSgLN5N9kUoYXQYucM3g2rE1ocP+9kjwjYLEBoIbQYUYDQQmhxk6RRgN0ktBBa3DB12NllQovN00cqIuB4AUKLEafsuR1/cJ/1hBZCSwHO5t1kU4QWQoudM3g3rE5ocfy8kz0iYLMAoYXQYkQBQguhxU2SRgF2k9BCaHHD1GFnlwktNk8fqYiA4wUILUacsrvPEZXcekpoIbQU4GzeTTZFaCG02DmDd8PqhBbHzzvZIwI2CxBaCC1GFCC0EFrcJGkUYDcJLYQWN0wddnaZ0GLz9JGKCDhegNBixCl7bscf3Gc9oYXQUoCzeTfZFKGF0GLnDN4NqxNaHD/vZI8I2CxAaCG0GFGA0EJocZOkUYDdJLQQWtwwddjZZUKLzdNHKiLgeAFCixGn7O5zRCW3nhJaCC0FOJt3k00RWggtds7g3bA6ocXx8072iIDNAoQWQosRBQgthBY3SRoF2E1CC6HFDVOHnV0mtNg8faQiAo4XILQYccqe2/EH91lPaCG0FOBs3k02RWghtNg5g3fD6oQWx8872SMCNgsQWggtRhQgtBBa3CRpFGA3CS2EFjdMHXZ2mdBi8/SRigg4XoDQYsQpu/scUcmtp4QWQksBzubdZFOEFkKLnTN4N6xOaHH8vJM9ImCzAKGF0GJEAUILocVNkkYBdpPQQmhxw9RhZ5cJLTZPH6mIgOMFCC1GnLLndvzBfdYTWggtBTibd5NNEVoILXbO4N2wOqHF8fNO9oiAzQKEFkKLEQUILYQWN0kaBdhNQguhxQ1Th51dJrTYPH2kIgKOFyC0GHHK7j5HVHLrKaGF0FKAs3k32RShhdBi5wzeDasTWhw/72SPCNgsQGghtBhRgNBCaHGTpFGA3SS0EFrcMHXY2WVCi83TRyoi4HgBQosRp+y5HX9wn/WEFkJLAc7m3WRThBZCi50zeDesTmhx/LyTPSJgswChhdBiRAFCC6HFTZJGAXaT0EJoccPUYWeXCS02Tx+piIDjBQgtRpyyu88Rldx6SmghtBTgbN5NNkVoIbTYOYN3w+qEFsfPO9kjAjYLEFoILUYUILQQWtwkaRRgNwkthBY3TB12dpnQYvP0kYoIOF7AQaHlbPRofhDIv0DCFv8Dq7ucO7zA8V8JI+xx0Ipug1Z0W7BnKj8I5F8g4K+Bg1Z0C41bYYTPsOPb0H3Upu6jNs1ef5QfBPIvMHTO3u6jNq3eFu/4Tyx7RAABawUcFFoOrO7CDwLWCrh5aBHRhb8RsErAzUOLiC78jYBVAoQWa+eOlEfAKQKFHlrOHV7ADwK2CVy7EOOUb4XTdxoat4IfBGwTSDgf5/QPsFMasHpbPD8I2CZw+ORFp3xo2SkCCFglUOihxarWUBgBBBBAAAEEEEAAAQQQ0AkQWnQgvEQAAQQQQAABBBBAAAFjCRBajDUetAYBBBBAAAEEEEAAAQR0AoQWHQgvEUAAAQQQQAABBBBAwFgChBZjjQetQQABBBBAAAEEEEAAAZ0AoUUHwksEEEAAAQQQQAABBBAwlgChxVjjQWsQQAABBBBAAAEEEEBAJ0Bo0YHwEgEEEEAAAQQQQAABBIwlQGgx1njQGgQQQAABBBBAAAEEENAJEFp0ILxEAAEEEEAAAQQQQAABYwkQWow1HrQGAQQQQAABBBBAAAEEdAKEFh0ILxFAAAEEEEAAAQQQQMBYAoQWY40HrUEAAQQQQAABBBBAAAGdAKFFB8JLBBBAAAEEEEAAAQQQMJYAocVY40FrEEAAAQQQQAABBBBAQCdAaNGB8BIBBBBAAAEEEEAAAQSMJUBoMdZ40BoEEEAAAQQQQAABBBDQCRBadCC8RAABBBBAAAEEEEAAAWMJEFqMNR60BgEEEEAAAQQQQAABBHQChBYdCC8RQAABBBBAAAEEEEDAWAKEFmONB61BAAEEEEAAAQQQQAABnQChRQfCSwQQQAABBBBAAAEEEDCWAKHFWONBaxBAAAEEEEAAAQQQQEAnQGjRgfASAQQQQAABBBBAAAEEjCVAaDHWeNAaBBBAAAEEEEAAAQQQ0AkQWnQgvEQAAQQQQAABBBBAAAFjCRBajDUetAYBBBBAAAEEEEAAAQR0AoQWHQgvEUAAAQQQQAABBBBAwFgChBZjjQetQQABBBBAAAEEEEAAAZ0AoUUHwksEEEAAAQQQQAABBBAwlgChxVjjQWsQQAABBBBAAAEEEEBAJ0Bo0YHwEgEEEEAAAQQQQAABBIwlQGgx1njQGgQQQAABBBBAAAEEENAJEFp0ILxEAAEEEEAAAQQQQAABYwkQWow1HrQGAQQQQAABBBBAAAEEdAKEFh0ILxFAAAEEEEAAAQQQQMBYAoQWY40HrUEAAQQQQAABBBBAAAGdAKFFB8JLBBBAAAEEEEAAAQQQMJYAocVY40FrEEAAAQQQQAABBBBAQCdAaNGB8BIBBBBAAAEEEEAAAQSMJUBoMdZ40BoEEMhD4OypCzuC90RsjLb5Z9fG6JhNh7Kzs/PYC28hgAACCCCAgNEECC1GGxHagwACuQpsWb43wD/Qzp9JfYLSUtNz3QdvIIAAAggggIDxBAgtxhsTWoQAArkIhC7cKRLLhJ5zJ/8w36qfSX3my7qpKWm57IHVCCCAAAIIIGBEAUKLEUeFNiGAgEUBEVom9JwbtfnwsYhTVv0c3X9q19royT/Mn9BzLqHFIi8rEUAAAQQQMKwAocWwQ0PDEEBALyBCy8TeQXE7E47HJFn7c2z/qWk/LSK06Fl5jQACCCCAgOEFCC2GHyIaiAAC/xOwM7TER5wmtPzPkv8igAACCCBQlAQILUVptGgrAm4uQGhx8w8A3UcAAQQQcFsBQovbDj0dR6DoCRBait6Y0WIEEEAAAQQKQoDQUhCKbAMBBBwiQGhxCDM7QQABBBBAwHAChBbDDQkNQgCB3AQILbnJsB4BBBBAAAHXFiC0uPb40jsEXEqA0OJSw0lnbq8FdQAAIABJREFUEEAAAQQQyLcAoSXfVBREAAFnCxBanD0C7B8BBBBAAAHnCBBanOPOXhFAwAYBQosNaFRBAAEEEEDABQQILS4wiHQBAXcRILS4y0jTTwQQQAABBO4UILTc6cErBBAwsAChxcCDQ9MQQAABBBAoRAFCSyHismkEEChYAUJLwXqyNQQQQAABBIqKAKGlqIwU7UQAAZXQwocAAQQQQAAB9xQgtLjnuNNrBIqkAKGlSA4bjUYAAQQQQMBuAUKL3YRsAAEEHCVAaHGUNPtBAAEEEEDAWAKElv9n7zzgojj+PjwRlCKiWLFiL1Ej9m4UNWpiTGJ7k9iNLUaNEWti9CyJJf5NohEFGzYUey+IKIgVEGk2VBBFEDUKiFJvX3F03OwdxxWO29v98uGjc7tTfvPM7d08zBZxjQeiAQEQ0EAA0qIBDnaBAAiAAAiAgIQJQFokPLjoGghIjQCkRWojiv6AAAiAAAiAgHYEIC3acUIuEAABERCAtIhgEBACCIAACIAACJiAAKTFBNDRJAiAgH4EIC36cUMpEAABEAABEDB3ApAWcx9BxA8CMiIAaZHRYKOrIAACIAACIMAjAGnhwUASBEBA3AQgLeIeH0QHAiAAAiAAAsYiAGkxFlnUCwIgUOAEIC0FjhQVggAIgAAIgIBZEIC0mMUwIUgQAIFcApAWvA9AAARAAARAQJ4EIC3yHHf0GgTMkgCkxSyHDUGDAAiAAAiAgMEEIC0GI0QFIAAChUUA0lJYpNEOCIAACIAACIiLAKRFXOOBaEAABDQQkKG03Lt3z9PTU6FQLF++/MiRI2lpaRr4iGTXw4cPFQqFl5eXSOKRRhiPHj1SvPm5f/++NHqEXoAACICATgQgLTrhQmYQAAFTEpCVtFy5cqVjx46Wlpbk3Y+dnV1CQoIpB0CLtjMzM7/44gtLS0tfX18tsqvPkpWV1aJFC0JIixYtsrKy1GcSx1YPDw86Pv7+/oZEpFQqBw8eTAjp0qWL2nqysrIWLVpkaWnZu3fvzMxMtXmwEQRAAAQkTADSIuHBRddAQGoE5CMtOTk5Li4u72zl7f+1a9d++fKlyAf17NmzhsuGDKUlIiLCyspKg7RwHPfy5UvqcgEBASJ/GyA8EAABEChwApCWAkeKCkEABIxFQD7SEh0dXbx4cSorTk5OEyZMmD59ukKhyMnJMRbcgqg3PT29b9++hJAVK1YYUp/cpCU9PX3gwIF0uPNaaaE816xZQwjp06ePyBegDBl9lAUBEAABtQQgLWqxYCMIgIAYCchHWg4ePEinsOXLl3/w4IEYB0MlpoyMjKlTp1paWjZo0CA1NVVlvw4bZCUt6enpw4cPf7ualvfpYRRfamrqhx9+SAg5ePCgDkCRFQRAAATMnwCkxfzHED0AAdkQkI+0bNiwgc5iO3bsqFQqzWKEd+7cSWP+559/DAxYPtKSlJT06aefMmPRfHoYperu7v5aWpo1a/bq1SsDOaM4CIAACJgRAUiLGQ0WQgUBuROQj7Swy7s1nywknjdERkZGy5YtCSGOjo5JSUkGBiYHaVEqlXv37q1atSohxNLSslGjRlRd8h3xpKQkR0dHQsiOHTsM5IziIAACIGBGBCAtZjRYCBUE5E5A8tKSk5PzWlcUCsXnn39Op7A1atSgN7pdtmwZvQrf29tboVB4e3vTd0N4ePiyZctWrFgRFhamuiajVCojIyNfr9vQmyb7+/unp6dr8zbKyMgIDAxcsWKFQqHw8PAICwvTfDnNsWPHaMBDhgzRXH9GRkZAQMDy5csVCsWGDRsiIyNVw1aVFqVSGRER4ebmRkvdvHlTbSvJyckUV16Xqr98+XLZsmV8gLQedkPh2NhYuuX58+e+vr5Lly5duHDhwYMHk5OT1bbI9FLt3cP27t1L41m3bh0fYFpa2pdffkmJlSlTxtPTk66faLPSwnHcqFGjCCEdOnTAlS1qBwUbQQAEJEkA0iLJYUWnQECaBCQvLWyyTqez/H8dHR2fPHnCcRy90r1v376ZmZkzZszg3xP5t99+YwOvVCr379/fsGFDfiWvL5EvXbr0sGHDQkJCWE5BIjU1dcmSJeXKlRMUrFu37q5du7KzswX56cv+/fvT/IcPH1abgeO41/drnjt3bpkyZQQ1N2nSZNWqVXwrYBxatGjx4sULb2/vtm3bCkp17949Ojpa0FZcXBzNtnDhQsEu+vLJkyd0maJv3778DOHh4bSgv7//3bt3P/vsM0Fztra206ZNU717mwZp2bx5s7W1NSGkSpUq165d4zfHwujfvz/VJFZPvistHMdRRXx9++Pg4GB+tUiDAAiAgIQJQFokPLjoGghIjYDkpSU7O3vOnDnDhw9v3749nTRXqlRp+JufiRMnpqSkMGlp3749nVjb2tp27tz5ww8/tLOzY+sPUVFRHTt2ZNPuatWqdevWrWnTpkWLFqUbbW1tt2/frvr+8Pb2pnN6mq1Ro0bdunWrU6cOq6p169aRkZGCgomJiaVKlSKE1K5d+9GjR4K99OWqVatsbGxYPbTmatWqsS3t27d/9uwZzcykpU6dOswfLC0ta9SoUbFiRVakcuXKgictGi4tGzdurFy5Mm2iRIkStWrVsrW1ZS0OGTKEv2DCcRyTDcFKy44dO6ixODk5sXFhZJ4+fTp8+PDLly+zLawebaQlKSmpbNmyhBBXV1dWAxIgAAIgIG0CkBZpjy96BwKSIiB5aWGjpWEKS1da6DS6c+fO7HGTMTExtPjTp0/r1q1LMzRv3vzSpUvs/KukpKRx48bRXfb29ufPn2ctchx36dIle3t7unfQoEHsRCmO4yIjIzt37kx31a1b9/Hjx/yC7F5n06ZNE8zpabbTp0/TGTwhhK0tcByXk5Nz4MABOv8mhEycOJHmZ9JCW3R0dFy4cCFTmsjIyNatW9NdU6ZM4UdiuLTY2NgULVp05syZ0dHRtC+ZmZnr1q2jZCwtLfmmoVZaXt85be7cuXZ2doQQtcbCD5ilNYw4y8MSOTk5nTp1IoQ0bdoUD5pkWJAAARCQNgFIi7THF70DAUkRgLSwlRZCSLly5QQnHdHBnjVrFp3QN2nS5N9//xW8A5RKpY+PT/ny5QkhnTp1YhdFZGVl0XkwIWTUqFGqp4G9ePGCrd7MmjWLX+3kyZMJIVZWVqdPn+Zvp+msrKwOHTrQkPr166c6yd69ezfdW7JkSXp/Z760dO7cWeBIHMdFR0dTi2jRogX/lC3DpeX1vQTWrFmj2ovXl/fQIBcsWMDfy2SDrrSkpaV99dVXNGf16tVV11j4ZflpVo82Ky0cx02YMIEQYmtry3dLfoVIgwAIgIDECEBaJDag6A4ISJkApIUvLUOGDMnIyBCMd2ZmprOzM500r1u3TrCXvfy///s/qhl3796lG+/evUufyE4ICQ8PZzn5CU9PT1qzs7Mz3z169OhBCKlataraCXRcXByrWXAOFa08NTW1W7dutOaTJ09yHMeXlp07d/JjoOns7Gx6lUv16tXj4+NZBsOlpUqVKmxJh1VL15pohCNGjOBvZ7JBu7Z06VKajRBC+8LPrCHN6tFSWlauXEkbOnv2rIZqsQsEQAAEJEMA0iKZoURHQED6BCAtfGlZvXq16pDfuXOHXoNRokQJDX/m37x5M53ysmcUsqesfPPNN3k9AOTGjRtUP+zs7OLi4mjrTDAaN25Mr7oRRHX48GHaVseOHZ8/fy7YS1+eOnVqz549N27coC7E6rS1tWWnvQkKDhgwgN5h+caNG2yX4dLi4uLCzqZj1XIcl5iYWLJkyddGJ7iCn8mGv7//2bNnS5cuTTs7Z84ctWfK8evkp1k9WkoLW55SK3X8mpEGARAAAWkQgLRIYxzRCxCQBQFIC5MWOzu7K1euqI76gQMH6KS5ZcuWJ0+eDMzjZ/369TTbr7/+SiuhpxsRQn7++ec8CgX6+Pg0a9aMFvT19aUFk5OT6fX0ec22X9/zlxZZsWKFasBqtzBpqV27Nv/sL37mkSNHEkIEHAyXljFjxvBbYWl2v6+8pGXRokXs4pzPP//89ZUtrKw2CV2lJSAggFL9448/tKkfeUAABEDA3AlAWsx9BBE/CMiIAKSFSYujoyN/hYG9Cf7++286l9Xy36FDh9Ky7CZdWhZkD4p59OgRXV744osvWBj8xLfffkvr1P5EJiYtLVq0YFfd8OvkOI5KCyEkMDCQ7TJcWnS9VzKTDQE3waUvLMK8EqyevNxPUJDdo/nHH38U7MJLEAABEJAkAUiLJIcVnQIBaRKAtOQrLQsXLhTMnjW/HDhwIH2vdOnSRXNOwd4NGzbQgswTBEsQ7C3IbnfGtwu2V23CTKXFyclp7NixFJS9vX1oaKja3qndqLe0jBw5Um2F2AgCIAACEiMAaZHYgKI7ICBlApCWfKXl9ZPm6aR5+vTpOl1T0atXL0JIyZIlr169qtN7KD4+nl5Fk5e0fP311zQkaa+00HuFvXz5kj1jp0OHDnldHaRKGNKiygRbQAAEQIBPANLCp4E0CICAqAlAWvKVlu3bt1NDcHFxUXtZfF4DPGzYMFrQw8Mjrzxqtz99+pQ+8LFHjx5qM8yYMYPWrOGalsePH2/evPn8+fNJSUn8u4fpfXqY4PktLLCEhAT6BBWBYrGzrfQ+PezEiRO0laCgoHLlytEuL126lDWtOaGrtFy+fJk2oet5aJrDwF4QAAEQEC0BSItohwaBgQAICAlAWvKVlsjISEtLSzqdPXfunJDgu9c3b97cvHnzhQsXnj59Srdt2LCBlmrZsqXq011onpSUlFWrVu3atevq1atpaWl0Y3p6esOGDQkhbdq0Ub0FM8dx7D5XXbt2TU5OfhfCf/7fuHEjfwpu+Olhw4cP/08D716cPXuWNlTg0sK/m/OpU6eotzg4OKh9ls67cN7/r6u0HD9+nHZk/fr172tBCgRAAASkSwDSIt2xRc9AQHIEIC35SktGRkbLli3pdPazzz7jP02FvR2ysrLYxfH79++n2+/evUsf10gI+e2331hmfsLNzY3WbG9vz38kS/fu3enT3+mjIflF6M2CHRwcaMHt27cL9r6+pD4uLq5mzZqEEPa8eb2lJSkpqUyZMoSQjh07qj4fU6lUjhs3jkZiVGnhOI49R6VXr15qXU7AQVdpWbNmDe2In5+foCq8BAEQAAFJEoC0SHJY0SkQkCYBSEu+0sJx3I4dO+h0lhAydepUgbfEx8d/8803dDWmSZMmbMGE47gffviBFrS1tVW1i3PnzrFb+gruCzx16lSqHMePH1f7zps+fTqtuXLlyoJrZtLS0ugTV17fB6xbt270XmF6S0t2dja9pMTS0tLLy4sfjFKpXL16tbW1NY3E2NLy6tWrTp060bbWrFnDj0RtWldpGTNmDL3js1pRVNsENoIACICAWROAtJj18CF4EJAXAUiLNtKSmZnJFlsIId999116ejp9o8THxzdu3JjOpAkh69at47+BYmNjS5Uqxfa6u7uzxyyePXuWGYuVlVV4eDi/INOkuXPn8rezNL9mvrekp6d/9913rMUDBw7QInpLy+vic+fOpRXa2NgcPnyYdiEzM3PWrFmEECsrqzp16qg+I9Lwa1r4p4fRXrBn5tSvX//FixeMhtqErtLi4uJCCPnwww/Z4KqtFhtBAARAQDIEIC2SGUp0BASkTwDSoo20cBx38eLFJk2aMBkoW7Zsly5d2rVrR2/zRbf369ePv8xC3z1r1qzhe0vNmjW7devm7OzMrpOxsrJauHAhkxlail1Io+Hqf37NRYsWbdGiRdeuXR0dHVmQI0eOZItChkjLrVu3mF8RQsqWLVurVq0SJUrQhhQKxVdffVU40pKWlta8eXPa7tq1azUfnzpJS0pKSq1atQgh/fr101wt9oIACICAZAhAWiQzlOgICEifAKRFS2nhOC47O3vLli0NGjRgVkATlpaWTZo0WbVqFTMEwfvm8ePH8+bNo1eG8Mva2dlNnjz5zp07gvwcx2VmZrLZ+YULF1Qz0C0JCQmzZ8/mSxGt/7PPPvP19eVfgmKItHAcFxUVxU7NYl2oUKHC+vXrlUolfW6MsU8Po10OCAigJ6SVL18+JiYmLzIcx+kkLcHBwbRf7BGfGmrGLhAAARCQBgFIizTGEb0AAVkQkI+0hISEKN78eHp6CobW29tboVAsW7bsyZMngl2qL5VK5fXr1z09PRUKxeLFi/fu3ZuYmKiaTXVLRkbGhQsXVq1apVAoli9f7uPjo/kEJ/Z8mJkzZ6rWxt+Slpbm6+v7Or9Codi6davaqXxOTs7rSbxCofDw8MjraTOvT76iiOLi4vj1s/TNmzfXrl2rUCiWLl3q6+vLTqOiAAXT/UePHtHaAgICWA38xMuXL5ctW6ZQKAQF2Ujx70zACiqVyk2bNtGafXx82HbVBKtHdcRVM9NT4JycnJ49e6a6F1tAAARAQJIEIC2SHFZ0CgSkSUA+0mJ24xcfH09vEdaoUaOXL1+aXfxmFHB6erqzszMhZPr06WYUNkIFARAAAQMJQFoMBIjiIAAChUcA0lJ4rHVvaeLEifScpVOnTuleGiW0JXDmzBlCSMmSJaOjo7Utg3wgAAIgYP4EIC3mP4boAQjIhgCkRcxDfefOnRo1ahBC+vTpI7hSX8xhm1dsSqVy4MCBhJBJkyaZV+SIFgRAAAQMJABpMRAgioMACBQeAUhL4bHWq6VLly6VL1/e2tr6ypUrelWAQvkQCA8PL168ePny5fO6kief8tgNAiAAAmZLANJitkOHwEFAfgQgLeIfc3d3d0LIgAED8rqAXvxdEG2E2dnZgwcPJoSsXLlStEEiMBAAARAwEgFIi5HAoloQAIGCJwBpKXimBV1jZmZm7969LS0tT58+XdB1y7q+7Ozsv/76y8rKqmfPnhkZGbJmgc6DAAjIkgCkRZbDjk6DgHkSgLSYxbjRp4gIHoRiFpGLOciIiAj6iMy8bsos5uARGwiAAAgYTgDSYjhD1AACIFBIBAL2XHZz9XKf4X3zcuy9qARdf2PC4jfM2bNm2vZXqemFFDGaAQEQAAEQAAEQKAgCkJaCoIg6QAAE8iOQnZX9/HHK86RkvX+Tn6T6brtQANIy1Svp/lO9w3ielPwsKflFMh5Fkt+QYz8IgAAIgAAIFBwBSEvBsURNIAACeRN4mZbhteSwm6uX4b8eM71v6L3S8usewwNYM2371dPX8u4r9oAACIAACIAACBQwAUhLAQNFdSAAAnkRuBUas3ra9lxnmOrlMWun+0xvPX49Znrv/utE9JU4Xc8NuxeVEBvxcMvCg3o06j7T22Omt/sMbyo8e1b4ZGdm59VNbAcBEAABEAABEChwApCWAkeKCkEABPIkcPHkNXp+V9DxyJjw+Nuh93X9vXP1QWzkQz2MhRaJidCz0ZiI+EMeZ9xcvTzn7Xv55FWePcQOEAABEAABEAABIxCAtBgBKqoEARDIg4BSqTy6IcDN1Wv1tO2Xjobr7R6FXPBu2INjb8L2mOmdGJuUR+ewGQRAAARAAARAwFgEIC3GIot6QQAE1BLIeJW5Y9lRN1cvj5neEWejC1k/9GguNjLhgNspelbb9ct31XYKG0EABEAABEAABIxKANJiVLyoHARAQA2BZ49fbP39UO6pVoq90SH39BCJwixyZmfufZbdXL3O7QvilGq6g00gAAIgAAIgAALGJgBpMTZh1A8CIKCGQFrKq/Wzd7u5evlsCixMA9G1reiQe2um73Bz9fJafDgLF9+rGUlsAgEQAAEQAIHCIABpKQzKaAMEQECVwI2gu28uyt8RHnBLV5conPyxkQ/piWE7lx9LfZ6m2gVsAQEQAAEQAAEQKBwCkJbC4YxWQAAE1BC4dPyqm6vXhjl7bgbp84R7Y6sLfZalp2Lfk0f/qokem0AABEAABEAABAqLAKSlsEijHRAAARUCOTnKI+v93Vy9ti85EhMeb2wJ0an+oOORq6duXzN9R3z0I5XAsQEEQAAEQAAEQKBQCUBaChU3GgMBEBAQeJWWvm1R7kX5hz3OGPIAFp2EJN/MUedur521083VK+LsTUHAeAkCIAACIAACIFD4BCAthc8cLYIACPyHwL+Jyet/zb0o/8zOy/nqRCFkiA6556nY6+bqFbAn+D+B4gUIgAAIgAAIgICJCEBaTAQezYIACPAIxF6LXzNt++qp20NORhWClmhoIiY8fuf/jrm5eu1f5ZuTncOLEUkQAAEQAAEQAAGTEYC0mAw9GgYBEOATCDkZ6TbVa93sXTcuxmiQCqPuio18eHxjoJur1+YF+9OSX/LDQxoEQAAEQAAEQMCEBCAtJoSPpkEABP5D4OTWc26uXlt/P3jzsmluJha474qbq9fan3clPXzyn8jwAgRAAARAAARAwKQEIC0mxY/GQQAEeASyMrJ2/Xk8Vxtm7bx6+qZRF1UElcdGPvTfHbxm2na3adtvhd7jBYUkCIAACIAACICA6QlAWkw/BogABECAEXh499Hqqdtzn0C/5HBh3kws2CfKzdXLzdXrwOpTLBgkQAAEQAAEQAAEREIA0iKSgUAYIAACbwmc8rpI/SFw3xXBeoiRXt4Ovb9l4QGcGIa3IAiAAAiAAAiIlgCkRbRDg8BAQKYEsjKzzx8KpQ92vOJ7zUiiwqqNjXi4+805aaun74iJeiBT6Og2CIAACIAACIibAKRF3OOD6EBArgRO7j2TezOxX3bduGTEm4m9uV3YWTdXr03z9z+JfyZX2Og3CIAACIAACIidAKRF7COE+EBApgSU3PFNAW6uXtsWHbpz9QFbGCnYxPmDV+l1/4mxT2XKGd0GARAAARAAAXMgAGkxh1FCjCAgSwIZrzJ3/u8ofc6jMS7KDztz032mt9tUr1tXYmUJGJ0GARAAARAAAbMhAGkxm6FCoCAgQwKpT15smLPHzdXrlNfFgl1juRV8j9Z8aFu0DMGiyyAAAiAAAiBgXgQgLeY1XogWBGRH4MGth+4zvN1cvS4fjywob7kb9mDH0iNurl6H1p5W5ihlxxQdBgEQAAEQAAFzIwBpMbcRQ7wgID8CVwOu0/sRR567XSDecnjtGfoomFcv0uWHEz0GARAAARAAAfMjAGkxvzFDxCAgQwKBh4PcXL08FXujr8QZ6C1nduZWte6XXf8+xu3CZPhWQpdBAARAAATMkgCkxSyHDUGDgNwIZGZkrf9lt5ur17ENZw2RlptBsWum73Bz9QryiZAbQ/QXBEAABEAABMyXAKTFfMcOkYOAvAhEnLu1eup2j5ne5w6ExkY81ENdYsLjD6w+5ebqtWPZ0fS0DHnhQ29BAARAAARAwJwJQFrMefQQOwjIjMCZAyFurl5url5+Oy7pKi23gu95L8u9gfKGOXuSH6XKjBy6CwIgAAIgAALmTQDSYt7jh+hBQFYElErlwTW5SyVuU70uH4/Q3lvuhsdvf3O7MPcZO+JuPZQVNHQWBEAABEAABCRAANIigUFEF0BARgReprw65O7nNtVr7c+7rp2/o423xEY+PLLW383Va/XU7aF+12QEC10FARAAARAAAakQgLRIZSTRDxCQDQGlUunnfdHN1WvLwgO3tbiZWMDuYDdXr/Wzd0dfucfhoSyyeZ+goyAAAiAAAlIiAGmR0miiLyAgFwLZWTl7Vvi4uXrt/uuE5ovyr5y6vnra9jXTtsdE3JcLHfQTBEAABEAABCRHANIiuSFFh0BAHgRSn6dtmr/PzdXruGdgbKT6m4ldu3B33S+7cm9wfAI3OJbH2wK9BAEQAAEQkCgBSItEBxbdAgEZEEi4m7R21k43V69z+0NVL265HXp/628H3Vy9fLYEKnNwWpgM3hDoIgiAAAiAgHQJQFqkO7boGQjIgMC1i7fdpnq5z/AO87/J95bYyIf7/vF1c/XyXnY0Mz1LBiTQRRAAARAAARCQMgFIi5RHF30DATkQ2PN37sUt25ce4UtLsE8kvTPyg1uJcoCAPoIACIAACICAtAlAWqQ9vugdCEifwJO4f+mFK2f3hlBviQ6J27xgv5url6/XedwuTPrvAPQQBEAABEBABgQgLTIYZHQRBKRO4GZwDD1J7Irv9ZiIeLr2suuv4xmvMqXedfQPBEAABEAABGRBANIii2FGJ0FA8gQuHrnq5pp7ccuGOXvcXL02Kva+eJ4m+V6jgyAAAiAAAiAgEwKQFpkMNLoJAtIncNzzbO51LK5ea2ftfHg3SfodRg9BAARAAARAQDYEIC2yGWp0FASkTiAt9ZXXkiNurl6R56Kl3lf0DwRAAARAAATkRQDSIq/xRm9BQNoE/n3yLCHmsbT7iN6BAAiAAAiAgAwJQFpkOOjoMgiAAAiAAAiAAAiAAAiYEwFIizmNFmIFARAAARAAARAAARAAARkSgLTIcNDRZRAAARAAARAAARAAARAwJwKQFnMaLcQKAiAAAiAAAiAAAiAAAjIkAGmR4aCjyyAAAiAAAiAAAiAAAiBgTgQgLeY0WogVBEAABEAABEAABEAABGRIANIiw0FHl0EABEAABEAABEAABEDAnAhAWsxptBArCIAACIAACIAACIAACMiQAKRFhoOOLoMACIAACIAACIAACICAORGAtJjTaCFWEAABEAABEAABEAABEJAhAUiLDAcdXQYBEAABEAABEAABEAABcyIAaTGn0UKsIAACIAACIAACIAACICBDApAWGQ46ugwCIAACIAACIAACIAAC5kQA0mJOo4VYQQAEQAAEQAAEQAAEQECGBCAtMhx0dBkEQAAEQAAEQAAEQAAEzIkApMWcRguxggAIgAAIgAAIgAAIgIAMCUBaZDjo6DIIgAAIgAAIgAAIgAAImBMBSIs5jRZiBQEQAAEQAAEQAAEQAAEZEoC0yHDQ0WUQAAEQAAEQAAEQAAEQMCcCRpeWa0cH4hcE9CPwOHqXOR1MBRfrhOWn8QsC+hE4eiGnAxukAAAgAElEQVSm4N6J5lTT/ENj8AsC+hHwv3nInN7riBUE5EoA0gKnEi8BSIt+01aUkjMBSIt+01aUkjMBSItc58Dot5kRKCRp4VKC8QsC2hNIivz72tGBMpeWW4nZ+AUB7QlsOXlnwvLTMpeWqMRI/IKA9gR2hayff2gMpMXMpq4IV64EIC2wKTESgLRMWH5a+9kqcoLArcRsSMv8Q2O0n60iJwhEJUZCWuQ6+0W/zZIApEWMU3btVySkmhPSAmmBh+hKANICaYGH6EoA0mKWU1cELVcCkBZIixgJQFogLbpO2ZEf0gJp0XXKjvyQFrnOftFvsyQAaRHjlF2q6yfa9wvSAmmBhOhKANICaYGE6EoA0mKWU1cELVcCkBZIixgJQFogLbpO2ZEf0gJp0XXKjvyQFrnOftFvsyQAaRHjlF37FQmp5oS0QFogIboSgLRAWiAhuhKAtJjl1BVBy5UApAXSIkYCkBZIi65TduSHtEBadJ2yIz+kRa6zX/TbLAlAWsQ4ZZfq+on2/YK0QFogIboSgLRAWiAhuhKAtJjl1BVBy5UApAXSIkYCkBZIi65TduSHtEBadJ2yIz+kRa6zX/TbLAlAWsQ4Zdd+RUKqOSEtkBZIiK4EIC2QFkiIrgQgLWY5dUXQciUAaYG0iJEApAXSouuUHfkhLZAWXafsyA9pkevsF/02SwKQFjFO2aW6fqJ9vyAtkBZIiK4EIC2QFkiIrgQgLWY5dUXQciUAaYG0iJEApAXSouuUHfkhLZAWXafsyA9pkevsF/02SwKQFjFO2bVfkZBqTkgLpAUSoisBSAukBRKiKwFIi1lOXRG0XAlAWiAtYiQAaYG06DplR35IC6RF1yk78kNa5Dr7Rb/NkgCkRYxTdqmun2jfL0gLpAUSoisBSAukBRKiKwFIi1lOXRG0XAlAWiAtYiQAaYG06DplR35IC6RF1yk78kNa5Dr7Rb/NkgCkRYxTdu1XJKSaE9ICaYGE6EoA0gJpgYToSgDSYpZTVwQtVwKQFkiLGAlAWiAtuk7ZkR/SAmnRdcqO/JAWuc5+0W+zJABpEeOUXarrJ9r3C9ICaYGE6EoA0gJpgYToSgDSYpZTVwQtVwKQFkiLGAlAWiAtuk7ZkR/SAmnRdcqO/JAWuc5+0W+zJABpEeOUXfsVCanmhLRAWiAhuhKAtEBaICG6EoC0mOXUFUHLlQCkBdIiRgKQFkiLrlN25Ie0QFp0nbIjP6RFrrNf9NssCUBaxDhll+r6ifb9grRAWiAhuhKAtEBaICG6EoC0mOXUFUHLlQCkBdIiRgKQFkiLrlN25Ie0QFp0nbIjP6RFrrNf9NssCUBaxDhl135FQqo5IS2QFkiIrgQgLZAWSIiuBCAtZjl1RdByJQBpgbSIkQCkBdKi65Qd+SEtkBZdp+zID2mR6+wX/TZLArKQlkd3fKb9OLR+3erkzU/liuXGjx6gTA4q/GWKuOtHXj4K1LLdzKcXt3jMnztrzNxZY2IiD2lZiksJTrx9gpb6Y+GPaYnaNqd9/YWQE9JiXtKy1+fSxKlzJk6dczrojpjlwT8khsa52nOvgXEGht2fOHWO4fUYGAa/OKTFvKRlp4/3+Knjx08dfzLIR8zy4Btyksa50nOFHnGGPbi66+QuxR+K8VPHT5071d1rzaXoi3rUY6QikBaznLoiaLkSkL60PL3n91GjOlRX2L/fDuhZCDNvfhMZTy+sXDb9w/o1H8f48rdrSKc9CuzRtS2N+cxRDw05BbvCLmynpSqUL6N9c4JKTPsS0mJe0rJg2Wr6ltu6z48/jRZbesfBABpn/29GGBLbjYcZ/b4eTggxsB5DYlAtC2kxL2lRLJtL342b9nkaaUZeINVuPbiFxtn3m690qvBw4KHBowaXdyxPi7N/i1kVGzh0YOC1QJ1qM1JmSItcZ7/ot1kSkL60rPhjGv2sdChl/399u7tOHDx5/Lf7vJYV8qR8xOA+hBCdLALS8jh6l1keVQYHPWH5aUiL6qTc8C0FIi03E7IW/bmuiIUFpMXgd3pBVjD/0BhIizFm9vpJy4Y9G+xL2TNRqVajWttObeo1rFfEogjd6FTTafP+TZEJEcaIWfs6IS0FeRCiLhAwMgHpS8vX/XvQj8jCFxW+F/Xt0wXSwgeiOS2RlZaHD/U7fiEthvuJ2hoKRFpOXYouYV+SfqpgpUW/d7imUvoeNZAW7WfqOuXUQ1qu3g9t5NyIHiNFixVdsmoJkxOvI9tKOZSiu4rbFT8ceEinYAo8M6RF08GIfSAgMgLSl5bePTsSQhxK2Sfe9tE8UTbq3sKUFqN2pHAql4i0xMZyLi7cqVO6HvWQFrXKYfhGw6UlMOx+0xZvT9rESouub2yt8ut71EBaCnxCTyvUQ1pWbVlFtaSEfYklbu+NhVbofXxHqdJvvWXQd4OYzxgpfs3VQlq0OiqRCQTEQUD60tKlYwtCSK0aVdK0vgLeGPNySItOVCUiLRzHjRrFEcJ16qSTukBaDPcTtTUYIi03E7K27fOrWLkqnY3Rf7HSYpQvMr2OGkiL5tm53nt1lZaIh+EdXDoQQorbFf9n8z9qnWT+8vn0CCrvWP78jfN6x2Z4QUiLUQ5hVAoCxiEAaSmkG/5CWmQqLXfvckWL5noLVRc/P20OZEiLWuUwfKN+0nI9PmPFOu/mrdrT61jsStjPVCyDtGjzTtYzj15HDaTF8Bm82hp0lZbz18+Vq1COENK2U9vw+DC1dfqFnrKxtaEHkffxHWrzFM5GSIueBymKgYApCEhWWtgdtOjHIv/fvn268CfQ96IO/z73h17d29eqUcXGxooQYl+ieKvmDWdOGX4rdC8/Jz8dd+3w3Jmj27X+yK547ievjY3VR43qjPuuX6DPev7NlPMKo3nTBplPL/IrVE0LLsR/lXTuz8VT2rZqbGVVzK64jXPjut8N/eLS6U385mglrFHBdf8jh+TeDKB50wYvH53jUoJDA7eNGdG3ds3cvxyXdrDv82mnzR7zM55eUI2k8LdIZ6WF47iRI99KC1WXatW4uXO5Z880HO8ikZbAsPtTfl7YpftnVZ1qEEJsi9s1a9l20rS55yPiBf7Av3vY9fiMlet2uvT4vFLlakUsLGyL2zVv1X7WvGWhd54LSt1KzO7/zQhCSNlyFS5dS1Tdeysxe/LMefTgPeQXyjKEx6Y2atKcnZ11LvzB95N/bti4qYWlpbW1TZ36Db8cOGTrPr+bCVmsCE1okJYTgVFNmrWmbTX8qBm/j4f8QtkHSKu2nY4HRvmHxNAtWGnR8DY2aJfuR41IpOVM2OnJP//4cfePqzhVeXPU2DZt6Txh2g8BEf6CWTj/7mHh8WF/rvuzS48uFStXLGJRxLa4bbNWTafPmx5057KgVFRiZN9vviKElClXJq8bcE2cOZG+P/f57WXFQ2JDGjZpSAihNwHzDz8zdvKYDxs3sLC0sLa2rlO/9hcD+3ju81RdGNEgLYcDD33U7CPa1ocffUj7eCbsdEeXDjXr1PxmxNesdUEi8FpgmXJlaEHT3jwN0mLQcYrCIFC4BGQtLdnPLv2umEBFhX56Cv61sbFyWz5T1Qp2bFxUws5WkJm9HPrNZ+zpKMwf2F6a0FVavD0XtWz2oaASQoiFRZHJ479Nf3ye7xWs0bykJTXh7OJ5Ey0tc29/JPj5pGsbnZ4Jw2+3ANOSkpY7dzhLy/94CyFcyZLcnDl5qYvJpeXGw8w5i1YUtysheHvQl6UcSq/ZvJ/vA0xa3Dz3du2R68aqP7XqNjgddJtfqkCkZePO4w6ly6o2V8TCYvQP067HZ/BbzEta/C5HV6mWK2aEkCbNWvON5VZi9iG/UAtLyzbtOy9d6UkrhLQY/XtK96PG5NIS8TD8l0W/FLcrrvpuJISUdCi5avM//Lk7k5aVnitceuTeqUX1p1bdWj5BJ/ilCkRa1u1c6/DuqhJ+o0Usinz3w0jB8khe0uJz+USVapVp8Y+afaRqZYKw+S/3nNrD2jXttfiQFqMfy2gABAqOgGSl5VXSuZiIgzERB9u2yv07kFPViteDd9MtCdEn6PT6r8Wu9HOzerWK834eu2vLkoDja88cdf9n2fTOHXP/jpv7dzIb6/ALO/jT8SuB20qUyP1aqlKp/IJfvz+x/5+zJ9b5HnRb8Ov31atVpKVmuY6gRVgYPbu3I4SUK+twJXBbTMTB+9ePqLoQvxUuJZi/0lKmdO7dipp+VG/V8hkBx9duW79wzIi+5co60OYmjfuaX5tmaalW1bFfHxcLiyIl7GxHDfvSY8Uv61f9+t3QL5i81avjFBulw7MsBWEXyEtJSQvHccOHC6WFrrqUKqV21cW00nIzIWum4g/61ipuV6Ln5/1/WfDn1n1+7pv3fz10TDGr3NXI4nYldh07z3yASUsph9y/nlasXG3MhOlL/t6wdMXGMROmly1XgdbWofMn1x68YqUMl5YGjZwdSpcpYmHRrWef2Qv+zG1u4oz6Dd/+6fd1JO5bDvCbUyst/iExTjVr0wibtWx3MTKBX+RWYvalqES/y9H8jZCWgvsOyrsmHY8a00pLZELEdMXb2+sXtyve4/NPZi2Y6blv46rN/wwcOrCYVTF6jceOY9vZ3J1JC72bVsXKFUdN+O63v3/7fcXvoyZ8xxYi2nduH/bgKitluLTUb1S/VOlSRSyKuPR0mbVgZm5zE0fVa1iPHgKvv6dWbVnFb06ttJwK8XWq6USLNG3Z9GxkAL+I5nRkQsSQ0UNo2Vp1a4bEBGvOb9S9kJa8j0DsAQHREZCstLCpc14X4j+641O2TO4NTGpUr/zw1nGWnyayn112nTiYfqrO+GkYf++wb3vnntBSptTtq/v527mU4Ie3jteonvuXp+rVKj1/cIa/18BrWgghw77t/TIp97Qu9nsv6nCdWrkndxUrVvTcyfVsu2ZpoZ1q0qjO7bD/xB9wfC2VsdcnyC1fNIXVZpKE1KQlOpqzsFDvLYRwVF2eP2cfD6aVliP+4XSNpbxjpYOnrvAn67cSs9ds3k+9pXW7j689SKd7mbQQQr4aODT09jN+qTMhdytXzZ3fFC1a7HhgFH+XgaeH5d4YsHSZjd7H+WeC8aXr4669+LtUpeVc2P26DRrnHkRWVv83eLSqsfCjZWlIC3uvGjGh41FjWmk54L+frrGUdyy/99QewTz7n83/UG9p2a5l2IO3l3kwaSGEfDHwi8u3L/FL+YacrFS10pujpqhgLcLA08MIIaVKl1rrvZZ/JlhkQsS0d9LVqWsn/i5VaTkTdrpug7pvjppiAwYP0MlYohIjd57wZhe0TPl1Cr/XhZ+GtBjxEEbVIFDQBOQrLVvWvr17ycbVc9XOy2MiDtpY5/5RmX8NTM7zy+3bNCGEdGjrnPP8smrBxfMmftSozoAvu92/cZS/10BpaVCvRnK8P79Cmr7o51msWFFCyDf9e7DFlnylxc7O9tLpTYLalMlBX/f7hCpN/y+7CvYW8ksqLU/DvAr6DW+6+oYOzVNa2KrLvHncvXscx5lWWoaOmkDfBms27WPTdJa4mZDV9+th1EBOnLtGtzNpqVWnQehtNdeuTPt1Ma1z1YbdrCrDV1oIIb8sWM6vkKbD7ibXrJ37l+PqNeuEx6SyDAJpOR8R36CRMzWWP1Z68vWGFVGbELO0nDodZbp3eUG3rMtRY1ppGTxqEH2H/7PpP+eA0Vl4ZELEl19/+dZAzh2mG5m01KxT8/JtNdeuTPl1Cq3z7w1/8WfzhkvLzAUz+BXSdPDdoBq1c0+SdKrpxF/9EEhLQIR/g0b1qbEsWvk7X29U61Td4hfqx5ZoPu//uUDVVPMbewuVFp+rewr6vYv6QAAECp6AfKXl+YMzQf6bN66e+/Sen9oZeXK8f7UqjoSQTz9pz8/Q682JXrY21od3/cU8gZ9BbdpAafln2XS11WY9u9SxXVNCSOWK5f+Ne9uRfKVl9PCv1N4GgJ0v16VjC7XNFdpGKi1JgxrmM9Gn032J/eviYkJpCY9NrVW3ASGkbv2GEbEv1E7Zj/qHr/bce/LCDdWVlh+nK9QW8Tpwhk6/Fixbzc9g4EqLtbWN32XhdTK0/o+79lK9xJ8vLUE3HjdrmXvSZjErK52M5VZitpil5UiPYfI8akwoLSGxwTXr1iSE1K5f+0psiNp59gH//Ss9Vx67cFR1pWXC9B/UFtl8YBM9ahTL5vIzGCgtVtZWPpeF18nQ+jt1zX2smeASf760nL9xrmnL3G+cYlbF9DCWM+Fn2Hlo/zd04NX7ofx+mSRNpaXLN29PCKfAC//fgp/coUYQkCIB+UpLvvPvlHh/eo2KYAY/Z+Zo9ok2Yez/MVXQXKGB0nLed2Ne9Q8f9DmNJ+KiN82Tr7Rscp+ntjb3v3+hVQm6rDazUTfKWloIMaG0BIbdty1uRwjp3usLvl1oTrOVlpXrd6rNyW7AVbDSUtWpRtjdZLUtfvJp7h2WBPcl40vLsNGT6Lu9Z+9+2q+x0LYgLSL0IhNKy+mw07bFc2/N0rVXV+1n3myl5a/1f6ottc9vL32LFqy0VHGqEnw3SG2L3T7tplla2LUon/T+RNc1loiH4V17udAeOdV0unjrgtoYCnkjpEWKM1v0SbIEIC3vLxFRJgelPgyIuOi9Ze2CKRMGtXh3ty7BDP568G56WTz98LWyKtai2YfjRvbbs3Xp8/v/uY6FP603RFosLIpouKPX/37/iUZy9sQ62mK+0nJ099/82FhabNLyeM33nEIhkd+PP85/nlemDDdmTOblIBNKyxH/cPp2GjF2sloZULuRScv67UfVZmDSMnnmPH4GA1da6tZvFBmXxq+QpTVLS6Uq1eiVObm3x6hQ8ezVOFZQm4SYpeXYb+slcsgoFJzWR01W0EUTSssB//30qBk2dqj2c24mLR7b3dWWYtIyceZEfgYDV1rq1K8TGneFXyFLa5aWSlUq0itz3hw15U5f9WMF802Ex4eNnTymiEUReiM1z70b8y1SOBmotMxd/ZPCFD+dO3em7xzJzjHRMRAoUAJyl5an904tX/RT3z4uNd9cQE8/PgT/CqSFSwk+e2IdvQJekNPS0uKzHh12b1ma/ewSMwGaMERaBHcuFtTMTGPvtj/ornylJdDn/VX7/NpYVapd5mcrhLTULsTPyuJq1dIkLaVLc7/9xqWk0KPbhNKydZ8ffVcL7ELzVJ5Jy9Z9fmpzGklaGjVpLrgdGWtds7TQPtqVsKeJLwcMufHwPzdHZvWoTYhZWo5eiCnQ7wjTVabjUWNCadm0z5O+kQR2oXnazaQlrweVGElaGjZpKLgdGYtTs7S8O2pyV2IJIX0G9Il4GM7Kakhcvn3p8/5vzwgoV6Ec/xZqGkoVzi4qLf43D5nkjf5alChMk7SORkHA7AjIV1qUyUFe63/jr5nQz47cs/nrOI0Z/tXG1XPpPYXVzuAzn148tmfFd0O/qFC+NCvIEgO+6vYi8Sx/cl8I0nJ411+0RUiL6I7DTZvyNJbSpbmFC7nkZH7MkBamCpofLmmItDRr2c4/JKZ5q/aEkCIWFv9s2MUazTcBaeG/XY2V1vGogbSwWb7mh0saIi1NWzb1DfFt2ir3spYiFkUEdwhgAfATp674Nmmee/ea3Ht11q5x9PwR/l6TpyEtxjp+US8IGIGAfKXl1KHVVm/unW9hUeTzXh3/WPjj4V1/hV/YkfYokE79H8f4Viif+9AJtdLChCTn+eX4W8eO7P7bdeLgurWrMW/5c7Ery8OlBBsiLYQQDQ9OWbrg7an5F/08IS1GOEYMrjI7m6tTR420ODhwCxYIdIU2ZkJpOeAbQt/D+p0ept9KS5ly5S9dS1SrCj/OePuXyEN+oSxDeGxqoya5F87qLS0NP2p2+fqjW4nZ+3wu29rmPnapclWnI/5hrAnNCUiLwUdFfhXoftSYUFr2+O6mR41+p4cZsNJyVu2kf+KMtzcA3Oe3l2UIiQ1p2KQhIURvafnwow/PXQ+MSozc5bOT3rO4UtVKB/z3syYEifD4sH82/UNv3Jx7y02XDmejdHici6A2I72EtOR3KGI/CIiIgEylJfvZpY/bN6NPlN/huUjtTcDibx0rXtwmX2nhm0n2s8vuf/9s8ea03U7tm/LviWygtJw7uYHfEEsrk4O++OxjQoidnS172gxWWkR0hHEct3mz0FgcHLj58zneg1kEAZtQWs6FPyj+5kL8Dp2753V5+tGAiMpVnT7u2pM9utHA08NeH2X+ITFqPaH3V1/T6WDBSkv/b0bQ5m4mZI2Z8PaZgBUrVz3qH642DMFGSIvgHVvwL3U/akwoLf7hZ+iF+O06t8vr8vSDAQcqV63csWtHt3ePbjTw9LDXGuAbclLtVP7Trz6lR03BSkvfb76izUUmRHw34TvahGNlR7XeEh4fNnTsUJqHEDJw6IAr99TfV01tFwptI6Sl4A9e1AgCRiMgU2l5es+vUsVyuX9zalDr1ePzzAH4iSO7/6YfuPyVlrhrR4Z927tF0wZ//XchhRVMSwysWSP3+ZLNmzbg31Z40MCehBDNV6ewSmgi7VFgj65taQzTfhwq2EtfJkQfp+endWrfNOvdhTSQFqMdL7pXnJ3N1a37XlpcXDhPTw26QhswobRcj09v0brD6weM2pcsdTb0nmCyTl8qlqyib8t1XofpFr2l5dvh39OqjpxRs8oRFpNS+839l18fUEaSlluJ2cE3n9SsnfvcCUJIu05dI+Nequ01fyOkRfcjQZcSeh01JpSW8Piw5q1z/wpmX9LeL/SU2gn3r0t+pe8xd681NIPe0vL18Lcmf+CMmlWO4JjgWnVr0baMJC1RiZEXb16gD3UhhLTt1OZq3H9uXhyZEDF60vvbbH4/ZVx4/NtHaqqFY8KNkBZdjkzkBQETE5CptPwbd7pypfKEkFo1qqh9aOO/9/ycP8p94q9gpeVJrC+VhMYNa6c+DFAViXtRh0uVzL1OsXfPjvwFnJFD+uTeNcXeLiH6hGoptVv40lLaoWTY+e2CbNnPLo0d0ZcGuW39QrYX0mLio4rf/JYtb42lc2fuzBn+Hg1pE0rLrcTs35avpW+q4WMm3XiYyZ+s30rMDrr5uFad3Cl+9Zp12JPv9ZaWee/8R/UBLzcTsub8voJGYlRpuZWY7bH1YBELC9rW3EUrBV1WfQlp0fDuLYBdeh01JpSWqMTI+cvfPq14yJghqpenX7h5vmad3Ae5ONV0Yo9T1Fta5rzznwnTJwim+5EJEb/8/vbO9YQQ40lLVGLk6q1u9G5ghJDZi2bzI3Hf7l60aO5TjwkhoyeNzmv1iV/EVGlISwEcsKgCBAqLgEylJfvZ5e5dWtOP1B+///pV0jk241cmB/kf82DGkvvH19YfZT+7zDJMnTSEFuzZre3tsP1sO5cSfPvqvvZtcq84tLAocnjn28viaYYpEwfTUkvmT0qJ93+ZdI6vNPxKWJovLblzxGoV/Y950FLK5KDbYfu/G/oFiySdt14EaSmswye/dnJyuHr1cm/bevp0fln/s9+00hIWk9K05dslvqGjJp66FM3OE/O9eLN1+7f36PxtuQebzestLccDo6xtch9wYW1tM2fRish7ufcvvh6f4XP++nfjXS0sLUuXyV0RNba03HiY2ffrYbQhh9JlfM5fZ11Tm4C0/Of9WrAv9D1qTCstITHBzi2d6Vto8KjBJy4dZzP1YxePtWrfiu6av3w+m53rLS2HAw9Z21i/OWqsZy/6JfRe7v2Lw+PDjpw/MmL8CAtLi9Jl3t4exqjSEvEw/Kuvv6T9KlW6FLvCPujO5dr1atPt34789si5wz5BJzT85vXQGAbKqAlIS8EevqgNBIxKQKbSwqUEn/fdUKJE7gW4b87aKt3vC5dh3/bu/0VXdu/jYd/2btc610Aa1Kv+8t3V+VxK8LO4062a517OSH9q16zarXOrbp1b1a3j9G4b+emHbwV3Pd61eQnbS1d4UhPULNQwY+FSgpm0VChfesZPb2dUtDmnqhVZbU0/qpdw+z+rN5AWox4zOlR+7Rrn56dD/ndZTSsttxKzTwfdrlm7HnuPVaxUtW1Hl/oNm7DliBFjf7oe//4ewXpLy82ErKGjJrKGrK1tqlWvSZ9uSS+Od/N8+3w9450eRrXkbOi9+g0/opG4fNI76r6mk8QgLe/eqkb4X9+jxrTSEpUY6RN0gp0xRQhxrOTYpmObeg3rseWIYWOH8c+S0ltaIhMiBo96+1cwqi5Vq1elF9UQQipVrbTS8+0SpVGlJSox0i/0FHvCfedPOtMn3C9zX8aOaG0Sed2HwKiuwiqHtBjhGEaVIGAsAvKVFi4leJHi7S1WVD9YZ/40XJkcNH5Uf3qN+4MbR/k6ce/aYXpJjGpBQki/Pi5Z/wqf0/Ik9hQ9IY0WsbOzjb91jF+naponLWUSb5/4rEfulQaCn0oVy927dlhQFtJirMOlsOo1ubTcSsw+dSm6vGMlwfuNvuzxWd/r8en8JQi9peVWYnZ4bGpj5xaqDVlZ23gfPsse8GJsabmVmL33xKUS9iVpJDuPBPI7KEhDWgrrUNChHZNLS1Ri5IlLx8s75p54rPrT/bPufGOJSozUW1qiEiNDYoMbOTdSbcXK2mrb4a3sAS/GlpaoxMidJ7xL2JegkXgd2RaVGMkuuVENT+0WSAshRp+J6XAgISsIiJiA0Q+Va0cHXjs6UDCrLsyXXTrmzodq1ajC7mXMWs9+dmnrugV9Pu3kWCH31sbFihWtV8dpxODPj+1dQddJtm/8nX7I7tj4OytFE3HXDitmjfm4fbOyZUrRPNWrVez/ZVfPNYq8ruw/77uhV/d2dm/uSEYIibzkLahT8JIvLY9jfP+N81P8PPajRnUsLIqUdrDv0NZ52qQhsZGHBKW4lGBIi4iPOK1CE4O03ErM9g+J+WHKLx27fFK5au4qop1diXadus5dvDIi9gcH5PoAACAASURBVIVgEm+ItOReJ3MjafLM+U2atSpmZWVtbdO8VfvhY3/cfezCzYSswpSWGw8zh45+u+zTrecXeT22kpKhRz27C5kAiElebjl5Z8Ly09J5uKRWx8r7TGKQlqjESN8Q33FTxrXv0r5y1dw7shS3K962U5tfF8++Eiu8d5Yh0hKVGHn+xrlJMyd+1OyjYlbFrK2tm7VqOnTs0B3HtkcmRBSmtEQ8jBg8+u2yj0tPl7AHV+kTKtX6idqNkBZIy/vDGCkQ0EhA+tKiOqfHFvETSIr8+9rRgY+jd2l890p2p0ikxSQzbzSqNwFIy/xDY9hpP0iAgDYEcHqYZL9H0TEpEoC0BIt/Bi/DCCEtE5af1nvyioLyJABpgbRoM01HHj4BSIsUZ7bok2QJQFogLWIkAGmBtMhTPAzpNaQF0sKfjiOtDQFIi2Snt+iYFAlAWsQ4ZZfh0oqgy5AWSIsh03d5loW0QFq0maYjD58ApEWKM1v0SbIEIC2QFjESgLRAWuQpHob0GtICaeFPx5HWhgCkRbLTW3RMigQgLWKcsguWHWT4EtICaTFk+i7PspAWSIs203Tk4ROAtEhxZos+SZYApAXSIkYCkBZIizzFw5BeQ1ogLfzpONLaEIC0SHZ6i45JkQCkRYxTdhkurQi6DGmBtBgyfZdnWUgLpEWbaTry8AlAWqQ4s0WfJEsA0gJpESMBSAukRZ7iYUivIS2QFv50HGltCEBaJDu9RcekSADSIsYpu2DZQYYvIS2QFkOm7/IsC2mBtGgzTUcePgFIixRntuiTZAlAWiAtYiQAaYG0yFM8DOk1pAXSwp+OI60NAUiLZKe36JgUCUBaxDhll+HSiqDLkBZIiyHTd3mWhbRAWrSZpiMPnwCkRYozW/RJsgQgLZAWMRKAtEBa5CkehvQa0gJp4U/HkdaGAKRFstNbdEyKBCAtYpyyC5YdZPgS0gJpMWT6Ls+ykBZIizbTdOThE4C0SHFmiz5JlgCkBdIiRgKQFkiLPMXDkF5DWiAt/Ok40toQgLRIdnqLjkmRAKRFjFN2GS6tCLoMaYG0GDJ9l2dZSAukRZtpOvLwCUBapDizRZ8kSwDSAmkRIwFIC6RFnuJhSK8hLZAW/nQcaW0IQFokO71Fx6RIANIixim7YNlBhi8hLZAWQ6bv8iwLaYG0aDNNRx4+AUiLFGe26JNkCUBaIC1iJABpgbTIUzwM6TWkBdLCn44jrQ0BSItkp7fomBQJQFrEOGWX4dKKoMuQFkiLIdN3eZaFtEBatJmmIw+fAKRFijNb9EmyBCAtkBYxEoC0QFrkKR6G9BrSAmnhT8eR1oYApEWy01t0TIoEIC1inLILlh1k+BLSAmkxZPouz7KQFkiLNtN05OETgLRIcWaLPkmWAKQF0iJGApAWSIs8xcOQXkNaIC386TjS2hCAtEh2eouOSZEApEWMU3YZLq0IugxpgbQYMn2XZ1lIC6RFm2k68vAJQFqkOLNFnyRLANICaREjAUgLpEWe4mFIryEtkBb+dBxpbQhAWiQ7vUXHpEgA0iLGKbtg2UGGLyEtkBZDpu/yLAtpgbRoM01HHj4BSIsUZ7bok2QJQFogLWIkAGmBtMhTPAzpNaQF0sKfjiOtDQFIi2Snt+iYFAlAWsQ4ZZfh0oqgy5AWSIsh03d5loW0QFq0maYjD58ApEWKM1v0SbIEIC2QFjESgLRAWuQpHob0GtICaeFPx5HWhgCkRbLTW3RMigQKSVqSIv/GLwhoTyD2nOu1owMfR++S4kGXf58mLD89YfnpLSfv4BcEtCewaOuVCctPH70Qk/87TIo55h8aM//QmF0h6/ELAtoTcDszb/6hMf43D5nkmFAoFOTNj0laR6MgYHYECklarh0diF8Q0JWAzKWFqgv+FRAYOnu7YAte8gnIXFqouuBfENCJAKTF7CavCFieBIwuLY+jd+EXBPQjkPY0Sp6H5dELMfhVS8B92zG7UuXnLnXffzpKbQZsjL7/TJ5Hjf/NQ/gFAf0IxD65aZKjBistJsGORs2XgNGlxXzRIHIQAAGxEZg3bx4hpHLlyk+fPhVbbIgHBEAABHQiAGnRCRcygwCkBe8BEAAB8yCQnJzs4OBATwGfPXu2eQSNKEEABEAgDwKQljzAYDMIqCcAaVHPBVtBAATERoAus1Bpsbe3//fff8UWIeIBARAAAe0JQFq0Z4WcIMBxHKQFbwMQAAEzIMBfZqHe8uuvv5pB3AgRBEAABPIgAGnJAww2g4B6ApAW9VywFQRAQFQE5s+fT12F/Wtvb//smUwvOhfV0CAYEAAB/QhAWvTjhlKyJQBpke3Qo+MgYDYEVJdZsNhiNoOHQEEABPIgAGnJAww2g4B6ApAW9VywFQRAQDwEPD092QILP1GlShXxBIlIQAAEQEAnApAWnXAhMwhAWvAeAAEQEDsBFxcXvqvw06dOnRJ79IgPBEAABNQRgLSoo4JtIJAnAUhLnmiwAwRAQAwEAgIC+JYiSHfu3FkMQSIGEAABENCVAKRFV2LIL3MCkBaZvwHQfRAQO4GuXbsKREXwMiAgQOx9QHwgAAIgoEIA0qKCBBtAQBMBSIsmOtgHAiBgWgKal1movXTt2tW0QaJ1EAABENCDAKRFD2goImcCkBY5jz76DgJiJ5DvMgv1lrNnz4q9J4gPBEAABP5LANLyXx54BQL5EIC05AMIu0EABExFQJtlFiot3bp1M1WQaBcEQAAE9CMAadGPG0rJlgCkRbZDj46DgNgJCG4aVr9+fbZl9OjRRYsW5V/cgsUWsQ8n4gMBEPgvAUjLf3ngFQjkQwDSkg8g7AYBEDAJAf4yS7169bZu3ZqTk8P/jo+Jifnuu++YumCxxSTDhEZBAAT0JsD/QNO7EhQEAfkQgLTIZ6zRUxAwJwJ0UaVOnTpbtmzJzs6moat+x9+5c2fkyJGWlpaEkHPnzplTDxErCICAvAmofqDJmwd6DwL5EIC05AMIu0EABAqfwIULFwghvXr1Sk9P57ee13f88ePHra2tx44dy8+MNAiAAAiImUBeH2hijhmxgYAJCUBaTAgfTYMACKgh8OLFi+HDh3t6erIFFpZJw3d8dHT0Tz/9lJaWxjIjAQIgAAJiJqDhA03MYSM2EDAVAUiLqcijXRAAAZ0J4DteZ2QoAAIgIFYC+EAT68ggLpESgLSIdGAQFgiAgCoBfMerMsEWEAABMyWADzQzHTiEbSoCkBZTkUe7IAACOhPAd7zOyFAABEBArATwgSbWkUFcIiUAaRHpwCAsEAABVQL4jldlgi0gAAJmSgAfaGY6cAjbVAQgLaYij3ZBAAR0JoDveJ2RoQAIgIBYCeADTawjg7hESgDSItKBQVggAAKqBPAdr8oEW0AABMyUAD7QzHTgELapCEBaTEUe7YIACOhMAN/xOiNDARAAAbESwAeaWEcGcYmUAKRFpAODsEAABFQJ4DtelQm2gAAImCkBfKCZ6cAhbFMRgLSYijzaBQEQ0JkAvuN1RoYCIAACYiWADzSxjgziEikBSItIBwZhgQAIqBLAd7wqE2wBARAwUwL4QDPTgUPYpiIAaTEVebQLAiCgMwF8x+uMDAVAAATESgAfaGIdGcQlUgKQFpEODMICARBQJYDveFUm2AICIGCmBPCBZqYDh7BNRQDSYiryaBcEQEBnAviO1xkZCoAACIiVAD7QxDoyiEukBCAtIh0YhAUCIKBKAN/xqkywBQRAwEwJ4APNTAcOYZuKAKTFVOTRLgiAgM4E8B2vMzIUAAEQECsBfKCJdWQQl0gJQFpEOjAICwRAQJUAvuNVmWALCICAmRLAB5qZDhzCNhUBSIupyKNdEAABnQngO15nZCgAAiAgVgL4QBPryCAukRKAtIh0YBAWCICAKgF8x6sywRYQAAEzJYAPNDMdOIRtKgKQFlORR7sgAAI6E8B3vM7IUAAEQECsBPCBJtaRQVwiJQBpEenAICwQAAFVAviOV2WCLSAAAmZKAB9oZjpwCNtUBCAtpiKPdkEABHQmgO94nZGhAAiAgFgJ4ANNrCODuERKANIi0oFBWCAAAqoE2Hf86wR+QAAEQMCsCXTu3Jm8+VH9rMMWEAABVQKQFlUm2AICICBSAq8nKPQ7Hv+CAAiAgGQIiPQDF2GBgMgIQFpENiAIBwRAIG8CZ86cMes/rCJ4EAABEFAlkPdnHvaAAAi8JwBpec8CKRAAARAAARAAARAAARAAARESgLSIcFAQEgiAAAiAAAiAAAiAAAiAwHsCkJb3LJACARAAARAAARAAARAAARAQIQFIiwgHBSGBAAiAAAiAAAiAAAiAAAi8JwBpec8CKRAAARAAARAAARAAARAAARESgLSIcFAQEgiAAAiAAAiAAAiAAAiAwHsCkJb3LJACARAAARAAARAAARAAARAQIQFIiwgHBSGBAAiAAAiAAAiAAAiAAAi8JwBpec8CKRAAARAAARAAARAAARAAARESgLSIcFAQEgiAAAiAAAiAAAiAAAiAwHsCkJb3LJACARAAARAAARAAARAAARAQIQFIiwgHBSGBAAiAAAiAAAiAAAiAAAi8JwBpec8CKRAAARAAARAAARAAARAAARESgLSIcFAQEgiAAAiAAAiAAAiAAAiAwHsCkJb3LJACARAAARAAARAAARAAARAQIQFIiwgHBSGBAAiAAAiAAAiAAAiAAAi8JwBpec8CKRAAARAAARAAARAAARAAARESgLSIcFAQEgiAAAiAAAiAAAiAAAiAwHsCkJb3LJACARAAARAAARAAARAAARAQIQFIiwgHBSGBAAiAAAiAAAiAAAiAAAi8JwBpec8CKRAAARAAARAAARAAARAAARESgLSIcFAQEgiAAAiAAAiAAAiAAAiAwHsCkJb3LJACARAAARAAARAAARAAARAQIQFIiwgHBSGBAAiAAAiAAAiAAAiAAAi8JwBpec8CKRAAARAAARAAARAAARAAARESgLSIcFAQEgiAAAiAAAiAAAiAAAiAwHsCkJb3LJACARAAARAAARAAARAAARAQIQFIiwgHBSGBAAiAAAiAAAiAAAiAAAi8JwBpec8CKRAAARAAARAAARAAARAAARESgLSIcFAQEgiAAAiAAAiAAAiAAAiAwHsCkJb3LJACARAAARAAAfMikJmZmZKSkvzu5+XLlyz+rKws/q60tDSlUsn2mnUiLi6OvPkZOXKkmDsSHh5O43R0dHzy5IkhoaakpNSrV8/wegyJAWVBwLQEIC2m5Y/WQQAEQAAEQEB/AkePHu3UqZPzu5+5c+eyus6fP9+9e/d3e5zHjx//7NkzttesE3KTFqVS+dNPPxFCIC1m/b5F8AYSgLQYCBDFQQAEQAAEQMBkBLZt2+bg4ED/nE8IGTFiBAvlxIkTlSpVYrt69Ojx+PFjttesE3KTlhUrVlhaWkJazPpNi+ANJwBpMZwhagABEAABEAAB0xCAtJiGu3atFsjpYcHBwVZWVgV1mpl2gSMXCIiRAKRFjKOCmEAABEAABEBAGwKQFm0omSqP4dISGhpau3ZttlyG08NMNZRoVwwEIC1iGAXEAAIgAAIgAAL6EIC06EOtsMoYIi2hoaFDhgyxs7MjhJQsWbJq1ao4Paywxg3tiJQApEWkA4OwQAAEQAAEQCBfAhKTFqVSGRERsW3btsWLFy9YsGDnzp33799XhaB6TcuDBw+2bt2qUCh+//33nTt3Pnr0SLVUTk7OoUOHFG9+YmNjVTNwHBcbG0szhISEsAzJycl0o4eHR05ODsdxGRkZAQEBy5YtW7BgwZ49e2JiYuh2VoQmNEtLaGgorVahUPj4+PDLzpkzp2jRonSBpX79+pcvX+7bty+khY8IaRkSgLTIcNDRZRAAARAAAYkQkIy05OTkeHp6NmjQgJ0KxRJ9+vSJjo7mDxhfWhITEwcNGkSvU2dFihYt+v333ycnJ/NLZWVljR07lubx9/fn72Jpf39/msHDw4NtZM21aNEiMzNz69atVapUYW3RRN26dQXiwXGcBmkJCwtzdHSkZbt16/b8+XPWHMdxXbp0IYSULVv2l19+SU1NfV0VpIXPB2l5EoC0yHPc0WsQAAEQAAE9CaSmpq5Zs2bMu58ff/wxIiIiJyfn/v37u3fvnj179tixY2fNmrVnz57ExET6B/isrKzo6OiNGzdOmzZtzJgxU6ZM8fLyunfvnuqf5zMyMh49enTp0qXNmzf/+uuv33///dixY2fMmLF58+bIyEj+Y1ho9AZKS2ZmZkJCwokTJ/78889JkyaNGTNm/PjxCxcu3L179+3bt1+9eqWBUUZGRnx8/LFjx/73v/9NnDiR8pg7d+7mzZvv3r2r2jUNVWVmZo4cOZJpQKlSpVq3bt25c2d7e3u60dHRMTw8nNXALKJTp05169aleapUqVK9enVWCSGkZ8+eGRkZrJTh0tK8efPFixfTJmxtbWvVqlWiRAnWorW1tZ+fH2tOg7RERUVVrlyZEGJnZ/fLL78I5IrjuB9//HHXrl2ZmZmsNkgLQ4GEbAlAWmQ79Og4CIAACICAPgSePHnSv39/NlUtWbLk/v37fXx8evXqVbZs2WLFihFCihYtWqFChQEDBoSGhqampm7fvr1du3YODg70nB9LS8syZcr07t07KCgoOzubBfH8+XN3d/dPPvmkatWqDg4OVlZWH3zwAa3NwcGhUaNGCxcuFJz4ZIi0PHnyZMOGDd26datUqZKdnV2RIkUIIR988IGNjU3ZsmWdnZ0XLFiQl37Ex8f/9ddfnTp1cnR0LF68OC1LCLGysnJwcJg3b156ejrrV76J3377jfJs2LDhhQsXmPC8evXqt99+o6soLVu2ZBLFpIWWGjly5N27d2krmZmZR44cYYsYhw8fZq0bLi3FihWztLSsXbv24cOHs7KyOI7Lzs7euXNn/fr1aSQdOnTgD6jalZbX+urk5ESNZd++fSw8zQlIi2Y+2CsHApAWOYwy+ggCEiHwJP7Z2WNR4UevGfJ778hDyTwXXCLjam7dEEhLiRIlfvrppwYNGlDBYDJDCClSpMiQIUNWrVpF/6zO30X3DhgwICEhgQGIiopq1aqVIBv/pb29/fz589PS0lgR/aRFqVQ+evRo5syZZcqU4dcvSFtbW/fv3//69ev8Q0apVN65c2fUqFE2NjaC/OzllClTmGCwUPNKxMfH00fN1KxZMzExUZBNqVROnjyZ1nzkyBG6ly8t06dP54dHM+zcuZMWGT9+PKvQcGkhhFStWvXhw4esTppISkpq2rQpIcTW1pZ/tYyqtMTExNSsWZMQYm9vv3//fkE9Gl5CWjTAwS6ZEIC0yGSg0U0QkAKBs/uC3Fy9DPx1n7791Qsd/gYsBXDoQ4ESEEiLhYWFg4NDkSJFSpcuXa5cOQsLCzZ3J4QUL168YsWKH3zwQalSpSpWrMgeuEHzlC9f/tChQyw6Ji2lSpVq06bNgAEDBg0a9Mknn5QvX57VWb16dR8fHzZN109aUlNT58yZw06+ogss9vb2lSpVKl26NFs2IYRYW1uPHj2av7wTHx8/bNgwQUesra0dHR0rVapUsmTJDz74QCdpcXd3p73buHEjQ8FPREdH161b98svvzx48CDdzqTF0dExKSmJn5mmnz59ShdbevTowfYWiLQsWbKEVchPzJo1i/bi0qVLbLtAWuLi4uhFO/b29vwlIJZfQwLSogEOdsmEAKRFJgONboKAFAj4775MjeXgaj/fbRd0+vXZcn73XydWT9u+Ztr2l6mQFim8H0zVB4G00L+vDx48ePfu3QcPHvzhhx/obWqZZlhaWnbq1GnLli3Hjh2bM2dOhQoV2C5ra+v58+ezjly7du2zzz4bNGjQjh07bt68+fLly+zs7ISEhL///pvvLbNnz2YXt+gnLX5+fvTv/TQSa2vrAQMG7Nixw8fH5+DBg1OmTClbtiwLslSpUtu2baNnPeXk5Li7u/Ntx8bGplevXu7u7seOHfPx8dm1a9ecOXPWr1+v/elhdDpuZ2cXFxfHUGhOMGnhOwm/SEZGRpMmTQghXbp0YdsLRFrOnz/PKuQnPDw8KDH+Jf58aYmKinJ2diaE2NjYHDhwgF9WmzSkRRtKyCNtApAWaY8vegcCkiJApcV9hvet4Hv3ohJ0/Y08G71+9m5Ii6TeE6bojEBaihQp8umnn96/f5+ufjx48KB3795sxk8IadiwYUBAAJ30p6SkTJo0iV73Qtc3hg4dyjqRmJgYGBj4+PFjdlEH3RUXF9e1a1dWZ//+/Z88eUJ36SEt2dnZs2bNYkslxYoVGzx48N27d9nqzdOnT/kZCCGDBg2iF4snJib26tWLnQhna2s7bty427dvsws5lErlq1evXrx4wWpjvVObyM7Obtu2LSGkdu3azMTU5uRvZNLSv39//naWzsrKatGiBSGkRYsW9OITjuMKRFoiIyNZK/yEZmmpUKECvSEYHcTTp0/zy2qThrRoQwl5pE0A0iLt8UXvQEBSBJi03Lwcq6ux3ItKuHP1wYY5eyAtknpPmKIzAmmxsbFZtmwZP5DZs2czLSlSpMjw4cP5t4HasmVL6dKlmYF8++23/LJKpTItLe3BgwdXrlw5cuTI2rVr582bN2zYMP49dl1cXNiVMHpIS1JSUs+ePVkAjo6Ox44d48fAcdylS5c+/PBDlqdx48b37t3jOO7MmTO1atVi21u2bHnr1i1BWZ1epqenN2rUiBDSvHlzZhf51sCkZeTIkWozG09a8loO0iwtjBhNfPrpp/y3hNouCDZCWgRA8FKGBCAtMhx0dBkEzJWAgdISExYPaTHXsRdT3AJpsbe3F9wD6n//+x87Q6xYsWIzZ87kh7979+5y5cqxWSxfWrKzs69cufLzzz+3a9eucuXKZcqUsbe3f30KGf8iE0KIgdISERFBVyFoDLVr16ZCwg8yPj7excWFBVm9enX6sMVNmzbxr78fOXIkfYoIv6xO6ZcvX9auXVuwJJJvDWYqLd27d2crZmvXrs23m/wMkBY+DaTlSQDSIs9xR69BwCwJQFrMctgkF7RAWkqWLMnuakX7unz5cr60/Pzzz3wGeUlLVlbWsWPH2rRpw56TaGlpWaJEiXLlylWsWNHa2pophIHSEhYWRm91RSusW7dufHw8P0KO4xISEtj0mhDi5OQUFBTEcZybmxsLgxAyefJk7c/pEjRBX7569Ypemy75lZbPP/88OTn59u3b9HqhcuXKsds0qyUj2AhpEQDBSxkSgLTIcNDRZRAwVwKQFnMdOWnFbSRpiYmJ6dKlC71c5IMPPnBycvr+++9Xrly5d+/eQ4cOdejQgdlC4UsLW2kRSMvEiRP591/WY5xzcnLat29PbyWs+oxFVuG+fftOnjzJVoQMX2lRPSOOtnXs2DHK2cPDg7XOmiOE6Hd6WLly5dgZfStXrqRNfPnll9qfEQdpYcOBhGwJQFpkO/ToOAiYHwFIi/mNmRQjNpK0bN++nT01pWTJkuvWrWOPOklMTPz0008LSlpiYmI6derEaqtWrRpdReGPlWA1plGjRlQYtmzZUrx4cVa2R48e/Lsh82vQPj1u3DhaIT0DTbVgSkoKvZCma9eu9Pp+ZhF6X9Oya9cu1YY4jmOPuSxYaXF0dGT3Tnj16hVT0G3btqkNQ3UjpEWVCbbIjQCkRW4jjv6CgBkTgLSY8eBJKHQjScvSpUuZD1SuXPnGjRuMWXBwcOPGjZkqGLjS8vLlyyFDhrDrZGxtbQUPsE9PT//zzz9tbW1Zi99++y1dBhFcoF+uXLl169ZlZGSwUPVInDx5kjY0btw4tcWPHDlCM/z55580g37SolQqZ8+eTauaMWOGalvsGZGEEONJC8dxQUFBdKwrVaoUHBysGonqFkiLKhNskRsBSIvcRhz9BQEzJgBpMePBk1DoRpKWJUuWME9wcHDYsmXLs2fPUlJSbt68OXbs2KJFizKFMFBaOI7bunUr/0ksTk5Of/3117Vr12JjY+/cubNx48b69euz5kqUKLF+/Xp6IlNqaurIkSPZVTcffPBB7dq1lyxZEhoaGhMTExsbe+3atT179hw/flz7u2NlZGTQlR9ra+utW7cK3in37t2rW7cuIaR8+fLsDCv9pIXjuJCQkJIlS9LaIiIi+G2dP3+ePtqFdtyo0sJx3LRp02hDjo6OeS0x8cODtPBpIC1PApAWeY47eg0CZkkA0mKWwya5oI0kLR4eHnQ+TZ/fUr169VGjRk2aNKlt27b8G3YZfvcwjuMSExMHDhzIFlsIIcWLF69bt26bNm0aN25Mn2pPp9RFixb9+uuvHzx4wIbR19eXf9fjDz74wMbGpmrVqi1atGjTpk2tWrXs7e2nT5/Ozm1jBTUkwsPDqURZWlr269dvzZo1vm9+5s2bRx9sb2lpuXnzZlaD3tKiVCpHjBhBu1a6dOmffvpp06ZN//zzz4ABA6gW9unTh95d2tjS8vz5c3oHAkJI+/bt872fAaSFjT4SsiUAaZHt0KPjIGB+BCAt5jdmUozYSNISERHRrFkzOp/m/1ukSJFGjRrVqVOHbTR8pSUnJ+fixYtdunThL+Cw+lmiWLFi3bt3F5y/9OLFixUrVlSvXp3vPKwITUyZMkUnaeE4LjQ0lL+8w6/Q3t5+48aN/LeS3tJChY1e+s9vghBSpkyZRYsWPXr0iN6C2djSwnHckSNH2JrV4sWL+R1UTUNaVJlgi9wIQFrkNuLoLwiYMQFIixkPnoRCN5K0pKene3p6Vq9enT1vns6qnZ2dN27cWIAX4tOhyMnJCQsLGz16dMWKFQUt0nYrVKgwbty4sLAw9rR7NoZpaWm7d+9u3759Xs4za9as9PR0ll/LxLNnz/iPjadhlCpVyt/fX1CDIdLy+tSstLS0Tz75hC8tZcuWDQwM5DiOPTemEKQlKyurVatWNIxq1ao9e/ZM0E3+S0gLgswCEQAAIABJREFUnwbS8iQAaZHnuKPXIGCWBCAtZjlskgv62bNnU6dOdX7307Fjx7Nnz/J7uWXLlnbt2tH9LVu2XLlyJX+vr6+vi4vLu9LOs2bNYnvT0tKOHz8+efLkTp06OTs7d+vW7eeff75w4UJiYuLEiRNZkTFjxrBbUR09epRmpnvnzp3Lajt//nz37t1ZqfHjxwumxUql8t9//z169Ojs2bP79+/fokULZ2fn1q1b9+vXT6FQnDhx4t9//2W1CRJZWVnXr19fv379mDFjOnfu3LRpU2dn548//njYsGFLliyJiIjIyckRFNHmZXZ2dnBw8ObNmxcvXrxw4cIDBw48ffpUtWBycrLizc+BAwdU93Icl5OT8/oR9QqFwsPDQ20k2dnZFy5cWL58+YIFC/bs2cNaycrKWrFihUKh4F9nwppTKBR53Zc5JCSEhhQbG8tCevToEd24bNkytSeA+fv70wwKhSI6OpoVVE14e3srFIq86lHNjy0gID0CkBbpjSl6BAKSJQBpkezQmlXHlEplWlpa8ruflJQUwdM2MjIyUlJS3u1PFqw5ZGZm8vcK5rI5OTnp6ek0Q2pqakZGhvLND7/F/2fvTOCiqt7/f14FP1AR953cU9HS3L9mmihmXzVTyyXLXCotzbRAcktRyC0kRcU1UzEQkUXJjXABcQHEBXEDAXFBVGTfh5n7B59vz/94585wZ1iE4ZkXLzz33Odsn3MHn/c9W1ZWFuz8KwiCltwUCgVfUHZ2Nqbi9VapVPn5+Zh/RkZGdnZ2QUGBpDGfUBCEwsLC3NzczMxMaGxmZmZOTo5CoZCTVpQVXZICpAApoF0Bghbt+tBdUoAUqEQKELRUos6gqpACpAApQAqQAhWoAEFLBYpNRZECpEDpFCBoKZ1+lJoUIAVIAVKAFKiqChC0VNWeo3qTAtVQAYKWatjp1GRSgBQgBUgBUkAQBIIWegxIAVKgyihA0FJluooqSgqQAqQAKUAKlKkCBC1lKidlRgqQAuWpAEFLeapLeZMCpAApQAqQApVXAYKWyts3VDNSgBQQKUDQIhKELkkBUoAUIAVIgWqiAEFLNeloaiYpYAgKELQYQi9SG0gBUoAUIAVIAd0VIGjRXTNKQQqQAq9IAYKWVyQ8FUsKkAKkAClACrxiBQhaXnEHUPGkACkgXwGCFvlakSUpQAqQAqQAKWBIChC0GFJvUltIAQNXgKDFwDuYmkcKkAKkAClACmhQgKBFgzAUTQqQApVPAYIWnfrk/PnzoaGhcpKoVKq9e/empKTIMdZuc+TIkaNHj2ZnZ2s3o7ukQCVRIC8vr5LUhKoRERHh5uYWEhIiRwqFQuHi4mJvb+/m5qZQKOQkAZvg4GB7e/vdu3fLTIIFBQcHy0xCZuWkAEFLOQlL2ZICpEDZK0DQIlPT58+fT5kypWbNmg0bNpTDLUeOHDEyMmratOlff/0lswhJs/z8/IEDBzLGOnbsmJWVJWlDkaRAJVEgIyNj5syZ7du3j4yMrCRVqubVcHR0ZIxNnz5djg45OTnt27dnjA0bNiwnJ0dOErCBUqysrGQmwYIcHR1lJiGzclKAoKWchKVsSQFSoOwVIGiRqalKpTp16pSFhQVjrEWLFlFRUVoSpqSkdOzYkTFmamoaFBSkxbLEW2fPnjUzM2OMzZ8/v0RjMiAFHj9+bF0+n7Vr15Yor4eHR506dRhjTZs2JW4pUa4KMCBoqQCRq3QRBC1Vuvuo8qRA9VKAoEWn/o6MjGzYsCFjrEOHDklJSZJpVSrVDz/8wF58nJ2dJW1kRubk5IwfP54xZmJicu3aNZmpyKxyKpCcnLx//377F58dO3aEhYWVRz3v378Pz16Z/5b5tj40NLRp06bavyPl0XDKU1IBghZJWSgSFSBoQSkoQAqQApVdAYIWXXto7969RkZGjLGRI0cWFBSoJ/f39weD7777TqlUqhvIj7lw4QK4ntbW1qXMSn6h2i1zcnKGDRsGtSrlIJL2gkp/d/r06VBPmd62lhJ9fHzkz7FRz0elUrm4uNSsWZMHieHDh6tbimKSk5MBAMaOHSu6pekSoWXixIkASKX8XZSPrjKePXvW3NycMfbpp5/m5uZqqmrp45VK5Y4dOy5evFj6rCpzDqVppiZo2b17t/WLT0REBLYdZ23R9DDUxOADBC0G38XUQFLAcBQgaNG1L1UqlZ2d3cCBA6Ojo9XTPnjwoEWLFoyxDz74QM7S+ZiYGHAdJH937twZ/MV27dpJGkhGypnGo15zmTHVEFoSExNbtWpVGmgJCQkxMTHhiYUxZmNjU6LmpYEWX19fyP/Bgwf2Lz579uwpsUR1A19fX12hRRCE3bt3Q6qJEydmZGSoZ1v6mJs3b7733nuMsUoOz6VpaWFhob+/f2maqQlaIF6kHkFLaTqriqYlaKmiHUfVJgWqowIELZp6fe/eve00fFq++EjebNSoEfhqzZo1kzQYMGAAv8I1MjJS5MuW/rL0AwuaNBEEobpBS0pKyoABA6BT9BZ21qxZkMOsWbMePnyYk5OTlpYmZ2e5MoGWffv2YelaelbTLf2gRalUfvnll1Du8uXLNWVemvjt27dD/gYMLaX/upUVtKSlpe3fv//YsWOSXQalSC7ET0tLi4+Pf/DgAZ8Q6YgW4vOyvJIwQcsrkZ0KJQVIAX0UIGjRpBq6ROAYldXv9u3bE7Ro0rxs40s/PUylUs2ePRu7Xm9oGTt2LCxMun//vk5tLBNosbGxgSZs2bJFp9LBWD9oEQTh2rVrUG6bNm3KY7AFv6EELVq6tfTQkpubu2bNmho1ajDG1q1bJ1mWFmiBburVqxe/hzJBi6SMrySSoOWVyE6FkgKkgD4KELRoUg1dIvRZyySgCVr0doj5+oNzXCZZ8dny4dK/+uVzK9dwKaHlzp07o0ePNjY2xn7XW1hra2vGWJs2bTIzM3Vqsh7Qkpqaavfic/36dShr+PDh0ITAwECdSgfj69evQ4ZeXl46Jc/OzoY99IoW5bu7u+uUVo4xfkMJWrTIpTe0PH78eP/+/V9++WW9evXwK7B9+3bJsghaJGWpEpEELVWim6iSpAApUKwAQYum50ChUOSofR4+fNikSRPG2ObNm9Vu/v+IKVOmMMZ69OiRkZHx/2P/DfEl4vQwvR1iPjeCFl4NvaGloKBg06ZN9evXB1/N0tISAnr3kZWVFWNMxKt8VTWF9YAWUVZZWVkdOnRgjNWqVcvb2ztE9094eHhhYaEoWzmXd+7cwZU8lpaWugJbiUUQtEhKVLTo7t+/NMX/Fq1mYoxNmTIFI6E3ATNEa1rS09PbtGmDiIKB2rVrA70jtKSlpY0dOxbX1MHpLg0aNMAYa2trOGuSRloku6nyRBK0VJ6+oJqQAqRACQoQtJQg0Mu30YnE/7xfvv+/K3CXRTMiJC0rFbTk5uYGBgY6OTnZ29s7OTkFBASoH2epPtKiVCovX74MB2lv3bo1MDBQ8kD0J0+evFgNbu/i4sJPFOFlOXToENikp6djfEREBETi4dnPnz/39vZ2cHBwcnIKDg6W3MNNEAQt0KJUKnfu3AnZOjo6PnnyBItLTEzs0aMHuGsmJibffvvtjRs39IMWbDI4gvXr11+8eDEU6unpiSVCIC0tzdfXt8iVtLe39/T0fP78uSAI+LzJ3z1MlG10dDTsZYcOqK6BXr168RMaRflruXR1deXLcnV11WIs/xYepv7RRx9B/tOmTVN/bDDDR48e+fr6rl271t7e3tnZef/+/VFRUSqVCg0wgP0FvZOdne3p6eng4ODj48M/kGCvUqmuX79e5JHDSfC4ZiM9PR0qc+vWLcxZFHjw4MGBAwccHBxWr17t7+9///599b0BoZmLFy8GHmCMaW8mFoHbx/Hi82EYmOKh5fnz53v37p04cSLs+YbG7dq1mzdv3tmzZzMyMqAa+Nzik4nG6gFYr6IdWmbMmCHJ0fD8Y6MoUH4KELSUn7aUMylACpSxAgQtOgmK/1UbGLSkpqba2trWrVtX5HmYm5svWbKE3wZNBC3BwcHdunUTpWrSpMmuXbtEfiHimZYBB8QMfu0HvlB3dHTMzMycN2+eqakpX2KTJk1+/PHHhw8firoScxONkKhUql9++QVyqFGjxtatW/mEUE9jY+MffvghNja2CH7QCxTlw6eSDGOT+dpCmIeQjIyMH3/8UbQhspmZmYODw+PHj3Xd8lhUE1yRol4HmTH6QYtSqRwyZAgU0bZtW8ZYWQ224HII9frzj41KpfLz8+vVq5e6GVTGx8dHpBX219ixY2/cuNGuXTtMa2FhwZNtcHCwKGcjI6M+ffp4e3vj04K7t/GlREZGDh06FLPFQIcOHby8vPivjMxm8plDGCuAmYsCImjp0KGDOta+/fbbly5dwvpgZbBROTk58HYDCG3w4MEwARIu4Te8ZdAOLaK64aUBT/lT77JXG0PQ8mr1p9JJAVJABwUIWnQQi3vzXa7Qgu+SeQ9AMuzv78+/o9Vvelh8fDzMIGKMGRkZvfPOO9bW1r169cLlHCNGjEBu4aHl66+/Blfb2Ni4bdu2uHMaeB4bN27ktUWPUG9oWbhw4QcffACZN2rUqE2bNryzZWlpmZqaypcoCS0qlcrBwQEy6d+//82bN/kkgiDcuHHj66+/jomJwXj0AnWFloSEhKkvPs2bN2eMmZubT548GWI2bNgA+T979qx///5QH2Nj4759+1pbW+NW12PHjoVZajzkYMXkBH766SfGWMuWLXEoQE6q0tvExsaamZkxxvr27XvmzBngTJgvVMrM8/PzbW1tp06dirr997//BVWTk5Mhc6VSuXTpUlCVMda6dWtra2srKyuY2wnxRkZG+/fv5yuDj2j//v3hG9GxY8dBgwbVrl37m2++QUsPDw8kzKZNmw4ZMuStt97CPG1tbSGM/j0m9PT0BE3gYRg0aNC7775bu3ZtrKeNjQ1+naGZkydPtrCwAAP1ZmLOWgIwooKPbkpKyqZNm0aMGCEifwsLi7lz5/7999+tW7dmjInOaUFo0WP3MIIWLb1TGW4RtFSGXqA6kAKkgCwFCFpkyfSvUcWMtKCLgN6MpsDMmTP5qVZ6QEtOTg46f9OmTXv8+PG/bRUePHgwYsQIKHrZsmUQz0MLY6x+/fobNmyA5QoqlerJkyeLFy8GlrCwsOB39UWPUG9ogf2LRo8ejRNvUlNTcWssxtjvv/+OlZecHqZSqZydnaF6/fv3f/r0KW+vKaw3tGCGmta0KJVKWP7EGBs3blxiYiImuXz5cs+ePbHf9YMWpVI5cOBAxtiQIUP0W5eC9dE1sG7dOtgwzdvbW6VSjRo1ijHWvXv3MjxrEofgRG/lFQrF8uXLoZffeeedqKgorLxKpYqNjZ03bx4I27VrV74++IgyxkxNTffs2QNDDbm5ufi9uH79ep06deDJ37t3L6oaFRU1ffp0ngR4aCksLNy+fTtMvmratKmnpyd+bXNzc0+cODFo0CCo0vr167G2ZbLDuAhaoqKi8KGCwIwZM65duwYtxb88ImjJyMiAo4pEUmNVoRTJLY+1Q4u9vX2O1AeFxSIoUE4KELSUk7CULSlACpS9AgQtOmlawdDSu3dva6nP4MGDa9WqxRgrPbTgIR5ff/01vuVFTVJTU+Gtf9GLWBjH4KGlVq1auM4Ek6hUqvHjx4M/xLs46BHqDS2MsS+++ELkzSiVyk8++QSKGzJkCE5okYSWzZs3gy87YMAAmcRSmulhqIkmaAkLC4Ol6sOHD1dfmZOUlITrGfSDltTUVDjq1NbWFitTAYGcnJy3336bMfb+++/n5+cLgnDmzBnoowMHDpRVBTRBS2hoKJRlZmaGW6jxhRYWFuLUNf6IWHxEYQEJnwTChYWF8GybmJj4+/urG+CRmowxHlpOnDgBVapXr97Vq1fVE2ZlZcFxQA0bNnz06BEa8F83/tuEBiUGRNCSmprarVu3IlAZM2YMVInPVhO04N+98+fPS5aoN7TQOS2SelZkJEFLRapNZZECpECpFCBo0Uk+/M+7XKeHoevA+xN8PdGglNCCCw/q1q3Lrwfgy9q8eXOPHj2++OILMOC9qIkTJ/KWGC5aTw/+EH8EO3qEekOLiYnJjRs3sBQMeHh4QHFdunTh9wAQTQ/7448/YMLbgAEDdFrmW34jLTB3izF28eJFbA4fQKTUD1ouX74Myuzfv1/qdbYOcepAy9dTFMYHYN++fXBLoVDAmE+PHj34wQ1RQp0uNUFLQEDAhAkTevfu/dlnn2nKcPny5aBMZGQk2uAjyhg7cuQIxmMgKCgIRkvGjBnD4zEaKBQKAFQRtCAh2NjYoLEocPToUagSf5wO/3XT9NdAlI/oUgQtgiBAzSFetHsY/mERjbQ8fvwYJrbxcvEFEbTwalStMEFL1eovqi0pUK0VIGjRqfsRWry9vbUkBHdZ793D0HXQ5KagQSmhJSMjA6aw9+vXTzSCoal1vBclWrWCSS5cuADuF4926BHqDS2tW7eWPKMwKCgIihPlzENLXFwcbDNQt25d/uU61llLoJygRaVSwcv1N954Iy0tTbICsbGx0DT9oKX0q/ChdMaYJm9VstowTbF27dr87ghF27VBbpqeasmstERqghYtSfAWpj179ixG4iPKGOMnlYFBYWHhjz/+CE3gH2xMDoHffvsNbHCkJTs7G0fMJFkIEj548ACG3XjW4r9u+ummDi1QnE7Qgl8BTY8BQYvoMahClwQtVaizqKqkQHVXgKBF/QlQKBQjRoxoJ/XBxd/NmjWTuv+/OHgda2pqqsnm77//hnLRT8KVsjCRHbwcTW5KWUFLfHw8+EmTJk1S10Eyhvei0C0TWWKj+EUmGClCCz4tYgY/7IP+pSYILBFaRo8ejWsGrK2tZeIZVgw9Nr6P8K6cgOT0sOzs7DfffJMx1q9fP03jGFlZWfAkvHJoiY+Pl9NSQSheCtWwYcOi4aMPP/yQbxfGf/HFF5LDFDLzRzN8MDR9TdCSDygUitu3b0+aNEmdoPARNTMzw0UsmDY9PR0gs2iNEI86aAABf39/EbQ8ePAAF+7/+eefkjv8hoSEBAQENGvWjDE2cOBA1If/uunUTKxVmUALroRJSEjAnPkAQQuvRtUKE7RUrf6i2pIC1VoBghb17lcoFKL9TMELKcPf6O6jn8Q7xMgkmtwUNCjlSAvO/ndwcFDXQTJGjheFjeInrGOk3tAiucy3+IDUkkZaRB138OBByaZpiiwnaElKSoIl3R9//LGmopVKJWyToB+0hIWFTS3FZ/LkyYDfojETTbWF+B9++AEE/+eff0SWCxcuhNX5mh5skb32SznQ8uzZsxMnTjg5Odna2o4bNw4okX8e+JrgI9q0aVPciAzrgCMhjDF+czk0gMC1a9cgf/yOh4WF8SWWGO7WrRssBCqPhfhYW51GWmA2XfPmzTXNqyRoQWGrXICgpcp1GVWYFKi+ChC0qPe9UqncsGGDndQHhwImTZokdf9/cV27dmWMNWvWzNbWVtIM1wejn/RKoAXdfZ4u1AXhY6ootJiamv70008ACa1atVJ/j863URQuJ2jBbLUDCYzSaLcRVbisLpGNu3Xrpu7ES5Zy+fJlWPwwdOhQ3CALLZOSkmBjgL59++p3YCVmJQiCdmg5f/48HB6iDgnm5ua4x7d8aLl+/TpmxY8E8lUSBAG/0Qgt+C3D5NoDHTt2xGU/cr5uogqILvUeaTl06FCbNm3effddPGv1448/xiEgyVIkXytAN4mGSfHRkv+XR1QiXZaVAgQtZaUk5UMKkALlrgBBi04So/9x5coVLQmrypqW8+fPg/9k2CMtpqamcELIr7/+Cu2dNm2aJvdLvVuRLniwVDfTEiM5PQxHWj766CMtad9///2iJSWvBFpSU1PhkBArKyvY1VpLPQVByM3NhdX2pqam586dkzR2cXGBLli5cqWkgfxITdCSmpo6Y8YMfvdhS0vLTz755Oeff/bw8Lh9+3Z+fr7kOAPyhuRIS0JCAsLGnTt3NNVTfaQFxzPr1KmTlJSkKaFk/CuElps3b8LcUWh1gwYNLl++LFlJQRBopEWTMpU/nqCl8vcR1ZAUIAX+pwBBi06PAmxpKjnlnc+nrKBl8+bNkjPgT548Cd5kKaeHxcTEgEeiZU1LWlra7t27w8LCYGaIHC8KnT/+NSpGall3jisN+DfZ6JtKvseVMz3siy++gN7Jzs6Gw0+MjIwkt6zlOxHD5QQtOTk5nTp1guMXNS2zycvL69Kly6uClqdPn8KBoWPHjsV3/yiLegCZ8JtvvtHEhNgF5ubmu3fv5he9qGeoPQYfDH60RBCE+fPnw1NtZmb2+++/S25yoAe0pKWl9evXD3I+deqUprodO3YMbHCk5e7du7DRNmMsIiJCU0LJeDlfN8mEGKn3SEtKSsqvv/4KA8Vr1qy5f/9+QUFBeno65swHRNCSn59/+PDhuXPn5uTk0EgLL1QlDBO0VMJOoSqRAqSAtAIELdK6aIidOnUqY6xr16446VzSsKygBbwfLb9LCS2ZmZmwzvudd97hNwvmG3Xy5EmowI4dO2ROskc+kYSWRo0aSZ6Rkpub27t3byirbKGFHyEJDg6Gd/Bt27bVNEGfb365ntMyevRoxpiZmZmmZe4xMTGwhlvOSEvRUZKnTp1yK4tPSEgI3/DvvvtOfa6XSKXg4GA4O6jE2XfYBYwxLdtwifJXv9yxYwc8LTy0ZGdnd+zYEeKXLFmingpiJkyYoJ4Wn1vJkRalUung4ACptAwTITIhtGRnZ1taWkLCNWvWaKpSRkbGzp07T548yT/8OTk5//3vf9WrqikT9Xh1aAFClsQ2nLUl2vIYsn38+HGjRo0mTJjg7u4ueh4gtx49eqxbt27MmDH16tVjjLVo0SIlJYWgRb1TKlUMQUul6g6qDClACmhTgKBFmzov34uLi2vZsiVjbOrUqS/fEV9VFWgRBGHGjBngEgUEBIib8eJ62rRpjLFatWrdvn27NNASFxeHs03Cw8NFZSmVyu3bt6MB77fhC3W9R1p4aFGpVLNmzYIm//DDD3Le9JfTSIsgCD4+PlCTRYsWiQSBS1i5LnOkRaFQzJw5EzIs5W9QDFdxrFixQrJ6GBkXFweLVUxMTI4ePYrxkgGVSoVn0pubm2vZiUsyOUbihs48tOCm5EUvF3x8fNCYDzx8+BBGkESnlGiHlqIvS2JiIiyG6dixo+QATnJy8htvvAHiI7QIgjBnzhyIfOONNzStp3J1dQWbuXPnYm35PuWbiQYlBhBacnJyPD09P/30UxhW1QNacA+x2bNn89CSlJT02WefiR45Y2PjDz/8kKClxA565QYELa+8C6gCpAApIFcBghaZSqWnp+Mrz+PHj2tPVVbQoqubAudj8D669noKghAVFQU7RLVt21Z9TyRvb28Ylxg/fjxM+JEzXwWdP36kJTc3Fz2b4cOHZ2dnY92USuXq1auRWBhj5QctgiA8ffoUTqcxMTFZuXKl+lH0WDEIlB+0ZGdnv/POO4wxU1PT/fv3i8pF8V8VtOCSJzc3N1Hd+MsrV67gSMKiRYs0TQzjk6SlpXXr1g3c3BYtWqgfisIbawojtPz5559ok5ub27lzZ8h50qRJIihVqVTXrl2DZUJgw3/F8LmVHGmBIhAtpk6dKpoyl5iYCF9AyJmHlujo6DZt2kC8tbW1+q4G586dg32izc3Nb926hc3hoYVvJhqUGAA4adq0KXzNGWODBw/GVSgibNM+0nL8+HFowl9//QUDcU5OTgMHDsTJb4yxunXrjhkzxsXFBVfv0EhLiX30ag0IWl6t/lQ6KUAK6KAAQYtMsXBmyNtvv13ixkdVCFoEQXB2dgZfpH79+nZ2dseOHQsJCfH19Z06dSocId+iRQucv6Q3tAiCcPv2bXwP3a1bt9WrV7u5uf3666+wwbSJiclXX30FNSlXaBEEwdvbGwqSM0Op/KBFEISwsLD69eszxoyMjCZOnOjj4yMSH+opZ3qYzCdZvtmRI0egdE2DISqVauPGjUibEyZMKJEAsfTIyEhY0gPziDSdWoj26gFc4N6gQYNZs2bZ2dnBtMMlS5Zg537yySfHjx+Pj4+Pioras2ePtbU13GrVqhUE+NEYOdCSm5s7bNgwSNujRw8XF5fg4GBfX99p06bVqFGDMQa/GWM8tAiCEB8fj7MfmzZtunTp0oCAgKCgoPXr1w8fPhwPcnF2dha1dOPGjVCcqJkiM9Hl3bt3V65cOWLECDhTlc/h4sWLmqBFoVAU7ZRgb2/v5ubGj6VA5rCJQpMmTe7cuRMeHg55wm9TU9MxY8b4+vqqzzIlaBF1TWW7JGipbD1C9SEFSAGNChC0aJSGu5GUlITzSZYtW8bdkQ6WElpUKtXz58+Tk5O1r5xRL1uPkRZBEJRKJSyu4L0QPuzn54dllQZaBEFYtWoVnzOGTUxMdu7cefr0aYgpb2jJy8vDN/2Wlpb8sA+2FAPlCi2CIKxfvx51EAUGDhwIQzGvBFr27t3LGGvSpAn/7h9lgS0QkFjq1q177949/m6J4Zs3b8J+EowxS0tLyQlXWjLBfQJQtAsXLgiC8OzZs759+2KkeqB79+44iLRx40YsQg60CIJw8+ZNngT4/OvWrevk5AQxImjRnhCSjBw5UjQ0BGOh+McHzKCZWG1R4Pnz57D0jq8YY2zKlCm8wpLTw0RZiS5hXmW3bt0yMjIyMzPbtm0LRfTp00d9kBbTErSgFJUzQNBSOfuFakUKkAISChC0SIjychQ/Q6NevXrR0dEv35e4KiW0SOQoL0o/aBEEITU1dd68eXDCBu/rWFhY7Nmzh5/wU0poycvLW7JkiaigVq1aHTx4UKVS4Y7S5Q0tgiDs3LkTW7pr1y4tApc3tCgUinXr1okcU8bY8OHDY2JiYBjqlUAL+LUtW7bkuwOFCg0NReSMHslFAAAgAElEQVQwNjbWb/LSnj17cHLRoEGDYmNjMX85gZUrV8JgIHQlcsLTp0/nzZvH3wKDfv36bd68OSUl5dmzZzAdC3eW449Y0TI9DGoVGBj41ltv4fPDGDM2Nh4wYEBAQICnpyfEHzlyRL0JFy9elDw9xszMbN68eSkpKepJVCqVpmaqGwuC4OXlxVesefPmtra2165dExkjtKBoIgPRpVKphJ27hw8fDrc+e/E5fvy4+pgMn5aghVejEoYJWiphp1CVSAFSQFoBghZpXf6NLSgo+P7779EJ2LJly793tP37qqBlxIgRRQtCdFrTwjcjIyPj+PHjRa+K7e3tnZ2dQ0JC1Gf7KBQKNzc3+xcfTW/Wnzx5AgbBwcF8/hhOT08/fPiwo6Ojk5NTcHAwlnLv3j1IyO+sGhERAZFw1gpmggFM5eLiwvtPhw4dgoSHDh1CYwzk5+cXTbwBg82bN/MJ0QYC6enpWvIRGUteFu2UbW9vL6qeyDIvLy8wMHDt2rX29vY7duyAk0BgfwJ7e3tPT0+RfXlfJiUlwav0AQMGYAdBoUqlcuPGjUiedevW3bZtm371UalUa9euRW4xNzdfvnx5amqq/Nzu3r27ZcsW6KDQ0FA+4fPnz319fVevXu3g4ODh4ZGQkMDf/fPPP+E5x6Up+Nw6OTmVOAVUqVRevnx58+bN9vb2+/btw+X14KOL1orw5cKCfi8vryJsgLShoaFZWVkiG9GllmaKLFNSUlq0aNGxY0dHR8dLly6J+g6N9+zZA3/WevfunZiYiPGSgYKCAmdnZ+gm3ACNf5fBpwoODp7Kffr3788Ya9iw4ZdffonRkydPhjU2PXv2xEhRQH3lD18KhctKAYKWslKS8iEFSIFyV4CgRYvEycnJY8aMgf/aGzZs6OnpqT55QzJ5BUDLgwcPYmNjExISsrKycl58Tp482aBBA8bYTz/9JFkriiQFeAWUSqWjo+PPP/+8bNmyNWvW7N27F3dLXrVqFZ4Zv379elGqb775BjF+5MiRuN6JN5MfVqlUGzZswFGRxo0b3717V37yymaJK8Q0zamrgArHxMSU+Jfq3r17uDeAqalpr169rDV83n33XVzE36hRIxH7qTdn3759+HiUJiA5vqdeHMWUUgGCllIKSMlJAVKg4hQgaNGkdVRUFE7abty48fnz5zVZqsdXALTgTj4it8DIyOjMmTPqVaIYUkBdgXHjxomeH9HlwIED1QcBIiMjYW7V3Llz1Rdeq5ciJ+bIkSONGjUyNTWVf+innGzL1ub8+fOdO3ceN26c5NgdlDVq1CjGmIWFhU7jRWVbT5m5xcfH46YCon6XvGzWrNnp06dLzFw00iIaP5F/SSMtJUpdJgYELWUiI2VCCpACFaEAQYsmlQsKCkaOHMkY69Spk65bslYAtPDHbKOHYWZmtnLlyhJfsmpqMsVXNwV++eUXfHhEAQsLiyVLlmRkZEhq4uvrq75Hs6Sl/MiEhAQvLy/59hVv+fDhQxid6N+/v+S0q/DwcDhhc8yYMRVfPT1KVCqV58+fh0mJMMVO8reDg4O/vz/Oo9OjIEpSaRUgaKm0XUMVIwVIAbECBC1iRbjrpKSkRYsW8esruJvagl5eXnZ2dhs2bCiRH5KTk2FODpxBri3Tl++pVKrHjx/Hc5+EhARJR+rldHRFCogVyMvLgxmG/G+xEV2/UACnxs2ZM4dfN//06dNNmzbBzgSmpqbaN/giLUmByqMAQUvl6QuqCSlACpSgAEFLCQLRbVKAFCAF/lUgKSkJT9I0NjaGpSBvv/027iVgamq6devWf83pX1KgsitA0FLZe4jqRwqQAqgAQQtKQQFSgBQgBUpU4OnTp99++62pqaloQh1jbMCAAefOnSsxBzIgBSqPAgQtlacvqCakAClQggIELSUIRLdJAVKAFFBTID09PSAgoGivMHt7+82bN4eEhOgxj1QtV4ogBSpaAYKWilacyiMFSAG9FTjjHe5q477tZ887YfcSbjzW9Sf+2qNdS723zvfIyczTuw6UkBQgBUgBUoAUIAUqXgGClorXnEokBaqjAoUKZXpyZlpyht4/6c8z/9l3rgygxdb96cOUtGf61yTtWUZ2Rk517EVqMylACpACpAAp8IoUIGh5RcJTsaRANVMgNyvPfbW/q617qX5s3F1t3LcvPHBb75GWX7xdbUpXB1v3rXb7r566Vc06kJpLCpACpAApQAq8SgUIWl6l+lQ2KVCtFIi7/mCLrQcww/YFntt+3q/PzwJPr9+Px0Tc13VuWMKNx/euJ7o5HtKnUKiq3f7iytu4H9xwolBRWK36jhpLCpACpAApQAq8WgUIWl6t/lQ6KVC9FAg7erV4ftcCz/DjUXGRD+9efqDzz5UH96IS9SAWSBIf+UjnEi8/iL3yIC7y0d/bzrjauP9p75ObmVt9ui03N9fDw8PNze3hw4c6tToqKsrNzc3Pz6/E41+0ZxsWFgbnUm/YsEG7Jd0tVwUOHjwYHh5eWFgCru/bt+/8+fNldfZ8ubaoEmYeGxsbERFR5hW7dOnSK+mRrKwsOJzp3r17CoVC13YVFhaqVCqdUl28eNHOzm7NmjV0DJROulUVY4KWqtJTVE9SwBAUUKlUR3YUu/5b53uEHbuuN3tUcMK4yEfHd4dssXXfZrc/MfaJIfSE7DYkJyc3bdqUMRYUFCQ7UbHh9u3bGWO9evXSw1nhC/L19YXdWseOHcvHU7giFcjIyGjXrh1j7MMPP9RCocnJyY0bN2aMTZ48uSKrZxhlRUZGWlhY1K9f/9ixY2XYosTExJYtWw4ePDgxMbEMsy0xq4KCgpEjR8KXd968ebriR0FBwZQpU7799tvs7OwSy0ID+LPTvn37nBxadoiqGE6AoMVw+pJaQgpUCQXycws81h4pXpqywDMqJKaC8UO/4g5vPQUTw25evFslRC7DShK0lKGYVTerY8eOgffp4+OjpRX+/v5gVrZut5YSDelWTExM69atGWNmZmYHDx7U1DSdxh8KCgo++eQTxpi5ufmlS5ciIiKs9f3MmDGjxHE2rLNKpVq0aBE8DIyxDh06JCUl4V05AQ8PD0g+cOBA+bhF0CJH26prQ9BSdfuOak4KVFUFUp+k71t52NXGfY+9r36rU/RjD/1SnTlQvM+yq417iO8lQbepClW1g/h6E7TwalTb8MSJExljXbp00f7ae9KkSYyx9u3bZ2RkVFutStPwuLi4tm3bMsZMTU337dsnmZWLi0v//v0DAwO1DHlhQnt7e3D9nZ2dBUEICgpCkNA1oNOo6caNG42MjBhj/fr1Mzc3Z4x98MEHT57oMEytVCodHR0hk/bt2/v5+ckZsyVowa43yABBi0F2KzWKFKjsChTkKXw3/eNq4+71+/HSrFHRj0Pkp7oceGuLrccWW48L/leUhcrKLmsZ1W/37t1Fvg587OzszMzMGGPTpk37N07Wvx999BFjrHnz5kuXLuUT6HqqXXlPD8vNzV22bJmuK3bKSOmKyyYxMXHFihXPnz/Xo8hHjx7Vq1ev6G09OL6ackhKSgKz+fPna7Ip1/icnJz27duDL67rbMZyrZhOmfPcMnv2bFGXJSUltWjRgjHWp0+f1NRU7Tnv2bMHnP7PP/8cBknu3bvHfxkxPG/ePNBtwoQJGCkKbN++XQ4mCYKwa9cuU1NTxljv3r1TU1OxGhYWFgEBAdrrLLq7ZcsWyArmHGpnZpyVStPDRDIazCVBi8F0JTWEFKhiCqSlpMF4y7FdZ+VTREVa3rwQu3Oxl6uN+13/hCombumqa2VlpetbWPn29+/f16l25QotZ86c6dSpE2NM11rp1IRXa5yamjp9+nQTE5OmTZsmJyfLrExycrLbv59vv/2WMWZiYrJu3bp/4/73b2hoKGa4bds2eAymTJki8nf5y927d2OSsg1URWiJjY0NefHh4SQmJgbIpGgtmZWVFe+pz549mzFmZGR08uRJLeplZ2f/+uuvMMQB5KDFWBCEixcvQt9FRkZqt9R+V6lUbtq0ydjYmDHWunXruLg4sF+3bh3kb25ufvToUe2ZiO7u27cPuWXHjh2iu6JLGmkRCWJglwQtBtah1BxSoCopEH31vquN+xZbj8jg6IqkEZllebsEuNq4H3A+plJWr2lh1Qdapk+fDr6UAUNLZGQktFEnaMFUkFbT7xUrVuBfnGHDhmky4+OHDBmCSco2UBWhxdHREcQRDQ0hq//www+o0qNHj+rWrcsYe/fdd7UvL/n1118hWxMTEzkc4u3tzRjT6QnBWmFAoVA4ODiYmJhA0fy6JqVSaW1tDfF169aNjo7GVHICtra2MG4De4KFhoZ+oOHTuXNnxliNGjWsra01mHwgf4WMnLqRTUUqQNBSkWpTWaQAKfCSAkql6u/txWvc9689En/9kUyWqBiz8BNRW2w9ts73eBSj2/rRl1pYNS8ePXoU/+/nypUrjRo1YowdOHDg3zhZ/65atYox1rVr17t37/IJcCtShUJx4MABt5I+OHGlT58+JdkW34+NjZWvOkGLJq10hRacQgaOqZbf5bcLnEKhcHFxgVGde/fuaWpapYrXBC0FBQUzZ85cunQpP51ywYIFIKy3t7eWVnh7e8MYC2NsxYoVcrbtgpEQnVatiCqQnZ0NI3JQwyVLlojmkt27d2/o0KEwXa1Lly63bulwPm96evqKFSuQvkqzMsewh1VFnWJ4lwQthten1CJSoCopkJuVt+/XQ6427kd2BlWexS03zt/dseiAq4371eA7VUnNcqhr+S3E59+La/Fxdb3l6+srXwaCFk1aIbTMnj1bnRU3bNgA/YIjLatXr4Ytqg4fPgzznUS/z5w5Y2lpyRgrP2jR1JbKHK8JWtTrfO7cuVq1ajHGxo8fr2mYRaVSubi44GSqRYsWichBPVuIKVrKwhj7+uuvNRloj4+Nje3fvz88EkZGRk5OTpKkBJPHoHr169ffvXu3pJn2sgRBOHfuXDsNH3jDYmxs3LZtWw0m7Qx+AVuJAlZdA4KWqtt3VHNSwEAUSH2S/seS4qUjQQcvVcwoivZSYiLu717u62rjHuxdHbcLEz1VBC0iQarcJeKHTpN/MJXkHlb379/noSUlJQX26v3mm2806aNQKHr16kXQkvXigyrJhJbU1NQuXbrADC5NUxlzcnK++eYb6JfWrVsfP35cklj8/Pys1T4NGjRgjFlaWqrd+V+En58f1pkPqFSqvXv3QnLGWMuWLb28vHgD9bCvr2/9+vWhnqNHj9Y0Jnby5MmUlBT15NpjaE2Ldn2q+l2Clqreg1R/UsAQFIiPeli8Sdd8j8uBN7UTRXnfjb/+yMv5uKuNu++mf6rPdmFaniGEliVLlqi/cdcSA4MYWiac4EiLo6Ojlgrg5H7tb+jRjZYz0pKenm7/4tO9e3dwnn788Ud7e3sXFxf1bVVVKlVCQoKXl1fRYALYBAQEPH36VPIlcUREBOQM55onJiZu2bJl7dq1p0+fxnlx2FilUnn58uXNmzfb29vv27cPN4R98uQJZKLJnxMEIT4+3t3d3d7efu3atcePH5fcYhjy+e6776CNZmZmdnZ29vb2craB0glaYCqgmZmZljk/CC1ffvklKiAzkJSU5O3t7ejo6ODg8Ndff4WGhmZlZamnlZwehmKCpFp+a9ohID8/PyQkZNeuXQ4ODqtXr/b399fDmcbaHjp0yNTUdPz48dBlcqBFqVTOnDkT1t8fOHAAsxIFFAoFLCvq2rUr/+QolcoZM2a4u7uDPbj18EjI/719+3ZRcYIg3Lt3D4+PNDIyWrx4cWZmprqZekxUVNRbb70FpZubmzs4OIgSnj171tzcvH379mFhYerJtcQQtGgRxwBuEbQYQCdSE0gBQ1DgUsB1Vxv3P5YcvB0aX95koiX/47tDXG3c967wy0qjA5WLnyuEFvn+DW9ZOaEFCYevKhwwwh+krVQq9+7di96VyLh79+7//POP6LuHHuH27dsPHDiASwvgnAp+Vs/Ro0fh3Tlma2xsPHjw4ICAAAQG0eJsKOvChQsDBgzAVBCoWbPm8OHD+aXPgiBgPiJjLZ2CzcG0JY603L9/v3HjxoyxWbNmYXL1AELL9OnT1e9qiomJifn4449hIQTfClNT02+//VZ0XiFicNGmWygdNoRPLhm2srISVSM/P3/NmjUw44hPYmxs/NVXXz1+/FhkL+cS8KN79+4AsXKgpWgLcih99uzZiMqS2Hb27Nn//ve//EZkgiAcPHjQ6MUHDqzER7RoU3ItCAe3Fi9eDKMiImjJzMzE3ckYY3Xq1Nm6dWu8Lp/IyMgRI0agqk2aNJk5c2ZISAg0cNu2bTVr1mSM1axZc/PmzdjqEhUmaClRoiptQNBSpbuPKk8KGJACKiHArRgY/lrlfyf8nhauKL9b5w5dcbVx377owPMHJRyAYEC6l9AUhJbevXtb6/KBbXy0+MfoYlb8SEtycvLUF58OHTqA2zR+/PipU6fa2trm5+eDIgUFBXPmzEGn6s0337S2th40aBDOhIETAE+cOMEriB7hF198YW5ubmRk1KdPn759+xobG+OrbkEQNm/eDNvCwowaa2vrjh07QlmmpqZF4yEQRs8bi9i6dSuuWGjYsKGVldV//vMfcO/gTbyDgwN6eAkJCVOnTh09ejTkVrNmzc8++2zq1KlLly7l8Qkz5wPo65cILYcPH65fv37jxo01TVuCbPWAlri4ONz5t0mTJlZWVkOGDGnatCl2iqWl5bNnz7Da+ETx0BITE6Plsf3888+BuBhj8+bNw6wEQUhLSxs6dCiWZWFhMWjQoHfffbd27doQaWFhERUVxScpMVxQUACDewh4JUILjDnA3llpaWmCIAQHB1tZWQ0bNqzoiCFRiUqlUjRUGBsbC4q99dZbcK4LPqIiDhFlBZcoKRpnZmbu2LGjTZs2qMyIESNwuhdGygwsXrwYj9aBJB9++CHwWGBgIPb1t99+y3e0ZFUhkqBFizgGcIugxQA6kZpAChiIAgX5Ci/nY6427jsWeUUGVegmyPeiEs96X9pqt3+LrUf05aqx71DF9DpCi7oDrb0C4D1UTmjBmmtaiJ+bm/v111+DF/Xee+/dvXsXkyiVSn9//549e+JdHgDQI2SMtWjRIjw8HBImJSXBGI5CoVi/fj2AR9OmTf38/HDhQXh4+KhRo/hRBV7z/Pz85cuXQ8KWLVv+/fffmDArK2vFihWwGa6RkZEIMxA/ynVNy8mTJ1Uq1a5du3CLJ1QMAuiv//TTT6JbkpcqlWrcuHGwuN/Hxwcbq1Qqo6OjJ02aBPr/8ssvmBw9bB5a8K5kAM89/OCDD/jjUAoLCz///HMo4vPPP+dnW+Xm5m7YsAFOXO3QoYNMZxpKj4qKgv49fPgwxGiBFpVKderUKcC2Ro0axcTEQBI/Pz+omI2NDTK2ZOuys7Nhfby5uTnMV8TjF4sOfkUOgbRjx45VX3GEkqJxREREy5YtoQJt2rTx8fHJzs4WgQfclfM7KCgoMzNz6dKlOCb5+++/Y1vu3LmDrxUaNmzo7++PtzQFCFo0KWMY8QQthtGP1ApSwEAUSH78/M9lPq427n8u84m+lFB+gyqinE95hLrauLvauF/0vWIgUpZRM6ontBw7dgxcroYNG/IOK4qanp4Oy8rNzMz4aUI8tEiukQgMDISczczMzp49ixliwMnJCb09HlqKVrBAfNOmTXmIwoRxcXEwk61169bwSh5uVQC0QEFwmEaHDh1Es7bgLrq/2gfWsDmpqakWFhaMsTlz5mAkBjIyMsCdxXlWgiBgETKhBQcx1Ot84sQJUPvrr7/moRQr4OvrC/ixcOFCjCwx4OrqCpOp8KgQLdDi6uoKZ56Ympry/npeXl7fvn2hevzwnaj0rKwsYHIjI6M9e/bgXXxEkUPglkxoEQTBx8enXr16S5YsES1EwSL0CDx8+NDJyWnq1Kmi4aOkpKT33nvP1NR0wYIF/O7PmoogaNGkjGHEE7QYRj9SK0gBw1Hg4d0ncA79/t+Oxl17KKKL8rgMPx7laltMLH/vOK2sZudIlvjcVE9oOXjw4CeffNKjR4/vvvtOk0Q4FMNPi0KPsHbt2o8ePVJPi0MEM2bMUL8rCEJubm6PHj3AJUVoKSwsfP/99yHyt99+k0woCIKbmxvY8Ds4VRi0hISEwPtyyZlLSBQyoSUpKalOnTqMsYkTJ+KEN77hx48fP3bsWHx8PN7FIuRAy/Xr15s3b84Ya9iwofro0JgxYxhjdevW5TuXL12hUMAgRvv27WX67iqVCuabffDBB1hnTdDi4eEBo2pGRkY7d+7kixYEAQdb3nrrLcnFLXfu3Onduzc8DN999x2OU5V+pEUQBKVS+fTpU1GVyu8yMzPzyJEjmH/RCh97zZ+ihTqMsfr16y9evFizlX1wcDBmSIEqpABBSxXqLKoqKVBdFHiSkLxlvgdsOlwelMLnGX898Y9fDrrauG9b4JmZll1dJJbdToSWvn37ajphWjK+Mq9pwdZrmh6GBloC6G7yCxsQWjp06CB6ZywIQl5eHsjCGNOyy1nRVmYiaMFeYIxduHBBU62ioqIgoY2NDdqUElogQ02/8ZwWKO6rr74CS/XWIVHIhBacdGRiYhIQEIDN0RLAIkqEFv6A9lWrVonyxKL79esnOcwC9rNmzYLG3r59W5SD5CWOHS1btgwN8ClCQIVduRo2bAiZW1tb88gBCTMyMnBVifpuEAqFYtCgQZC8U6dOIqrBR1TvkRas/CsJWFlZQdNK81vmQ/hKGkiFalGAoEWLOHSLFCAFXpkCtw/Gudq471xy8HZY+W4mduLFdmF7VvjevRP3ylpbiQvm3WU9vIQquqZFe4ekpqYGBQXhZq/8e3r0CPv376/uayYlJeEybh51RMXhblHoyCKNMMYOHjwoOrcRL/39/SH/UaNGYZ4VCS0xMTGw15b6hCskim3btmHdtAe+/PJLeORMTU1HjBjh7Ox8+/ZtHKNQT4tFlAgtuJSld+/esDydz+3Bgwewt8GAAQNQW/UAsmVgYCCfXFP4woUL0ByewdShJS0tzdraGix79+6NS1lE2SIyTZ48mdeksLDw559/huQ1a9b8+++/RQnxESVoESlDl5VfAYKWyt9HVENSoFoqoBKO/RnsauPuvurv2KvlNUnsgv9VGGNJjP//exBVS7k1Nhqhpfx2Dxs4cKCd5g9MtWeMdezYUbOVHZ5Gov6OX2PbBEHOSMvjx4+PHDmyZs2aH3/8cezYsXCKIjiF8FsSWtT3zxUE4fr165CkTp06kgs/oKpnzpwBM4QWXGLBl6slPGDAAHRkSwktXbt2tVb74J7LopEWQRAOHDgAiz3GjRvHv+N//vx5s2bN1Nd/a+mdpKQk9f2mi/bs+vTTT9esWaO+1kgmtOBSlhYtWsTFSbyqCAsL06Kt+i1PT08trcBbADkWFhY8Jomg5enTpzgPcO7cuepn+2Bud+7cgc21atWqhU9gTk4OzlqsW7fuX3/9hfYY0A4tog2pUVIR4WBunp6eWmZhybnl5OTE7zOOOWNABP+PHj2S3Fr54MGD0DXW1taxsbGSNhgp2hUay6JAJVeAoKWSdxBVjxSovgrk5eR7rjvqauN+aMspfkJXWYUjg6K3L/B0tXG/fUnCcam+ur/ccoQWdKBfvq/xCnwjOSMt6l5gaWLKEFoCAgLeffddycq0bdsWlokXbbiELiO/YEASWoKDgyE37Rt5BQUFgRlqjidsSlZGPbJPnz44r6mU0CLaiwz6Gw+6UYcWpVI5ZcoUqJK1tTWyGT5IO3bs0PjQqN1ITU11dHTEqVCilo4aNerBgweYCD1sTSMt/H5cotXtmIkgCKi/qDhNl7t27eKTS4YzMjJgi61p06bxBjy0xMbGdu3aFUqZN2+eaPNiPhWE9+3bB+te4LzOpKQknBX2/vvvR0dH80muXLkCHKsJWmB4R7S3G0qqCVrwnYImcUqM1/5dEARhz549VlZWGzduTEhI4FvEh/FgTXNz82vXrvG3KGxIChC0GFJvUltIAUNTICMta9eLBScn3S+WFatAPtGXEnYt9Xa1cY/a97+NRA1NuzJqD/qa6EDLzFg+tPTs2RNOTZH8PWTIEPB7WrduLWkAkePHjwezMoGWpKSk0aNH4+7DRkZGb7/99vjx4xcuXHjw4EFYhYyjNPKh5dq1a1BJ0Z5jIknVR1pwN7NWrVrBSeqiJFouKxhaBEF4/Phxq1atoKXTp08HXzk5OblJkybaF/NoaoVKpbp27ZqDg8OwYcPwUBrI39LSEgcu0MPWBC179uyB/biKdlJ2dnbWVFxoaChk/vPPP2uy0TX+6NGjkKdoLhlCy8qVK/FQmp9//hmZU0tBhYWFo0aNYozVqlXr5s2bmZmZcNrPiBEj+O3jBEG4efNmvXr1Zs2alZeXJwkt+fn53bp1K9rZjN9xmN+QTTu0NG/eXMt3U9Mt+GqXCC2wtp4xpmVioZeXF8jLb4GtRTq6VUUVIGipoh1H1SYFqosCCbcebfu5eDwk/ERUWXFL3LWHnr8Vj+H4bztF24Vpf5IqAFq0L4rFQYaxY8dqqSq++y8TaJk2bRr4QPXr19+xY4fk9lB6QEtiYiKc78EYu3r1qqbm4CZgCIrh4eFQHxMTE8n9jjVlJQhCxUOLIAje3t516tSZO3cuvh3Xr4PU25WXlxcZGbl27VpAIMYYbi2tHVpwVhhjTLShlqiUu3fvAq9+9NFHolt6XyYnJ69du3b48OGiqVAILdC/xsbG69atw6l9JRYHNDtmzBh4Kpydnb/77ru8vDw+YXZ2Nkzna9CgQXR0tCS0PH36FA6IFK2BQUm1Q4vkuCJfB8kwfLW1Q8vTp09hlVTTpk3j4+Ml87l79+6bb75ZxMPdunXjZyQKgnDlyhX+RCPJ5BRZhRQgaKlCnUVVJQWqqZ6n6OcAACAASURBVAJXgu4UL8pf7HXj3N0y4ZYjO4JerJbxz8kUHyldTSX+t9l5eXlz587llzAMGjQIXk7rt6alTp06Q4YM4TPEc8cVCsWBAwfc3Nzw2Lt/a/HSvzKhJTMz0+3FJzY29qX0Wi9mzJgBziK/sy1yWtHeqS4uLpIZqFSqYcOGQVr5Iy0FBQW4nfEff/whmXPR5lFTp06FnBFaUlJSYEEIY+zPP//UlPDZs2c7duwICgrCY0D4hTTavUNRnog6uk4Pg3wKCwt5SQVBQGg5ceKEqCzJy9zc3Bs3buzfvz85OVnSAMcucPNo9LDVR1ri4uJwHEN0jqR65tnZ2ZaWlnA8aEpKiroBxJw8edLLy+vq1av8qZSajDXFL1myBPoazm8pcXlMYGDg4sWL79y5Axnm5uaGhoZi5jk5OSLgUalUCxcuhCJgpEISWk6ePMkYMzIywpwhT5T0VUGLt7c3VH7lypWixS1Qw7t373bq1IkxZmpqGhISglKoVCoHBwdjY2MTE5MDBw5gPAWqtAIELVW6+6jypEB1UeCM5wVXG/fd9r53L98vJbcEeYUDAj2+n1Rd5JPdzpycHPTF0Zcq24CuL2VlQovsJr5kiO+5eQ8b3WvG2JkzZ15K8OJCpVIdOnQIz/CWDy2CIKxYsQL07N27t+ilOxR079493O4WoUUQhIkTJ0LCzp07iyb/YA2XL18ONvzgFTanIqEFq4QB3ISAbxTeVQ/s2bMH2uLm5qZ+F16igwEuw0APWwQtqampeGjJiBEjcJmNZLYQOWfOHMj8119/lTRLS0uDuVjm5ubqWwJIJhFF5ubmLlq0yNjYGApq3779lSsln2wLsmifXsgXhIdgfvbZZ7BIRhJaoL2tW7cWQRpK+qqg5YsvvmCMdejQgT/CFRtYUFCAk8cWL16M8RDw8/ODEbPGjRvrOj4pyoouK4kCBC2VpCOoGqQAKaBNgUJFobdLgKuNu9fvx2Ov6L+ZWETAjS3zPbba7Y+NvK+tvOp6T6FQFM1NkrPnj942OJlHpsYVAy3nzp3D+uB5GnAcu+jVtVKpdHZ2xqUROi3Eh/UesHiAMTZv3jzR9lAxMTGDBw8GL1bkeV+6dAnmyTDGPv30U9HKlszMzFWrVgFHNWrUiF+ejtBiZGR048YNbKb2QClHWtQzv3LlCrSLHxlQN8OYR48e1atXjzHWtm1b9XlBhYWFM2fOhAyPHz8OqdDD5qUrKCiYMGECWM6ZM0ckOBYnCkRHR0PpNWvW9PDwEN3Ny8vDCYQ4ziOy0X4ZERHRs2dP7GjG2OnTp7UngburV69mjFlaWqqfAqSePDQ0FACY34F679697V589u7dC0kePnyIj1anTp34HZnz8/NtbW2nTp168uRJ9fyLJh/CQnxd30RAViVOD0tJSYHxsZkzZ0qWvmXLFtCwX79+6uNdKpUK91IbMWJEfn6+ZCYUWYUUIGipQp1FVSUFqrUCmanZe1f4udq471t5+NbFOD3GWyL+ufnHkuJzJMMCaHsZfZ6lzMxMLy+vESNGSG4UKwjCpUuX+vTp4+joKHkYvD5FCkK5Qsu+ffvA6WnTps28efN+/fVX8AXxEAwjI6PJkyefOnUqPj4+MjJy27ZtcA560TQtXGvOj8bga2wtbtyjR4/wxX///v23bNly9uxZLy+v8ePHAwvVqFEDaiUalLh69WqHDh2wwo6OjoGBgadPn169ejXGGxkZ7dmzh5c6PT29ZcuWkKpjx442NjZOTk4l7kxV5tCCW3LxA1N8PdXDOHDUoEEDW1tbPz+/kJAQf3//VatW4UkmI0eORA5RhxaVSvX9999D27t27Xrq1Ck/Pz+YRij5mwcqPMuFMfbRRx+5uLgEBAQEBQWtX78esZOHAfX6S8ZkZmb+9NNPOMACdeMpSzIVRk6aNIkxNnToUIyRDCiVyoCAAPD4GzZsqEVz3O3N2NgY9iIzMjJ67733fHx8RLguWVC5Qou/vz/oo36ApiAIly9fBkrv0KGDpgY+efIEt+det26dZBMosgopQNBShTqLqkoKVHcFbocnuNq4u9q4+20K1BVaokLubrH1KF7Kstpfzn/G1V1rtfanpqbif/+4LoW3ev78ed++fcHJqFGjhpeXF39X73C5Qsvly5fRa2SM1a5dG1aD3Lt3D5mEN4CwiYnJokWLAgIC4HL//v3YOjnQIgjChQsX+LEavggLCwsHBweIEUGL9oSQZPLkyVgZCKhUKjz6A2zeeOMNTRPMMG2ZQ8uhQ4egdJnnxwuCkJWV1aVLF0gl+btu3bo8P6tDi0Kh6NWrl2RayUjRDs645EnS2MTE5OzZs6iYnEBqaioCDywcnz9/PmSu3teSGcKmxqJ9k9UtT58+jXVetWqVugHG4Pdr6NChp06d4h9LLaunMHm5QgucbNOgQQP1GX0FBQX/+c9/GGN169bl3xpgxTAQHR0Nu5NbWFjQ8SwoSxUNELRU0Y6japMC1VEBlVJ1yPWkq437FlvdNhOLi3y0/8V2YVvs9t+/87g6aleKNufl5e3YsaNdu3boBvXs2VN9Q61z587h+36wtLKyOnjwIL4I168K6FRp3z1Mv8wLCgpwlhHUGV/ZxsfHT58+HXc9xrZbWVnBet+4uDjYfvfHH3/E0mVCi/BiBImXFFYSDxs27MKFC5s2bYLizp8/jzljIDAwUPL0mFatWi1ZskS9XwRBCAgI4LvGxMQEN/XCbEUBhBZdD5cU5YOXGzZsgKXe/NQ1vKspEBMT8/HHH6v3AmNswIABFy5c4BOWObRkZ2cvX768QYMG2PsY6N69u8wdBaCGSqXS19cXloxDJpMmTXr8+PGaNWvgcuvWrXxbJMMPHz6EAyW1G9+5cwePQO3duzduCa2eZ0hISPPmzYs2gDY3NwcACw4OhvNk4IH85ZdftM9DKz9oKSgogBl0AwcOFG0AXVBQgLC3fPly9XZhTEFBQWZm5uzZs0HklStX4i0KVEUFCFqqYq9RnUmB6qtAdkaun+tJV9vizcRuXoiVM95yLyrx6B/BxUM0tu6XT8md0199JeZanpycvGrVKjxFESbTr127Vn36OCa6cePGrFmzcJE6TKNauXKlpj2gMKGmQLlCCxR69epVZ2dnWKUj2nwsKSnJy8vL8cXHy8uL35VLqVRu3brV3t5+06ZNONsqIiIC8pGzdKewsPDChQsuLi729vb8Nlm4PQASlLo4CQkJHh4eDi8+Hh4e8fHx2scPCwsLQ0NDnZycoHp8Q9Qz5zdKRjddMiAampDMShCElJQUGDNp27atJFZpSgjxT58+PXz4MFR+8+bNR44ckSQfhUIBYtrb28PieKVSWYSR8tdfSQ535OfnX7hwYffu3UX9Ym9vv2/fvujoaO1qqzfnr7/+QvTq1KkTAo+fnx8I27x58z/++CNE88fT0xNmFZqamt68eVO9CIgJDw/HL6ylpaWmiZqJiYmLFy8G6jY1NeV3O0hPT1+/fv0bb7wBFevVq5eW4xoBWopO/5QvMlrC3hKa9oeIiIgAxX777Te+sc+ePXvvvfegbq1bt/7jjz+ga5YuXWpnZzdjxowJEyYMGTKkQ4cOtWvXFj205ubm2vcq5AuicCVUgKClEnYKVYkUIAW0KaBSqk7tv1i8uMXx8N0rD0rklmDvS6427jsWe92+FCuotOVM90ABlUp18eLFr776Cg8VYYwNHjz47NmzMn21tLS0devW8QeZm5mZjR492sPDQ9eBlwqAlsrW7z/99BNjrGbNmpo8zgqoMI60FHml6GViAObtMMZE0LJhw4bJkyfb2dktW7bMycnJzc1t7969K1asgI22GGNfffVVBVS+EhahUqns7OzMzc1XrlzJj12kp6ePGTNG5Ftrv5wzZ46mr6G7u3udOnUgubW1tfq2Zkql8syZM6NGjcJpYA0aNJA82ujp06effPIJZGVmZrZ+/XrRcAeIDNCivcLa72qCFjs7O8aYiYmJaPeI/Px8XBKmPWf+bsuWLQGB+vfvr+WdSyV8cqhKvAIELbwaFCYFSIGqoUChovDghhOuNu7eGwLuRSVq4ZYrJ29tme+xZb5HbGRC1WjbK62lQqHYvn27aCHB8OHD+QMQ5FewoKDAw8ODn8TPGPvss880uVySORsYtHz11Ve9e/eeOHGi5Et9QRCUSuXAgQMZY507d+a9W0lxyi8SoUWnc1rwWEzeX8RwixYt1PcBK78mVLacc3Jynjx5ol4rhUKxbdu2t99+G4WSDBgZGfXs2XPjxo04rCfKKiUlBRZiGRkZOTk5iU41KTqAZdmyZXD+DOY/cuRIdbDBbAsLC52cnGB1PmNs4sSJomMrcfew5s2bazr2Xkv8kCFDGGOS0JKVlQVT6Xr27Kn+mmPbtm3YhAYNGrRr127QoEETJkyYM2fO4sWLnZycPDw8QkJCYmNjU1NT4UukUqm++eYbSEWTxLCLq1yAoKXKdRlVmBQgBYoVePYkf7e9r6uN+4k95xKiHktyy62LcbBd2K0DOhw4WM31vXfvHrwXNzU1nTZtmpaD22UKpVQqDx06BKtmTU1Nw8LCZCYEMwODlgULFoDnNHLkSJFbCe39559/4JWwfnvp6qStFmP9oCU8PBxmHKFPCYG6det+/fXXJS6k0VIfuiVHgdWrV9esWVPy3NK7d+82btwYuqNRo0bTp0/XhM2iggIDA5s2baq+Kx2YldOalgcPHlhbWxsZGS1ZskRUH0EQsrOzb9269fz5c038pp5EEITExMQWLVrUrFlz2bJlOiWUzI0iX4kCBC2vRHYqlBQgBcpAgYd3n2xf4Olq437u0BV1aLl75cFfK/1dbdwD9oYolTQtTAfBPT09f/vtt2fPnumQpiRTpVIZGRm5e/dunYZZBEE4ffq09YvPL7/8UlIhVeB+WFgYTLU3MjJauHAhf9zKw4cPV65cCZ5lnTp1RLNiKrhteXl58S8+Je4zJlmx/Pz8HO4jaUORZa5AYmKilvNedu3a9fHHH3t4eOg6ghcXF7d582bJb+7MmTPbtWs3YcIEPdoCX+2xY8dqesaSkpL4U1/1KEKU5OjRo/I3rxOlpcvKoABBS2XoBaoDKUAK6KlA1PkYVxv37Qs8I4OieW65F5XotznQ1cZ9/9ojBXkKPXOnZKRAWSugUqlOnTqFS6VNTU379u1rbW3Nz9sxMzPz9PQs65IpP1KAFCAFqrYCBC1Vu/+o9qQAKXDWO8zVxv3PZT7R4QnILYF/XXgR6Z32JIMkIgUqmwIPHjz4/PPP1U8YhHMDr1y5UtkqTPUhBUgBUuCVK0DQ8sq7gCpACpACpVKgUFF4eNtpVxt3T6ejcdceJtx4HHokcst8j20/70+4lViqrCkxKVCeCqSkpBw9ehR28t22bVtoaGhWVlZ5Fkh5kwKkAClQhRUgaKnCnUdVJwVIAVDgeWKqq627q417iE9EXOSj/y3QdztH+pACpAApQAqQAqSAYShA0GIY/UitIAWquwJhvpGwuOXPZT4wMSwzLbu6i0LtJwVIAVKAFCAFDEUBghZD6UlqBylQ7RU49ueLY+9t3HcsPPDwblK114MEIAVIAVKAFCAFDEcBghbD6UtqCSlQzRXIzcpzX/O3q4379ZDoai4FNZ8UIAVIAVKAFDAwBQhaDKxDqTmkQLVWID+3IDH2abWWgBpPCpACpAApQAoYogIELYbYq9QmUoAUIAVIAVKAFCAFSAFSwIAUIGgxoM6kppACpAApQAqQAqQAKUAKkAKGqABBiyH2KrWJFCAFSAFSgBQgBUgBUoAUMCAFCFoMqDOpKaQAKUAKkAKkAClACpACpIAhKkDQYoi9Sm0iBUgBUoAUIAVIAVKAFCAFDEgBghYD6kxqCilACpACpAApQAqQAqQAKWCIChC0GGKvUptIAVKAFCAFSAFSgBQgBUgBA1KAoMWAOpOaQgqQAqQAKUAKkAKkAClAChiiAgQthtir1CZSgBQgBUgBUoAUIAVIAVLAgBQgaDGgzqSmkAKkAClACpACpAApQAqQAoaoAEGLIfYqtYkUIAVIAVKAFCAFSAFSgBQwIAUIWgyoM6kppAApQAqQAqQAKUAKkAKkgCEqQNBiiL1KbSIFSAFSgBQgBUgBUoAUIAUMSAGCFgPqTGoKKUAKkAKkAClACpACpAApYIgKELQYYq9Sm0gBUoAUIAVIAVKAFCAFSAEDUoCgxYA6k5pCCpACpAApQAqQAqQAKUAKGKICBC2G2KvUJlKAFCAFSAFSgBQgBUgBUsCAFCBoMaDOpKaQAqQAKUAKkAKkAClACpAChqgAQYsh9iq1iRQgBUgBUoAUIAVIAVKAFDAgBcodWm4eHU8/pIB+CjyL8TKg75oOTVnhP4N+SAH9FAi646/Do2ZApt87n6YfUkA/BY5eiDegr4IOTTn+6Wj6IQX0U+Dugf06PGplZErQQkxVeRUgaNHPbaVU1VkBghb93FZKVZ0VIGjRz22lVNVZAUOGFiHjEv2QAvIVeBq14ebR8dUcWm4kRdEPKSBfAa+IP1b4z6jm0BKdVEg/pIB8Bdz+if3e+XQ1h5a8y5fohxSQr8DtDc7HPx1N0EJgQwr8TwGClhX+M+R7q2RJCtxIiiJo+d75tHxvlSxJgeikQoKW45+Olu+tkiUpkHf5EkELOeukwEsKELQQtBCH6KoAQQtBC3GIrgoQtBC0EIfoqgBBy0sOq/xJRGRpqAoQtBC06Oqykz1BC0GLri472RO0ELTo6rKTPUELQQsp8JICBC0ELQQhuipA0ELQQhCiqwIELQQtBCG6KkDQ8pLDaqijB9Qu+QoQtBC06Oqykz1BC0GLri472RO0ELTo6rKTPUELQQsp8JICBC0ELQQhuipA0ELQQhCiqwIELQQtBCG6KkDQ8pLDKv99PFkaqgIELQQturrsZE/QQtCiq8tO9gQtBC26uuxkT9BC0EIKvKQAQQtBC0GIrgoQtBC0EIToqgBBC0ELQYiuChC0vOSwGuroAbVLvgIELQQturrsZE/QQtCiq8tO9gQtBC26uuxkT9BC0EIKvKQAQQtBC0GIrgoQtBC0EIToqgBBC0ELQYiuChC0vOSwyn8fT5aGqgBBC0GLri472RO0ELTo6rKTPUELQYuuLjvZE7QQtJACLylA0ELQQhCiqwIELQQtBCG6KkDQQtBCEKKrAgQtLzmshjp6QO2SrwBBC0GLri472RO0ELTo6rKTPUELQYuuLjvZE7QQtJACLylA0ELQQhCiqwIELQQtBCG6KkDQQtBCEKKrAgQtLzms8t/Hk6WhKkDQQtCiq8tO9gQtBC26uuxkT9BC0KKry072BC0ELaTASwoQtBC0EIToqgBBC0ELQYiuChC0ELQQhOiqAEHLSw6roY4eULvkK0DQQtCiq8tO9gQtBC26uuxkT9BC0KKry072BC0ELaTASwoQtBC0EIToqgBBC0ELQYiuChC0ELQQhOiqAEHLSw6r/PfxZGmoChC0ELTo6rKTPUELQYuuLjvZE7QQtOjqspM9QQtBCynwkgIELQQtBCG6KkDQQtBCEKKrAgQtBC0EIboqQNDyksNqqKMH1C75ChC0ELTo6rKTPUELQYuuLjvZE7QQtOjqspM9QQtBCynwkgIELQQtBCG6KkDQQtBCEKKrAgQtBC0EIboqQNDyksMq/308WRqqAgQtBC26uuxkT9BC0KKry072BC0ELbq67GRP0ELQQgq8pABBC0ELQYiuChC0ELQQhOiqAEELQQtBiK4KELS85LAa6ugBtUu+AgQtBC26uuxkT9BC0KKry072BC0ELbq67GRP0ELQQgq8pABBC0ELQYiuChC0ELQQhOiqAEELQQtBiK4KELS85LDKfx9PloaqAEELQYuuLjvZE7QQtOjqspM9QQtBi64uO9kTtJQvtDyJDZg/98tOHVqzF58WzRrN+macKj284j3++7eO5DwJkVluwfOLbttXLFs4Y9nCGfFR/jJTCRmXku6egFS/Oc7NTpJbnPz8K8CSoKVqQcuBAM9ZtrNm2c76JzygMsNDYMQ/UM+Nu130qOe1h1e9/vGy/81+lu0s22W229y3hsZc1COfckpC0FK1oMUnIHSO7dI5tktPh8dWZngIioiHem7Z7VPKeoZcezDHdmnp8yllNfjkBC1VAlruHjuSePqkwdPCzUN+2ZfCKn8zCVrKEVqeJ5zq+tabgCv4e9K4DyvA8+aLyH9+YaOTXedObZ/FB/LxWsLZT0KGDekHdT5zdLsWS9Gtaxc8IFWTxg3kFyfK5NVeErRULWixd1oGj9we393l5JGXSbb7DrtBPcd+NkanDP8O8f/i6y8aN20MyfH3/5n83/gvx4fcDNEpt3IyJmipWtDi4LQFHqR9vqd4N7qyhfcfDoZ6fvrZtNLU7XZi/icTpzLGSplPaeqgnpagpZJDS2bohd9/trNs2zbSx7vye/N61/DZ2SC76dP6d38nM+yi3plUWEKClnKEFpff5sMf3Hp1zSeMHWoz54t5syb5ujtVsFM+7YtRjDGdKIKg5VmMl1AtPyv8ZxC0lIdnrx+07PLeZV7XHEGlZZuW/Qb+p2OXjq+9/hpEtmrbaq/fnqjH18ujzvLzJGghaFF3yksfUybQcuexYtXvO197/XWClkr1f9rxT0dXcmiZ8vEL36lBAwOGlqzw0AE9ejDGelhaErRo/4Iw7bdLf/fm0fE3j46vYELgixs3xpox9vrrr108tZuPr+Dw2FFWFQYtND2s9M9t2eRw44Zw8qQeWRG0yPfUdbLUA1pOXz2FAyzdenbzPeWDcHLycuDIsSOAW4z/z3jLPledKlPmxgYCLfp+a753Pk3QUnpEUc+h9NBy57HCafPe/zMxgS8LjbTo8Z9CCUn0/dZUfmj5ePAL38mgoSUz7GIPS0uClhIe8he3DR9arAf1YYy1btksIzG4gkGFL64ioYUvt4qGDWR6mFIpdOwoDBigK7oQtJS5Qw8Z6gEtX30/HTytoSOsL9w5L6rY1ftXrIcXvxZhjHXr2fXaw6sig4q8NBBo0fdbQ9CizhtlElNKaLn1KO/HBQ6vGxnB14RGWuR4Zjrb6PutIWipsClVWgoiaJH/wBs+tFgN6MUYa9fGIlv2CvjycPQJWnRS1UCgRRAEBweBseKfxYvlfy0JWsrJ19cVWiIfXevWs1vxGGmzJifCTkjW6g+vP8Abq1mr5ulrpyVtKibSQKBF328NQUuZIIp6JqWBljuPFfN/WY24AgEaaZH/f4EOlnr9X0PQooUlKuwWQYv855ygpRyX0/BuOkELr0aJYcOBlrg4wdj4f9wycKBw6pScLydBSzl5+bpCy/lb5xo1acQY6zewX+Sja5K1OnXlZI2aNcAb8zy+X9KmYiINB1r0+tYQtKjzRpnE6Acttx7lu+z07NmnP6xjMattvsDeiaBFzt9/PW30+tYQtFQYmWgpiKBF/jNvsNCCO2iJ3vEwxsaOsuKd5oQbf69cNvu/Q/u3a2NRo0bxpFvz2rX69Oyy4Kep0Vd8eEs+fP/m38sWfPNu365mtYr9lRo1TLq+9ea3X30SEvAHv5mypmr07G5Z8Pwin6F6WLQQP/fpud9X/9Svz9smJv9nVqvGO293+OrLj0NP7+GLg0ywUNG6/+mTixe09exumfPknJBx6UrIXzOmjW3f9g3GWP165qOGD9y7fUX+8wvqNan4GMOBFkEQpk//H7TAkEvLlsKyZUJqqpZvaSWBljPXTs9bNPf9oe9btLJgjNWsVbN773e+nz87+HqQyAvndw+LfHTt952/Ww2zatai2Wuvv1azVs0efbrbLbcLjw0TpbqRFDX2szGMsQaNGmjagGvOgjnwFfY95YPJI+5FdOnWpfi7/GITsKDIMzPnzej8tuXrRq+bmpq+2an9x+NH7fbdjYtPMKEWaPk7xL9rj65QVueunaGNZ66dHjD4vbZvtv1s2kTMRBQIuRnSoFEDSPhqN08zHGjR61tTSaAl5NqDnxY5Wg0d8UarNi++NWY9evf7Yf6y89cfiRCC3z3s1qP8jTsPDB72UfMWLV97/fWatcx69um/cLnTldg0UaropMJPP5vGGGvYqEnozST1u9FJhfMWLIcH0v/UFTSIvJf5VreeODvrXOTD7+Yt6vJ299eNjExNa7zZqcvo8ZP3+Z6681iBSSCgBVpOhNzo1qMvlNWlaw++jf6nrkA8Y6xPv4HHQ24ERcRDDI20aPnjX6pbuv9fU5mhBVaz4FOEAc91v/EA8OxskJfzuh+/nNyvW9f6dYp3TDH5v//r3K7t1NEfB+7cnhsRzhvnXb4Uc/RvyOqfHdtjjx+1mz7t7TeLN5jt1KbNj19Ovh8YgPZPgk67rVr5xcgRbVq0YIw1ql9v3LAP/tmxLTcifPOSxZCJ/azv0B4DmWEXz/y5y3ba1F5vdalhWuxVtm/ZcsrHo/7ZIa4P4gq2DgPhnh6YYWUL0O5hZT/cgY47PgEYQGgpTA1daf89gAre5QM1api4Oi9Qp4L9f66qbVaTt+TDX342Ak9H0VQNXaHFc/eq3j0686VA+PXXX5s3a1Les/M8V2ChmqAl8/HZ1cvnGBkVb+Qi+nww5D86nQnDl1uGYYOClthYwcjoJW5hTKhTR1i6VBO6vHJouZ4YuXjV4lpmtUSPB1zWqVdn895NvO+O0LJxt8vgYcXrJtU/7Tq0CwgXz7AqPbTsPLCjXv266sW99vprX82eLhoe0QQtAWEnLFoW/7fEGOvao6s6lfGNFYW9T3pj6X+H+IvuVuSlQUGL7t+aVw4ttxMLlq5yqWVWG58HPlC3Xv2te/14HkBocd3tM2RY8Rsl9U+7Dpanw+/yqcoEWv48cLxe/Ybqxb32+uvfzJ5/61E+X6ImaDkVFmPRshjMihd09ejLE0t0UqH/qSuvGxn9p/+gtRt3Q4YELaUCEjmJdf/WVHVo8XPZ0LhBffUnGWO+NytcnAAAIABJREFUGjvmechZ3ulHaHFbvap9y+KXtvhp37Lls7NBYHx27x6LJk3wFgZef+01mylfuixcADHq0BLl59Ozs4S3Bvbjhn2QdOY01oegRc5zzdsY7EhL7tNz8dcPx18/3K9P8dvTVm80u3XpIMQ8jjkB7vX61TbwGLVu2Wz5oplebmuCj+84c3TbJie7QQOK30gVvyerYRp5YT/vjl8O+at27WJnzqJ5Y4dfvjvht+nsiZ2Bh10dfvmudctmkGqhzTRIgtX4cOi7xaTesN7lkL/irx9+cOuIOgvxpQgZl/iRlgb16zDGunftuNn55+DjO/76w3HGtLGNGtaD4n74diKfm3ZoaflG009GDf5/7Z0HWBPn48fvqSi4UdSq1IW7to5W1GrVOqrW2mq1P1ddtRXHv3aB2jqpe9U6KooTRBEXiBtFtsgUWSo4ABXBVRBkhuT+xJe+PS6XkAQSkuObh0cvl/fe8Xnv4P3kXdWqvVW3Tq3vp4/Zs33J/p3Lvps2mspbx/atkuM12MuSl+0KeSsqaWFZdsYMvrSQXhdzc8Fel8qVlri02IX2JQuF165Te/gXw35f9ZuTx8Gdh/4eP218DdMaDMPUrlPb7eJR2iKn0mLeQO4PzSybff/Dd2u2rVm7fe33P3xHOyL6fdKPN1W9nNLS6b1O5g3N36r21uARg39f9Zs8ufnfd+zSkTwXxU/cTpedNJPx6XGC0nI10ruVVStySQ/rHoFxAdxLVB/HpcVOnTWVXNu2g1VkUoTq8Dr9VFTSovlTU7nSkpAm+c1+E7kTatepO+KLr5es+uuwh4/jodMTp9mQhbNq16l74mIw9QEqLeYN5D11zSxb2vywcMO2Axu3H7T5YWGjxiUNpo8/GXbrcR69qvzS0vm97g0aWrxVrdrQEV8uXfWXPLn5izp1KelmLM6Jo4snNzlBafGPTGpl1Y6U9wPrviFxadxLEtOLQuPTfcLuck9CWrhtL10da/i3xpClJeWyV8K5M8P6yttOjRo0uOS4O+HcmYRzZ54HBpBGv5/Tgbq1S75Z69Ot6yY7W689u30O7Du4euWEEcNN3qyvzTDM6MGDXgSVXMLtaWnaqFG1t94a0qf3HvsVV/Y6rvlx/q5lS0nMN04ctzCXN7rkD2bjxn/83zyvPbvdt/416+txpOekZdOm5FOetNw+69mssXxEMemZWTjzW88d267sdfxr0cI+3UoesSF9ej++eoUklBcZfu/i+XhPj/fay5+m99q3i/f0IMXMvH6Nuo2hHaCnpeJ7WmjTWdlE/Kf3LzeykDew2rS2fJJ4iYYnB0UZYbbzp5A7b9Ev07mfTp88Sv4IWZjfu3mae57NiniSeKlNa/n3ta1bNs987Mf9tJxzWhiGmT55VO4z+bAu+pMSf659W/n3BDVqVL92ZT89r1paSKG6vdf+XnSp/Adc2ktkrHiA3JZ1v9LYKuVAbNJy9y5brZqwtzAMS9QlM5P+GatcafH0P036WJo0beJ+9RSvnf33ob+Jt1j3tY5+XDLNg0qL/C/E+NFh90K5V3lHXmneojnDMNWrV+f1RZRTWhiGMW9ovvfYXu5IsLi02AX/SteAIQO4HylKi1+0b4fOHeQPkWmN/035n0bGEp8ed9zrGJ3Q8uuyX7ml1v+x2KRFw6emcqXlvH8M6WNp0rT5mas3uI31xPSi3YdOE2/p3Xfgrcf55FMqLQzDfDV+WtS9DO5VfpEPLFvIXbp69RqXguK5H5VzeBjDMA0aWhw8dok7EowrXQOHfMb9SFFarkU/6tD5/TdPjemEKbMUjYWbW3oMaaG/4XV4oOFTY8jSQlrqypY8fh0e+om1tfybZTOzzXa2r0KCeS37Y39uqvZWyVZa5x120k9pT0txW8h+3lzF8WPZYSGDeslXna321lvTR3/JHTCWfyPC98B+6jMkBhpzVuj1Ib3loyVNa9T4v0kTeRe+Dg9dPOt70gDrbGV1/9IFeiHtb8E+LWU+GqLtaaFNbWXS4rJ3Jbl7Du5aQQNzD5JizxClpsPJ2KwIaWZYvz7y1YQ+/qi7NDOMG54cr/9jftf32v9vzNBHdy5wPy2ntHTu2OZVqj83QnIc4uNUo0Z1hmEmfT2cdraUKS116tQK9XXmxSZ7FT5x3DDC5OsxQ3if6vktkZaX0a5l3sFGE2DaNKXSQntd/viDTUlhWbZypWXK99+Q2+Bv51JjwEgrPC4tdszEMSUGcu0cOUmlxaq9Vdg9gbkrvy77lcS57cBWbmu+/NLy26pF3AjJccSD8Dbt5ANXWlm14vZ+8KQlINa/83udiLGs27GWqzeKcSqe8YnyoV00X3z9BU/VFMPr+gyRlus3TxnNQ1FmRjV5aipXWqZ9/wO5w3c7e9BmOj1ISJOMnTidGIjXtVvkPJWWtu07R90TmLtC193aeeAkjar8PS0MwyxZtYUbITmOfvDKqp28l7K1VfuYpGwagCctwbGpnd/rToxl0w4nrt7QSwQPDFlarvrGl3kzGk0ATZ4a45WWGI9TNarLGz9TRo3KVZi4kn8jIjsspEcn+a93eZf70iXUEKi0NKxfP+WKFz1PD3wP7ie28/24sbkRYfQ8PXBas4pEW/wvt6fl8l5Hcv6XqVMUXYhkaUDPklE8y+fOphFCWtR/uKqutGQ+9gv3P3Rw14qXKT6CLfJXqf4t35H3AI4c1o8b4LM3A71q1TQ7d2Ir9QRuAMHjckrL35sXCkYryQjt37cHwzCWzZr887CkIGVKy6wZXwkuA0DHyw3q31MwOb2dJNLy7JsuZTT0SXNfZP8OHlyJ0hKZHGHVwUo+cbBTuxvJkYLtbE//0zucdly8fkGxp+WHhf8neMkhT2fy29x+8wpugHJKi6mZ6WUlKxEPGNKfUZjiz5WW4DvXeljLn50apjW0MBa/GD86Dm3CtPE3H0Vxy1Upx0Ra/CZ9WDWfmkqUlpjk7LYd5HvDdejUJTb5tWCT/YJ/zC4n9yvX7yj2tPy00F7wEldPP/LUrNq8ixugnD0tZmY1fcL482RI/AOHfKY4xZ8rLeF3nn9gLR+uU8PUVCNjSUwvMmRpOT98etV8aoxXWl6FBN84cezIhvU3ThyjrX/ewYiP+5EnaLOdLf2ISkvf7t0FneT/Jk4k3SzhbsJT4f+5FtSpTclsLq60fDd2rPzRqF49xuMUTY53sH9lySIZPbt0eR0WQj6FtEBa/htDpaynRXX7+1Wq/6nDG83r12EYhteC3/f3MvIYyBdF+bDLit9mnTuxNe2ul2qBKae0RF8/qizDv/5Q8r14ZMBhEqZMaTm8b5VgbI7bShbE4BVZMLBOT1ZpaRk2rBKl5XKYV/U3X1+N/Gqk+i1v2tOy/cA2was8fNzJU7Nw5UJugHJKS8vWLbgdKdyYyZ6PvHXJqLQMGTHY+iP50AKGYfr078Obr8+NR/D4cphXu44lA/o/H/v5jRRhuxO8Vncnq7S0DBtWidLiE3avenX5XK9RX03k2oXqY9rTwutIoVfRBbgWr9xMT5a/p6Vl67bRSVncCOnxsJHy1fx465JRaRk6YnSvjwaSp+aj/oN58/VpJMoOIC0G50XDhhmvtPBkgPc2K/S6v9NBMlGk+I7lqgWVlgkjRvCuyr8RkRMR9lE3+WiaDq1a/RMcpBiAnPn600/Jg0Bjfh0W2rOLfP59s8aNz+/a6XNgn+DPruUlDciG9evT8WOQFkiLBtJS+E9IzHU3Z8c/Vvw2y3b+lK9HDyGrAJM7UlFaCl5c/2aC/Oso3qtrl/YLfpoa7ndIcNhYeaSlfr06dPEARVXYvfV3kpOL7tvJp2VKS9Dl/ybAcCM0NGkR1fCw6WV9k2dhwa5Zw6amVu7wMLcLR8ntNH/RD+o3r6m0KFvzl0rL/N/mc6Mtp7R06daFN7OfRq5aWngP71/7ttALyzw4dsmtSdMmJIavJo4xEGOJT48T4fAwTZ6aSpSWExeCyf3w0yLhPhPBdjyVlsMePoIBqLT8/Nsf3ADl7Gl5r9uHvJn9NHLV0sJ7arbvO0YvVOfAkKVFVMPDNHlqRCAteZHhqT7efk4Htv62cMG3M74Z9Xm3jh3oLHxy01K14E7Enz76S0UnyQgOattCPlX4o27dBPthyCUr5s7hxfws0L/Fv7PzeU+Ksre3zpwmsUFaIC3qSsvdmx4d2rVUdkuR84rdDrlPr40cVtLtqHjt1IkjFXc7KY+08FYu5moGmxVBTcP9yCaRScvzuyfUv5UNOmReHlujhqqv2dq1I7pCSlGJPS3OHk7klubZheqmvJFKS9PmJSvAvN/jfWXywyu4X7RvU8uSq97t+m5kcmUuF8bLG5EW/4SzBv0sqJ85DZ+aSpSWwx4+5Knh2YXqpryRSkuz5iWrxHbtYa1MfgQLbsjScuF6kvo3pkGH1PCpMXZpeREUoGw7F27bTH1peeJ7tVkj+WrgA3v2VFQaesZ+3lwSP4051cf7bYuSDbu4Sas4pjuxQFrUf6aq7pwW2atw1/1ryFLCvLuqQ/tWNjO+OrhrBVlTWFFa2KyIwpchF09t/27a6LebCKwR/r+vhr5OD+TahR6k5dyJrZAW9W99vYZ0dlZqLA0bsqtXs69ecfMDaaHNcdWbS5anp6WHdQ/vSO8eveTTWt6q9hZvhQCaAe7B1Rve3T6UjxyQrzrYrs2F4PPcTyv9WGzSouFTA2mhqqB6c8ny9LR8YN3XPzLpw17y7+zeqlbt7wMnaKJlHkBauL/kdXWs4VNj1NISevRIx9atee03hmHetmj49bBPHZYtIeO1igNQtSizp+Wpvx/ZnmVAzw8FJ9MTb1EhLa2aN18620adn1Qfb/S0aPogVF1puXp2l+mbHSeqVXvri8/6b1r907kTW2Ouu+U8DSJN/+dJ3m83kXuzoLRQIZFmhqUmXjx/cpvt/CncTpu/1tvSMGxWRHmkhWEYFRunbFz1I3loQ3ycIC2aPgD6CF9UxLZvLyAtDRqwq1bxdIXkpxKl5ZT3SXI7TZ89Tf1WeEX0tAQKJjd/UcmiTB4+7jRAZHJkl25dGIbRWlre7frutdtB8iFVl4+TNYubt2ju6X+aJsE7iEmN/tv5b7Jws3zxwMEfB8ZrsJ0LLzYdvRWVtGj+1FSitHh6R5Kn5tvZP5fZdqcBytnTYtG4SeitdBob9+CnRfYkP2d9ouj5mOTs97rJVy7SWlq6dP0g7PbTxPQij8thtWrJ98ewbNHqvH80TUL1AaRF539uNH9qjFdakrwu0h1RmjduPH30lw5LlwQeck7386WyMbBnT/IgqC8tr0KCO1vJl6J5v337rNDrtGuFd/DTlJK5xDTmf4KDrFq8I9+euEMHFRfy4oG0aPpQVFFpKcoIHdjvA/kCEdXecnNaJziHPjXxYu3aNcuUFq6ZFGWEOW5bXK2afGnwAf16cCe3lFNarl05wE2IHstehY/+XD4zsk6dWnS3GdHMaRHJ8LBDh/jG0qABu3Ily9mYhffcVqK0+Mf41apdi2GYvp/0VbYE8JkAT8sWlv2H9Hf4d+vGckpLsQZ4R14RbMqP/Gok+atTsdIydtJXJLm4tNjvfviOJNHUsqmgt8SkRk+bPY2EYRhm/LT/Gc48Fi40UUmL5k9NJUrLtZjHtWvLV235+JNPlS0BfCEg1rJFq4FDRtCtG8spLcV/m/wjkwQ9YdRX8uWPGIapWGn5etK3JLmENInNDyX7zzazbHHBP0YwG7yTkBbe7/mKf6v5U2O80vL7rJLf2/83aeKrEAG7yIkI6921ZD9HqhZl9rTkRYYP7yfvSGxQr97DK5cFHSM3Imxwb/lGLsUvGnNuRNjHH8j77WvXrJl4/qzghcpOYniY+s9CFZWWlyk+zZvJdy3t0rlt3vNg6gDcg/Mnt5GbktvT8vDW+emTR/Xs0Xlr6Y4UemFOepBVG/n+kh/26MxdVvib8SPkvZZNLJ4nedPAqg9yngYNH/IRycOCn6YJBk67e4mMTxvQr4ckI5SEgbSo/wDoPGRREduhw3/SMngw6+SkQldIfipRWmJSoz/sLff5evXr+URd5baJ6fGyDSXrnzi67iYntZaWiTNKWleefgK9HBFJEW07tCWPgI6kJT49LiThOtnURT75ckCfmw9LLV4clxY768dZJA8Mw8z9dY6mS41Rbro+EI+0aPXUVKK03E7N79n74zdPjXlgVAqvsU7e2m/YSe6ifa7nyBmtpWXyjJLx9Of9BHo5opOy2r1Zf1l30pKYXhSR8MKqXckmGH0HDIl7mCtYau5JSItu/9xo9dQYvrRM/OxN28nCIsa91DrCVBtiPdwFZeD+pQv168q/Sih+UbUoU1ryb0RsXbSQXHV00wbBmO9eOCcY8xKbkr8U3BWWeTHsWPx7G0vLgT17zv7f13TP+9x/lyzD5pJlPiNVVFr+eehr2Vy+/k/bNu8Ibtr4T4pP967yfbJ5PS0vkr2JJLzfpV32kwBFkUiJP0cWSh41oj+3A2fm1C8ZhlG9DhgvNq60NGxQPzqYv+pxUUbo7G/l64IzDHNk/2p6OaSlzPtefwFcXEqM5ZNPWD8/NdOtRGmJT49buaVk39WpNlNjn8TwmtrXE4Kt2st7z1tZtaLbKWotLcv/9Z8fFvIXK4tLi12ytmQNboZhdCct8elxuw47vPWmg5RhmKXrlnKL7HjUkawBzTDMrB9nKet94l5SWcfikRatnppKlJbE9KI1W/aSX8UzbH6886SQ21hPTC8KT3jetr28id/aqj3d+V5rafnjX/9R3OAlIU2yfO12khOdSktietGew2feqlaNpLVi3Q5ekRXfQlrU/P2vZTCtnhrDl5bpo+Vtp3p16oQddeUKwNCP+pB7L8T1CPc8OX4dHvr9uJLWUXEwjaQl6fIlC3NzhmE6W7W5deY0HWxGYs4JD/12zGj6iHFjjnE/VbumfHiOhbm526aNOeGhvIwleV2iK4zN/OorbsxkJFuXdm1fhQTzrjLAt3e2bbn09Zh7x920vFfLcVkVlZaijLBPB/Umt91PcyfmPbtGW/yyV+H+F/dQY5GPk+ndtSgjjAaw+3EquXDE0I/uRZ+m59msiHs3Pfr1kc/TrVbtrXPHS6bFkwC/zp9Crtqw8sesVP/cZ9e4SsONhB5zpUX+165lM/+Le8hVslfh96JPfzet5MkZMfSjfE5/EaSlHE9EhV4qlbIdO7IDB7K+vhrFW7nSEpkU0d1avuO1fLPh76d4hV6iLfWLIRd79SvpFl+5ZSVtnWstLeeCzprVNGMYxszMbOm6JVEpN+LT42JSo88Hn/923rfVTKo1tChZ6EKn0hL7JOariWNIkc0bmtMZ9uH3w+h+LJNnTj5/7dzlcC8VPxEPwikT/R+IRFq0fWoqV1qik7J6WJd0jE/7fv7V0Lt0nJh3SELvfp+Qu2vNlj20Na+1tFwKijerKR/DaWZWc/m67XEpOYnpRbdTCy4H3/5unm01E5OGFvJxBLqWljtPCsdOnE4SatDQ4nLwbVo0wQNIi0Z/BTQLrO1TY/jS8tOUkrbT6EGfxLifyggOInsy0qnwA617Rhxz4y5PfMvz9JjBg8idSf79acoU2vSn+7QILnlMgq3/5WdyYf06ddb/8jPtEnl89coMjrEUh+FKS15k+OJZ39N0p4z6/P7F8yTCvMjwAGenzlYlW1J2aN0q3tODZin/RsTwfvI9W01r1HDduP5lUGBGcFBORBg3gEEdQ1r+W6GYNtkr6kDZ5pLB3gfq1pVPJXwzaqvhuNGDp08e9fXoIVat5YO7GIaZPnlU395yA+ncsXXuv7Pz2ayIjIe+vT6UTwImr3ZWLYZ+0mvoJ706tG/17znml/+bXPTvYC1SkBOHNtBPSQ9PdppARw231FRa3m7ScNEvJX8bSHKtWjSjsfXo2jHtnhf3QkiLZr/udRf61i3Wx0eL6CtXWuLT4y6He9ERUwzDNG3etE//Ph27dKTdEdNnT+eOktJaWuLSYqd8X/I3iahLi9YtyKQahmGat2i+w6nka2OdSkt8epxP1FW6w/0nwz4hO9xvdtxMHzR1DpRtU6MfgRGJtGj71FSutCSmF/mG37Nq15HeJ82at/io/+BOXbrR7ohvZ//C3ZBRa2lJSJNM+34+TcjMrGbL1la13kyqIZPjHZxK9nLV0ZwW6iSBUSmdupRMGxg8bFT8I1WDxCAtWvwtUPcSbZ8aw5cW142l2k4Mw+xY/Hv+jYhHV6+0a1my+jbZC3LiZ59N/Oyzbh1LnsFe77836+tx5DH5+tNPaaNfHWnJCr0+aeR/2/HVqVWz/4cfWL/XxbSGfA/Z1pbN32tXsrkwV1ryb0RkhV6fOVa+Qyt5VXvrra4dOgzu3au1ZUnDkmGYMYMHP756heaHHNChZf9eylxy3MULYzhvIS2VIC1sVoTfhT2dOgisl9fH+v1LHjtkr8KXL5JLc40a1ePCjnOtIPOx30/zJtWuJe8H5L2sWls6O/7BnYJPLsx5GjR+bMkWqiTOlPhz3DgVjznSYvH0/pW/Ny+sX69kgCZJ1NS0xvw5EzIf+/GuhbSo+4veUMNVurTEp8ddvxM8ddZUsrIW9yZ/u9nba7ev4Q0b01pa4tPjoh/f/HXpL3X+HXxM0xo0fFDxEsN0V0pdSwvxFjqFZvVfq+LT4778n3xkgvovSEslPlKVLi3yYWB3nk+f9WPNNytrcW+bt5tZbth+kDdsTGtpSUwvuvU4z27purp163NTYRhmyPAv/W8k0V0pdS0tielFAVEpdArNur/2UZ9RPIC0VOLToSxpw5eWjOAguv08udu/HzeONN8Tzp0hHRS8p6BV82bbf1+UHXr9kuNu8lGnNm3+uVayvb060kL0Y+UP/0dHc9EkRvb/+P7FCyP79ydn1v38E88lciPCDqxa+Ym1NTEceqH8a7jGjbf+tjBbaFGyh1cu93r/PW5gh6VLeDEbzltIiw6lxWmX/YrfbbZtsONOi6et/KKM0MjAw7u3/r7id5u1K/7P9cCa5PizdODW/RjPFb/brPjdRnAL+ddpgT7ndv+9eSEJc3DXirjQY4q6QtOSZoaF+DhtWv0TCZ+acJF+JHhQ+DLEZc/KFb/bbFr9U066fCHmzMd+p45sWrl0zvaNdt5nHF4kXxW8MP2eF0mCXkiCnT76JzmfckvYlyL8XUiAYmiCMevt5LO4bbcujBfJ6mHK/lwoP28I0kI6B0LvhrieP7Jm25p5dvMW2i9wOXOIdEHwug6OXz42z27ePLt5V8Iv8z4ibwNi/UkA59NOggEiHoTvdt39y5Kff136677je0PvhpAxafTCgFh/emH045v2m1bMs5tnv2kFT59omM2Om+fZzbNbbhuR9N/+j96RV0g2djhtpyG5B8e9SgqydN2S6Mc3SSTkEnX+VVZ8bhK6OxZJT4vy50L1J4YgLaSlfuPuP8fPB63ftn++3fLf7TcdPeMv2AXhfjl0vt3y+XbLfcPvKzbxE9OLgmNTSYAjp30EA9x88Gqf6znbJWsWLF3ndNwr8u5LMiaNXhgcm0ovvPU4b9WmXfPtlq/atOvOkwJ6nnuw1dF1vt3yRcs3RCdl0fP+kUkkG7uc3OlJ7oG7V0lBVqzboWK7ycjEl6rj4capt2OXK/d/2OIrns0lVT8kCp8avrTk34jIjQgLPOT095LfyeYnzmtW0+Z7XmT47bOeRzdu2PDrL0tn2+xavjTc7SidTPLyWuDan34kV927UDJS62mAHzlzYsufNB5lB3mR4TEepxxXLFs628Zh2ZJ4Tw8yEYUuprxTuVo8C/A78/f29b/8tHS2zd9Lfg9ycc4OC1GWUP6NiOywkIu7HFbN/4Fk7+Ju9LQo3K8sK/45LXprZyOhCiQAaVl51kZ3rVvELEoCkJYftvjqrbGLhMRBANJy6esxKlrS+EiRQF5k+IAP5VseFU8fOPbnJsUAoj+DnhYd9rRUYEsaUemNAKQF0iJKr9BpoSAtkBZxiIQ+SwFpgbTwHCP06BGP7VvvXjinbCp8xvVrndqUTKm/un8f7/Kq8BbSAmkBgVIEIC2QFp2270UZOaQF0qLP5r440oK0QFp4muG0ZjXpRTm7cwfvI/L26v691d6S7yHesH79R978KfWCl4jsJKSlVINVb1/nIyGDJQBpgbSI0it0WihIC6RFHCKhz1JAWiAtPKOIOnm8RvXqDMMM6/vRYx9v3qcpV7zo0mHffP45d68VXkgRv4W0QFpAoBQBSAukRafte1FGDmmBtOizuS+OtCAtkBaeXeREhE3+fCTpbLEwrz/tyy9cN673ObDPfdtfv333XZN/tw77sMu7iefP8q6tIm8hLaUarAb79T8ypjcCkBZIiyi9QqeFgrRAWsQhEvosBaQF0qJoGk/9fccMHky8RfHfmmamq+b/kCW0crFiVKI8A2mBtIBAKQKQFkiLTtv3oowc0gJp0WdzXxxpQVogLYJekRsRdmHXzvmTJw3q1atRA3OGYerWrv1Rt64LZ357+6yn4CVV5ySkpVSDVW9f5yMhgyUAaYG0iNIrdFooSAukRRwioc9SQFogLVVHNiqqpJAWSAsIlCIAaYG06LR9L8rIIS2QFn0298WRFqQF0lJRTfmqEw+kpVSD1WC//kfG9EYA0gJpEaVX6LRQkBZIizhEQp+lgLRAWqqObFRUSSEtkBYQKEUA0gJp0Wn7XpSRQ1ogLfps7osjLUgLpKWimvJVJx5IS6kGq96+zkdCBksA0gJpEaVX6LRQkBZIizhEQp+lgLRAWqqObFRUSSEtkBYQKEUA0gJp0Wn7XpSRQ1ogLfps7osjLUgLpKWimvJVJx5IS6kGq8F+/Y+M6Y0ApAXSIkqv0GmhIC2QFnGIhD5LAWmBtFQd2aiokkJaIC0gUIoApAXSotP2vSgjh7RAWvTZ3BdHWpAWSEtFNeWrTjyQllINVr19nY+EDJYApAXSIkqv0GmhIC2QFnFc0MR/AAAgAElEQVSIhD5LAWmBtFQd2aiokkJaIC0gUIoApAXSotP2vSgjh7RAWvTZ3BdHWpAWSEtFNeWrTjyQllINVoP9+h8Z0xsBSAukRZReodNCQVogLeIQCX2WAtICaak6slFRJYW0QFpAoBQBSAukRafte1FGDmmBtOizuS+OtCAtkJaKaspXnXggLaUarHr7Oh8JGSwBSAukRZReodNCQVogLeIQCX2WAtICaak6slFRJYW0QFpAoBQBSAukRafte1FGDmmBtOizuS+OtCAtkJaKaspXnXggLaUarAb79T8ypjcCkBZIiyi9QqeFgrRAWsQhEvosBaQF0lJ1ZKOiSgppgbSAQCkCkBZIi07b96KMHNICadFnc18caUFaIC0V1ZSvOvFAWko1WPX2dT4SMlgCkBZIiyi9QqeFgrRAWsQhEvosBaQF0lJ1ZKOiSgppgbSAQCkCkBZIi07b96KMHNICadFnc18caUFaIC0V1ZSvOvFAWko1WA32639kTG8EIC2QFlF6hU4LBWmBtIhDJPRZCkgLpKXqyEZFlRTSAmkBgVIEIC2QFp2270UZOaQF0qLP5r440oK0QFoqqilfdeKBtJRqsOrt63wkZLAEIC2QFlF6hU4LBWmBtIhDJPRZCkgLpKXqyEZFlRTSAmkBgVIEIC2QFp2270UZOaQF0qLP5r440oK0QFoqqilfdeIRv7TcujAePyCgKYHnd0+wVfK18qwNfkBAOwL+CWer5EPD/rDFFz8goB2BC9eTquZTc+nrMfgBAe0I3Dvupv+nhtF1kpq2UxEeBCgBSIt2zVZcVZUJQFq0a7biqqpMANKiXbMVV1VlAuKUlud3T+AHBLQjkPMyXtdSbZjx+yecxQ8IaEcg+UWCYd7Vus7VhetJ+AEB7QjcfZSh6/vTMOO/d9wNPyCgHYGX8XH6v6t13tOi/yIhRRAAARAAARAAARAAARAAATERgLSIqTZRFhAAARAAARAAARAAARAQIQFIiwgrFUUCARAAARAAARAAARAAATERgLSIqTZRFhAAARAAARAAARAAARAQIQFIiwgrFUUCARAAARAAARAAARAAATERgLSIqTZRFhAAARAAARAAARAAARAQIQFIiwgrFUUCARAAARAAARAAARAAATERgLSIqTZRFhAAARAAARAAARAAARAQIQFIiwgrFUUCARAAARAAARAAARAAATERgLSIqTZRFhAAARAAARAAARAAARAQIQFIiwgrFUUCARAAARAAARAAARAAATERgLSIqTZRFhAAARAAARAAARAAARAQIQFIiwgrFUUCARAAARAAARAAARAAATERgLSIqTZRFhAAARAAARAAARAAARAQIQFIiwgrFUUCARAAARAAARAAARAAATERgLSIqTZRFhAAARAAARAAARAAARAQIQFIiwgrFUUCARAAARAAARAAARAAATERgLSIqTZRFhAAARAAARAAARAAARAQIQFIiwgrFUUCARAAARAAARAAARAAATERgLSIqTZRFhAAARAAARAAARAAARAQIQFIiwgrFUUCARAAARAAARAAARAAATERgLSIqTZRFhAAARAAARAAARAAARAQIQFIiwgrFUUCARAAARAAARAAARAAATERgLSIqTZRFhAAARAAARAAARAAARAQIQFIiwgrFUUCARAAARAAARAAARAAATERgLSIqTZRFhAAARAAARAAARAAARAQIQFIiwgrFUUCARAAARAAARAAARAAATERgLSIqTZRFhAAARAAARAAARAAARAQIQFIiwgrFUUCARAAARAAARAAARAAATERgLSIqTZRFhAAARAAARAAARAAARAQIQFIiwgrFUUCARAAARAAARAAARAAATERgLSIqTZRFhAAARAAARAAARAAARAQIQFIiwgrFUUCARAAARAAARAAARAAATERgLSIqTZRFhAAARAAARAAARAAARAQIQFIiwgrFUUCARAAARAAARAAARAAATERgLSIqTZRFhAAARAAARAAARAAARAQIQFIiwgrFUUCARAAARAAARAAARAAATERgLSIqTZRFhAAARAAARAAARAAARAQIQFIiwgrFUUCARAAARAAARAAARAAATERgLSIqTZRFhAAARAAARAAARAAARAQIQFIiwgrFUUCAbESePEk45rnDb8TYVr/+J8Kjw64I5PJxIoI5QIBEAABEAABURKAtIiyWlEoEBAngSCPCAdb13L+OC5yy3udL05AKBUIgAAIgAAIiJQApEWkFYtigYAYCfifDCPGcma3z/m9fhr9XNgfcPIvr10Lju5ecDQ3G9IixvsDZQIBEAABEBAvAUiLeOsWJQMB0REg0uK46FhieEpKfJqmP/dvPNq/7CSkRXT3BQoEAiAAAiAgfgKQFvHXMUoIAqIhQKUlISxZU2NJiU9Lik49sPwUpEU09wMKAgIgAAIgUHUIQFqqTl2jpCBg9AQgLUZfhSgACIAACIAACGhFANKiFTZcBAIgUBkEIC2VQR1pggAIgAAIgEDlE4C0VH4dIAcgAAJqEoC0qAkKwUAABEAABEBAZAQgLSKrUBQHBMRMANIi5tpF2UAABEAABEBAOQFIi3I2+AQEQMDACEBaDKxCkB0QAAEQAAEQ0BMBSIueQCMZEACB8hOAtJSfIWIAARAAARAAAWMkAGkxxlpDnkGgihKAtFTRikexQQAEQAAEqjwBSEuVvwUAAASMhwCkxXjqCjkFARAAARAAgYokAGmpSJqICwRAQKcEIC06xYvIQQAEQAAEQMBgCUBaDLZqkDEQAAE+AUgLnwjegwAIgAAIgEDVIABpqRr1jFKCgCgIQFoMsBpfvXrl7u6emZlpgHlDliiBxMTEoKCg4ODggoICepJ3kJ6evn379uzsbN55vK1cApGRkfb29tu3b5dIJHrISVFR0bp164a+eaWlpVVgikVFRblvXjotSFhY2IwZM5YvX15UVFSBmUdUhkAA0mIItYA8gAAIqEUA0qIWJv0GunjxIsMw1atXDw4O1m/KSE0DAitXrmQYpmnTpi9evBC8LCcnZ9iwYQzDvPfee69evRIMg5OVQmDPnj0Mw7Rr1y43N1e7DHh5eSUnJ6t5rUQimT17NvPm9fDhQzWvUidYUFAQiXbPnj3qhNcujIeHB8MwPXv21KkaaZc3XFVOApCWcgLE5SAAAvojAGnRH+s3KclksjJTXL16NcMwFhYW6enpZQZGgMoiUKa07Nu3jzQo161bV1mZRLqCBMopLdHR0TVr1hw6dKhUKhWMn3cS0sIDgreGQwDSYjh1gZyAAAiUQQDSUgagCv04NTV1xIgRUVFRKmKVSqVDhgxhGGbAgAEYjKECVKV/pEJapFKpu7u7paUlwzBDhw5FN0ulVxYvA+WUlunTp1MdpV9D5Obmbt++3V7otXz58p49e5JLfvnlF6EgJec0vVXQ08KrWbzVlACkRVNiCA8CIFBpBCAt6qB/9OiRq6sraVa4uro+fvxYnat4YfLz8/v168cwjKWlZXx8PO9T+vb+/ft16tRhGGbnzp30pCgPPD097e3tN2/ezB2iI5FISMvv2LFjBl5qZdIilUoXLFhAWqh169bdvHmzS1mvoKAgTQt77949Nb/m1zRmgwqvo2KWU1r++ecfa2trhmFMTEy2bt1KiL148aJdu3ak3rX+lzt4rKCgwM7Obsabl7IhiOpIy7Zt28o5IwXDwwzqoajYzEBaKpYnYgMBENAhAUiLarj379//8ssveU0QExOT0aNHJyQkqL5W8dPg4GALCwuGYVq3bv3gwQPFACzLbtmyhWGYevXqqT9iXjAewz85c+ZMxTkhubm5pOU3duxYAywC1xMEpaWgoGDevHm8G6bMtzNnzlS/sNnZ2UuWLBkwYIC4Jxg8efJEi2LKZLLw8PCgsl6LFi1iGOadd965evWq6rAhISGCHZ4PHjxo3bo18ZZ9+/axLFvhPS30WWAYhisz3FtFHWkZO3asshkpXC8idiT4L+n7bdSo0bRp0wQD8E6mpKRwM4ljQyYAaTHk2kHeQAAEShGAtJTCUfpNRERE06ZNSYvT3Nx8wIABQ4cObd68OTljYWGhxUT5s2fPmpmZMQzTtWtXxSkrBQUFH3zwAcMwrVq1WrFihYphJNyPnJycSmfcON4Zl7Tk5eWtXbu2T58+dACPorS8fPnyq6++YhjGzMysf//+Q8t6kbpmGMbGxkbNOsvPzx84cKCyNqiakRh+sEuXLpmammpRTIlEQgdilemK6gRQMVk/OjqafAfRpEmTR48eqaCq3ZwWPUgLNwl1aKgZJiYmRgUNfGRQBCAtBlUdyAwIgIAqApAWZXQyMjI6d+5MGqBbtmyhy9pKpVI3N7f69esTtXj69KmyGJSdJ30pDMMMGzbs9evX3GBeXl5qNgu4wQYNGsSNxFiOjUtakpOTGzVqxDDMhg0bCGGetNy8ebNTp04Mw9SvX//UqVNl1kJSUlLXrl0ZhmnUqNHt27fLDE8C5Obmkka5uJdyIuORyiMtZmZmbZW/GjduTBbos7KyUhaqWbNmZa4w5uzs3KpVq9DQUFI7Uqn09OnTioMBnZycSGcFwzDbtm1TDEDO8Madco1CRz0tdDQm90sQxeOJEycyDNO8efPly5crfqp4Rovfimre/whW4QQgLRWOFBGCAAjoigCkRRlZqharV69WDHPo0CGiDRs3blT8VPUZqVQ6d+5ccvmECROot0il0s8//5xhmBYtWvCGWwi+JcvpkqneqlM0zE+NS1pYliVjipo1a0a22qDS8uzZs23btpGZSC1btiRN2IKCgrCwMGXkr169Sqbp169f39/fX1kwxfOQFkUm3DO0p0W11Kkzp4WIk4qeFpZlZTIZdz8lmjr3OwX1j3l3gh6khYuuqKgoMjKSe4Yeq57TkpqaGh4eTgPjwLgIQFqMq76QWxCo0gQgLYLVL5FIPvroIzLq/Z9//lEMk5mZ+c4775A1vrjzHBRDCp6hO3gMHjz4/v37JExISAgZEuPo6Ch4Fe/k/PnzSXtoy5YtvI+M4q3RScvDhw8bNGjAMMyiRYtYlqXS8uLFC2dnZxMTkyFDhjx58oRl2cjIyA8//NDExGTZsmW8mSfXrl0bOXJk9erVyXyea9euaVRZkBbVuKg26EdaeJmRSqXbtm1bqPCys7Pr0aMHeVrnzp2r8HnJCfqrgESrT2nJzs6ePHmymZnZkSNHeIViWVaFtOTm5g4bNqxOnTqOjo50ITXFGHDGYAlAWgy2apAxEAABPgFIC5/Im/fF61mtWLFi+PDh33zzjWAA2jbq3LlzXl6eYBjVJ1NSUr777ju6V3pRURGZ8d+6dWv63W1ubu748ePbtm3bv39/7hJbLMu+fPmyVatWmk7ZJwt27dmzh7akExIS9u7da29v7+TkpDh99tWrV+7u7qtWrdq+fXt4eHiZeiaRSG7fvn3kyJFVq1bZ29s7OjoGBQXRkXU8IFpLS15enq+vb3FXmL29/b59+2JjYwWnSvOSY1k2MzOzeE7R+vXrV61adfz4cdXzEBQvZ1n2xx9/LB7h06BBg+TkZK60yGQyLy8vWtIHDx7MnDmzVq1aDMOMGzeOVOiTJ0/mzJlDdIXorrLFGASTvn37tr29/ZIlS8isKjpWR3CZNalUyquI8+fPKysvuSvs7e3J2g8JCQlb3rwEazw/P9/b23vz5s2rV68+d+5cTk4OyS3ZY563Fhy3IDKZLC4u7sCBA/b29lu2bPH396ezg7jBSDHJeCTukCTBYnIvJMf0wawUaVHMD82VFptL6lNa6NcoZmZmZ8+e5RVEmbTIZLLFixcTGZs9ezb9rcK7HG8NmQCkxZBrB3kDARAoRQDSUgqH2m9evXpFnKFPnz5qtphVx3316lUTE5NiCeF2m7x+/Xro0KEMwyiqkaOjI2krTJw4UXXM3E+JJ/Ts2TM3N/fhw4dkNBqJh6yDNG/ePGJHEolkw4YN9erVo5+SCQaJiYncCOlxVFTUqFGjatasyQ1Pji0sLNatW0cb9PQSLaTl1atXCxcuNDc356Vibm4+Y8YMZY1ylmVTUlKmTZtGlkDgXvv+++87ODioX4MJCQl16tSxsLDw9vbmSgstFPcgMDCQCEavXr3mz59PYVpaWm7YsKGwsJAbuMxj0nDkZp4c85ZZy8/P37hxY4sWLRRDMgwzePDg6OhoXlqkIhiG8fPzW7duHdUqhmF+/vlnGlgikfz5559kNgiNvGHDhjY2Nnfv3iUDrpo2bSq4OO/p06e7dOlCr6IHgwcP5g1JUrOYNFe8A11LS1BQkEvpV1xcHMuyDx8+VLEKmZ+fH1mhoXgFDnd3dxUhSWykUPqUFpZl09PTO3ToQCZl/f3339z7U5m07Ny5k/zWGjZsGNVXXo3grYETgLQYeAUheyAAAv8RgLT8x0KToxs3bpCG16RJkzS5TmnYL774gmGYunXrclc6fvHiRbdu3RSnI8tkMrKEFMMwHh4eSiNV+IBKy7Nnz/r370/bjtwDsn7rwYMHuSfp8dChQxW/T3306BFdZo2G5B2QaLk50lRaioqKxowZw4uW+9ba2prXH0WSy8rKEmwx02sPHz7MzZiKY5lMNmnSJLI4UpnSwrLsxYsXaSrkgDuLSUVCih+p2ZpfsmQJL0Xe206dOtFpVCQVKi07duwgAxTpJdwv3ffv30/P8w6sra137NihuIA1iV8RAvfyRo0aJSUl0fKqWUwannega2mhrGgR9uzZw7IscTZ6UusDroLqWVroMDCSee4vFkFpSU5OJl8fmJubK/sug1c7eGuABCAtBlgpyBIIgIAwAUiLMBeVZwsKCiZMmED+tLu7u6sMq9aH9+/fJ5Mlxo8fzx0XnpaWRmSgV69eXFW4ffs2mfbdo0ePZ8+eqZXGm0DUEwYMGMAwjIWFxa+//urs7Lxt27aPP/6YlKh79+7Hjh2ztLSsXr361KlTd+/evXfv3gkTJpCvVM3MzPbv38/NpEQimTRpErnW0tLyxx9/PHnyZFBQ0OXLl9esWUO+uyWdRbwlnmlmuN/N04Yat/VGCkiXRqhVq9bs2bM9PDwCAwP37dtHOqNIBubNm8cbw1ZYWEiXPXj77bcXL1588eJFX1/ftWvX0u4IS0tLFb00PLz5+fnkjAppkUqlSUlJe/bsGTRoEMkYwzAdOnQ4ePAg9wtsXsyq32ZnZyclJd25c4esOda1a9d79+4lJSVRqhKJxMHBgfTn1KtXj1cRgwcPpl0o+/fv56ZFG+LNmzc3MTGZM2eOt7e3u7v7nDlzXr58SULGx8eTxdMYhhk7duyJEycCAgL+/vtvumoz6Xjk9bTIZDIfHx+y5ADDMCNHjty3b19gYODp06d/+uknep77PT0pJnUAxWJyc654LFZpUbbmWPFyXuQGmzlzZukeoP/e9erVS/GLD0V0LMsWFBSMGDGCRNihQwf6u0VRWnJyckjfkYmJiei3wRVkJZqTkBbRVCUKAgLiJwBp0aiOs7KyTp069eGHH5K/6zNmzOC6hEZR8QLfuHGjX79+sbGx3PPF4/tJQm3atMnKyqIfkW/TGzVqpOmiPbR5yjBMjx49UlNTaZx5eXn9+vUjyZF1eHnbtG/cuJF82qJFC9pQZlnW19eXnB83bhw3kyTm7OzsTz75hARYsmQJ1yjUlxapVOro6EgGd1laWt64cYNmm6zgFBIS0r17d5KKm5sb/bSgoGDhwoVEt7p3784tL8uyaWlpdIDc3Llz6VVqHihKy8uXL93d3efOnUsWaSD5IYOyTp8+zR2E5uTkZG9v7+npqWZaNJiKifi0ImrXrs1bh4pc7uHhQVAMGDBAsSJIbgXXysvLyyNmaGJisnfvXpoZlmXz8/P37NlDfYYnLd7e3qTrxszMzNnZmXshaSLTNvfixYu5n9L+FtVTU7iXkGMqLRR+OQ94q4dxh4eR7jvS05KZmZlUES/uk0UFvpxFIJerSTI9Pb1du3bm5uZbtmyhN4mitCQlJZEFvtetW8f9CkOxRnDGwAlAWgy8gpA9EACB/whAWv5jofKILHdLWw/16tUTnKehMo5SH+bn50+YMIHu8EAa36VCsOyFCxdoihEREdxP79y5c/LkSe4ZdY6ptJiamirujEnXcWYYZtOmTbwI09PT6WQSbrZnzJjBMEytWrXi4+N5l5C3p06dIqUYPnw4d/iW+tISFRVVt25dMuvGy8tLMJX4+HiyeU7Xrl3p0giBgYEk6Tp16vCEkETy+vVromqtWrWi6x8Ixq94kist6enp1tbWtLLIQceOHVesWHHv3j3Fa0kPzMyZMxU/Un1GhbSQimAYZvr06YKRFBYWEt/mNcTpXdGoUSNuo5lEIpPJ/vrrL2I7c+bMEWyhHjlyhBSZKy1SqZR2gi1YsEAwSxKJhKBo2rQp/V6fO05JzaY2jVzX0kITYlmW5JxIC/d8RR1XirSwLBsTE8PbFkZRWliWff78uYuLi+D9UFEEEI8eCEBa9AAZSYAACFQMAUiLmhzpcka0Ydq7d28PDw+t/2afP3+e7Fw5ceJEOgiHl5niNbhocmvXruV9qsVb2jydOnWq4sz44OBgmpzidofcJhT3i/z09HQ/Pz83NzduTwI3b2FhYSTa/v37c7ti1JeWFStWkBj69Omjomtr6tSpJFhUVBTJwC+//ELOfP7559wscY+DgoIuXbr08OFDjapSJpMtXbqUO4tj2rRpDMOYm5tPnDjRzc0tNTVVRYS6kJb09PSwsLATJ05wJ3NzS8qyLOlZatWqlWJFMAzz8ccf0y/X6YUPHz4kYxRNTEwUJ/GTYDk5Oe+++y6XBsuy9+/fJ+unmZqaJiQk0Ah5B1SVz5w5Qz8qf0/LBx98kJWVlavktXPnToZh2rZt+/LlSyVBco8dO6Z6c0lBaYmPj1e2W6Xq87ydJSkK1QdBQUHkDlfhTmPHjlUcHhYZGTlU7Rfpxqxfv/6QIUPUvMjGxkbZLwTVJcKneiYAadEzcCQHAiCgPQFIi5rsjh07dvLkycDAQA8Pj9mzZ5PWGMMwdnZ2iu28MuOUSCRk0JSZmZmjo6OyGD777DPSImEYRnV7vcwUSQAqLYJbwcTExJDkrK2tFXen4X6HzZUW1UmnpaWtX7+eRNutWzfu9BX1pWXkyJEkhl9//VVFcocPHybByEgkmUxGR6Zx12RTEYP6Hzk7O5OBT7Rv4f79+2FhYSqcihu5LqSFG7/icU5OzvXr18l8GJpnEozeFZMnT1a80MvLi1Dt1KkTt6OMF5LM8uLGXLySMrnQ0tLyypUrypbMovP7ly1bRuMsv7So7qIhc2Z4PU40dXJA8qAijKC00IeIlF39f3mdG7zMKHurjrTk5+fn5ubS7kcSlb+/v/p50yKkav7KioPz+icAadE/c6QIAiCgJQFIi3bgoqOjyTRiExOTc+fOaRoJXeD422+/VWYsL168aNKkCcMw7du3t7S0NDEx4S0Oq2mixQuz0uZpYGCg4uW0vcUbx0VCliktOTk5MTExp06dWrVq1fz58z///PO3336b29zRTlokEgkdeaXi62SWZQMCAkhyZGJGfn7+e++9R85UyHoJlNi5c+eotZJmekhIyEJNXmTaeteuXbkXkY0paSqCByqGh9HwMpksKSlJRUVw1YJ7VwgOVyvexocw7Nevn7J7lWVZ0ivIjXnbtm3c2i/zeNq0abQIIpCWxMREZX043PN0GUDdSQulyj14/Pixi3qvb7/9ltZd586dnZyc1Lnu9OnTKu4Wbk5wXLkEIC2Vyx+pgwAIaEAA0qIBrNJB3d3dyd/yESNGaDQQQiKRfPrpp2SPQt4e2NwUTpw4QeJfsWIFGfj03XffcQNocUylhTfJnkSltbSkpKTMmDFDcRcUhmGqV69Ovt0vXp1Za2np2bMnQXHq1CkVpY6OjibBiLRwx7Nx129VEYM6HwUGBpLJMyQt0kynq12Rk9r9S1ZSVp0H1dIikUgOHTrUuXNnwQy0aNGC7LLCVYsypWXt2rUktkGDBqnI2+rVq3nDw8gZwZwInhw/fjyNXwTSoqaEkO4ahmEUw69du3bGm9etW7coGd6BOj0tLMuSqLQYYnrq1Cm6vxCptcWLF2u9Ah4v83hrCAQgLYZQC8gDCICAWgQgLWphEgqUlZXVpk0bhmFatWql0Xh02s2yaNEioYjl5+gEZVNT06ioKD8/v+J9J+vVq3fnzh1ll6hzXhfSEhMTw92kxczMrGfPnsWWZW9vf/HixVevXtGBKFpLi5o9LYQSwzAbNmxgWTYvL4823yuqpyUkJISslGVtbU2mOREBMISelpiYGLKrD2lc8iriyZMnMpmMNJE1kha6jWnfvn1VfHeu2NNCl6hW3UUjeN+KQFrGjx9PlEP1v2T7UUFpoT6jYjSmmtJColKtnbyKkMlk27dvNzMza9KkCVnkrX379qRfqHfv3rwV/HjX4q0REYC0GFFlIasgUNUJQFq0vgPocKmmTZuq7xKFhYXkD7+lpaXiSk00M1yxkUgkBQUFpOE+efJkFQ1HermygwqXloKCgr59+5JW8pw5c6Kjo+k2JjQP5ZQWlmXVnNPi4uJCckI2i5RKpXQRZxVzWpKTk48ePXrz5s3s7GyaZ8GD0NBQMmDPysoqKSmJu3oYN3xRUdG2bdsCAgL0ORGfWxEtW7Y8c+aMYkXQBa80kha6hF27du14u1JySz158mReT8vRo0dJdfAW7OZepey4/NJCN3hJEnqtW7eOYZjWrVvfvn1b6HP5uTLnvRAT4A1ZpN2VpOzq/6vY01KJ0vL8+fM5c+aQrZyCg4NJdfTs2fPRo0ek47Rhw4aquz2V1SzOGxoBSIuh1QjyAwIgoJQApEUQzcuXLw8fPjx+/HgVe6UXFhaSnfWaN29+9+5dwXgUT0ZERJB2zKxZsxQ/pWe++OILhmGsrKzoPAcy2MbU1FR9QaKx0SKZGWcAABliSURBVIMKl5YHDx6Q+ehdunThzfSlidIlj7XraWFZdt68eQTa8OHDabSKB3StMDpj5+uvvyYXTp06VTE8OePm5kbCnD9/XlkYlmVfv35N9uUoHudGBpspkxbSNVG3bt3r168ri5C0RwXnkCi7hJxXNjyMVkTxbXPo0CHBSOgdq5G0xMXFET6mpqaKDWuSUFFR0UcffcSTluvXr5MLGYZRMcBJMKvllxaadDkPtJ6If+LECV81XnTTJ0W2lSUtCQkJHTt2JNwcHBzoCtRkbn1gYCBZf9zU1FRFF5BgteKkARKAtBhgpSBLIAACwgQgLYJcQkJCyN/s2bNnCwZgWTY9PZ2MFOrRo0dOTo6yYLzz5PtLU1PTsLAw3kf0bWRkJBlH/vPPP9OTd+/eJVMpVMzdp4GVHVS4tNDRKYILT5FsLFiwgMDUWlqoVzRt2jQtLU2wdHl5ecQh69evT0frbd++nST9/vvvK1v5au7cuQzDqF6Wl2VZOh99woQJZEy/MmlZvHgxSbR79+7KOtO0lhaJREK6j3irM9GKYBgmMTFRENHjx4/JTjsaSUtWVhaZgsUwjLKtgR4+fKgY87Nnz8gUmuKVoLdu3SqYJZZld+/ebWVlNWLEiMuXL9MwdMkyXjFpAGUHtP+TVEH5/9VaWhQlRDDP1EwUw9OPVLgBrXdehw8vLRKVOsPDgoKC2rVrR7jZ2NiQhdFpT4tEIpHJZIGBgWSJi8aNGx8/flxFjyIvG3hrgAQgLQZYKcgSCICAMAFIiyCXjIwMsql548aNaQuYF3LDhg3kT7uKqSm8S6KiomrXrs0wzMSJE5X9pc/IyOjRowfDMJaWlrSbhcSzbNkykuKBAwd4Mav5tsKlhW7tMmbMGME8REdHW1hYkGxrLS2ZmZl08eLZs2crLnsgk8k2b95MUuHqU3JyMpl3xDCM4irPMpnMy8uLmOfQoUNVj7t7/fp17969ra2tMzIySEmVSYtEIpk9ezbJzMCBA2l4Lh+tpYUO8Xr//fe5O+3QimAYhm5Tw02xoKCA5kojaWFZ9saNG0Q/unTporgWdmFh4ffff0/Ky4t51qxZ5Hzjxo0FN/d88uQJWUitTp063L1c6JBCXjG5JRI8ptLSvHnz4pkY9kpepCezYcOGS5YsURLEnsxZ0khaCgoK6PCw8q8epmdpycvLW7x4cfXq1YnD//HHH/RB40oLwZ6enj5gwABSuePGjUtOThasDpw0fAKQFsOvI+QQBECghACkRdmtQLYOZBhm7NixirMd3Nzc6tSpQ8bDPHr0SFkk3POFhYXDhg0r3my+du3aytaJys/PHz9+PNn63c3NjXs5y7JZWVlkpnW9evUuXLjA+1SdtxUuLS9evCCz8M3MzFxcXGgrh2XZwsLCgwcPclc95vWTkMzwmrl0ya+xY8dyS5Samkqn43/zzTfUJGUyWUBAwGeffUa2bG/cuDFvB/obN260bNmS7OO5adMmOobt9evXixcvJmPbzMzMAgICuMkJHsfHxyclJdGPlEkLy7I5OTlLly4ly6mNHz9ecXpJeaSFzPAxMzM7efJkTk4OiZxWBMMwgwcP5vZHkYp4//33SROTYZg6depwA9C7QsVwtT///JNc3qdPH7p5pUwmu3DhAq0X3vAwlmUfPXpEP7W0tDx58iS9Q7Kyso4fP05H3P3yyy8ULMuyoaGhJDleMblhBI+ptKjuoilzvgodE6WmtNy9e3fWrFkbN26k0kJpq3lQuT0tgYGBnTp1Iln94osv4uPjuXgVpYXc5KTfmGGYWrVqLViw4Pnz59yrcGwUBCAtRlFNyCQIgICcAKRF2X3w+vXrwYMHk7/iHTt23Lhx49WrV4OCgpydnb/44gvSRNZIHujO39OnTxdMND8/f8aMGSTFuXPnCn7xHxUVRQaJaZQ0TY42TytwyeOtW7fSZlmjRo0+++yzGTNmjBo1qkGDBqQ1s2zZMrpEEndug0bSwrJscnIybVeZmJh079596NChREhIBpo2bSo4jSQkJISub1a3bt3+b15kXD5ZlHnnzp0UkfoHKqSFREKWz2rcuHF4eDgv2vJIy4oVKyhwhmE++eQT0mvHrYhatWrxKoLsT0rGwvEmmdC7QoW0FBYWTpkyhab77rvvcuFbWVkJbltJ5gLZ2NjQCxs1ajRo0KC+ffvSjW4Yhhk3bhxvgOWzZ8/oym/kWlpMHkneW6lUevr0aRcXF9X7hKgjLffv33dxcTl+/LiyDUNJJe7evXv//v0NGzZkGMbGxoZKS//+/dXZPJ72Q1aWtCQnJ8+YMYP8QjMzM1u1apVieQWlhWVZmUzm5uZGBwGam5svWrTo5s2bVE15tYO3BkgA0mKAlYIsgQAICBOAtAhzeXP25cuXpN+DNrm4B23atKETvlVEQj7KyMggI8Vr164tOE7m5cuXX375JYl/xIgRvDYcN35nZ2cyhKNWrVpz587lDSHjhlQ8ps3TCpQWmUzm6OhI214UUfXq1f/3v//duXNHKpXSgS4HDx6kudJUWliWzcjIsLW1JX1cNKHiKRPm5uY2NjYqUKSkpEycOJFwoxeamZkNHz7c29ubZkmjgzKlpbCwcMGCBdxRTzT+8kjL06dP+/TpQ0vRvn17crfIZLKgoCC60hoNQCriypUrhYWFPj4+5LxiRRSvuqtCWliWLSgoWLduHZm7QiNv3Ljxzz///PjxYzLg6p133lEcDieTyVxcXHgSQmKwtLTcuXOn4L4fMTExgsWkDMtzoI60qI5fIpH06tWLYRiyoFzxQts1a9bcvHkzlRZFCRGMkD4aiuHpRzqa05KUlLRs2TK6DUunTp2Cg4MFM6lMWkjg1NRUuuIFqdY2bdqsXr1acSShYOQ4WbkEIC2Vyx+pgwAIaEAA0qIalkwmu3r16syZMzt06ECbWWPGjNm/f78KrxCMMy4url+/foLdLJGRkbQPYfDgwZmZmYIx0JM7duwg34wyDNOiRYurV6/Sj1QfeHp6khH8ii0klmWfPn1KPnVxcVH8tlUqlRY39UgAxSHseXl53t7e+/bts7e337hx49mzZ7lNFl9fXxozzSHJzObNm7lT5CUSSfHseXt7+2PHjtGQvIOcnBxvb+/ifgx7e/sDBw7cvn1bsFeKd1XxKmTPnj3z8PBYv3796tWrPT09X758qRhG/TNlSouyqAoKCkhzXLUkKLucbOPj7e29fv16e3v7DRs28FYifvDgweHDhwUrIicnZ+PGjfb29i4uLjR+eld4enrSk8oOcnJyLl26tHHjxvXr11+8eJEOtyMtbBWDqWQy2e3bt52cnOzt7devX+/u7p6YmKh4m3HTlUgkKorJDanpcfmlJT4+nsxPI4M5bW1tyYg77aTF1NSUjnikZaHSsnPnziAlr927d5PfS4sWLVISRH6arFHGnYhffBuQC0lno52dneIgWJoT1dJCgnl7e9OhgAzDjBo1StBFaZw4MBACkBYDqQhkAwRAoGwCkJayGVVciMLCQt6w78jIyHHjxtGhMuPGjXv16lWZCcpkMq63mJiYzJ0798WLF2VeiAAVSEBNaXnw4EFAQMDdu3eTk5Ozs7NjYmKmTJlCnHPp0qUVmJ9KjEoqlZLtevr06WMUQ4PKLy10jQHetwYqpEUmk6WlpeXm5pJpSDKZLDg4mHRRCvZQUWmhdlHOA660ZGRkzJw508TE5OOPPxZcuYF7O6kjLSzLSqXSkydPjhkzpkOHDqmpqdwYcGywBCAtBls1yBgIgACfAKSFT0Rf76VS6YIFC+iAJRMTk2XLlqn+4pmXtSNHjtCpGtbW1uXsN+BFjrdlElBTWsLDwwXbmqqXvS4zdb0FyM3NHT16dK9evb777ruUlBTBdOny3998841gAEM7WX5pSUxMbNSo0fjx4589e8YtnQpp4e52yrslxo4dq7icoE6lhSyV4evrq04vpZrSQjmgj4WiMPwDSIvh1xFyCAIgUEIA0lKJt0JgYCAZUN6mTRvuJhXqZykzM9PW1rZly5YPHjxQ/yqErBACakrL8+fP6Uxl2lStU6fOpk2bFNupFZKxio1EKpUWrwtMcr5582bByOli3IpL3gmGr/ST5ZcWlmUFZ5yrkBaWZena0PROsLCwsLGxEbTB/Pz83Ap6DRw4kGEYbk+LRlWgqbRoFDkCVy4BSEvl8kfqIAACGhCAtGgASwdBJ02a1K9fv3IOpRCc2a+DzCLKUgTUlJaCgoKtW7eu57yOHDnC+3q+VLyG9yY0NJQstta2bVve+EaZTHbkyJGaNWsyDNO4cWNlm2kaWpkqRFoEC6VaWu7evevLeUVFRXE32xGMsEJOhoeH+/r6Kq5ip2bkkBY1QRljMEiLMdYa8gwCVZQApKVyK/7FixcYSlG5VaB16qGhoS4uLkePHqWT0bWOysAvlEgkU6dOJZ0D3bp127hxo6+vb0BAwN69e8miYeQjI5qi8/Dhw6CgoJCQEKOYgVPpt0d2dnZSUpKaG1JVem6RAY0IQFo0woXAIAAClUkA0lKZ9JE2CBgJgczMzHHjxtFBTbyDWrVqrVu3Tp3ZEUZSXGQTBKoKAUhLValplBMEREAA0iKCSkQRQEAPBGQymbe398yZM7t06UIWkGjXrt3EiRP//PNPTKnSA38kAQK6IABp0QVVxAkCIKATApAWnWBFpCAAAiAAAiBg8AQgLQZfRcggCIDAvwQgLf+SwP8gAAIgAAIgULUIQFqqVn2jtCBg1AQgLUZdfcg8CIAACIAACGhNANKiNTpcCAIgoG8CkBZ9E0d6IAACIAACIGAYBCAthlEPyAUIgIAaBCAtakBCEBAAARAAARAQIQFIiwgrFUUCAbESgLSItWZRLhAAARAAARBQTQDSopoPPgUBEDAgApAWA6oMZAUEQAAEQAAE9EgA0qJH2EgKBECgfAQgLeXjh6tBAARAAARAwFgJQFqMteaQbxCoggQgLVWw0lFkEAABEAABEGBZFtKC2wAEQMBoCEBajKaqkFEQAAEQAAEQqFACkJYKxYnIQAAEdEkA0qJLuogbBEAABEAABAyXAKTFcOsGOQMBEOARCPSIcLB1dVx0LCEsOSU+TdOfpOjUA8tP7V5wND+ngBcz3oIACIAACIAACBgyAUiLIdcO8gYC4iHw9MmzaL87kVdiIy5r+XPDO/bkVq/yS4uDnWuY102tsxFxOTbySuy9qIfiqRuUBARAAARAAAQMngCkxeCrCBkEAVEQkBRKTvx10cHWtfw/excfTwjXsqdl/9KT5c+Ag53rvegUUVQLCgECIAACIAACxkEA0mIc9YRcgoAICLx+meP8hwfpKvFyvhboHhl8JkrTnyCPGze8byXHPtF0bBgJH3IuWtMU5eE9o/xPhp/46xIRnovHr4qgOlAEEAABEAABEDAiApAWI6osZBUEjJ7ArWuJpN0f6B6pnXVU1lXJcU9OvRmc5rzSQ1okNfqaQAFAAARAAARAwKgIQFqMqrqQWRAwcgJFRVL3HZeJt1w/e7OyDETTdO/ffHR+n7+DrevuhW4YGGbk9yCyDwIgAAIgYJQEIC1GWW3INAgYL4HXmTmHVp12sHXd+/vx2MC7mvqD/sMnxz05s8uHiFbklTjjJY+cgwAIgAAIgIDxEoC0GG/dIecgYKwEXqT+s3/5KQdb14Mr3BMjUvTvIRql6HM0lBjLZZdrxkoc+QYBEAABEAABIycAaTHyCkT2QcA4CeRm5x3/U76Y2LHNFx5Ep2pkEfoMHH4p1sHOdfeCo1eOBBfmS4wTNnINAiAAAiAAAkZPANJi9FWIAoCAkRLIysg+aO/uYOt68UCgPj1E/bRuBd/ft+SEg61riEeUkUJGtkEABEAABEBAHAQgLeKoR5QCBIySwJOkZ7sXujnYuhrgYmL3ox4dWimfe3P+gJ9MKjNKvsg0CIAACIAACIiFAKRFLDWJcoCAcRKIu5a4y+7orgVHo67eVr8PRNchk2JTyQLHbpvO5+cWGCda5BoEQAAEQAAExEMA0iKeukRJQMBICfifCHewdd2/7OSd0CRd24ia8V8+FCTP0tITTx6mGylVZBsEQAAEQAAExEQA0iKm2kRZQMAoCRRJijwdvB1sXY+sO3v/5iM1vUJ3wYI9o3bJJ9+7PryTZpRAkWkQAAEQAAEQEB0BSIvoqhQFAgEjJJD5PGuX3VEHW1e/42G6sxF1Yn4Qk7p3sXzyvfeRYCMEiSyDAAiAAAiAgDgJQFrEWa8oFQgYHYH4w3cdbF33LT5x6/oDdexCR2Eu7A+QbyBj756V+droGCLDIAACIAACICBWApAWsdYsygUCRkZAWiQ9v8/Xwdb18BrP2yGV4y2B7pEOtq57fjv25P5TI8OH7IIACIAACICAqAlAWkRdvSgcCBgVgfycgqMbzr2ZAX/ypu8dHfWlCEabHPfE73g4WX85NijRqLAhsyAAAiAAAiAgfgKQFvHXMUoIAkZEIPPp6wPLThJvuROmv8XELh+65mDrKt8x5mSoEeFCVkEABEAABECgihCAtFSRikYxQcBoCCTfSt37Zh961/Xn7kXpYzGx62dvkmUAzuz2kRQWGQ0pZBQEQAAEQAAEqgwBSEuVqWoUFASMh8CLJxkuazwdbF09Ha4KjuaqwJMxAYl7fjtG0srNzjMeSMgpCIAACIAACFQhApCWKlTZKCoIGBGBF08y973pb/FxC61AReFFlRiRcnCFu3yBY9frRgQHWQUBEAABEACBqkYA0lLVahzlBQGjIXA3Knn3QrddC46GXYrlyUaFvH0Q/fjY5gsOtq7uO64U5kuMhgsyCgIgAAIgAAJVjwCkperVOUoMAsZDIPJ8rIOt697FJ+KD71eIqHAjObfHz8HW1XnV6YK8QuNBgpyCAAiAAAiAQFUkAGmpirWOMoOAsRCQSmWHVp2Wd4Zsu8L1jfIfx/gnkuXCYiNuGQsN5BMEQAAEQAAEqiwBSEuVrXoUHASMg0DK7VSyfUrYxQobJHY/+vHRDecdbF1P7/IuKpIaBwjkEgRAAARAAASqMAFISxWufBQdBIyEQKR/jIOd657fj8cG3i1/H0ty3JMzu30cbF1d1nrmvsJyYUZyEyCbIAACIAACVZsApKVq1z9KDwLGQEAmk3m7hTjYujrZeyRGppTTW3yPhb2ZJ3P8+eOXxlB65BEEQAAEQAAEQICFtOAmAAEQMAICRZKiE1svOdi6Hv/z4oOYVK29JeJyvIPd0V12R+9FPzSCYiOLIAACIAACIAACbwhAWnAjgAAIGAeB7IzXzn94yNf7+uP0La0WEwu7ELvn9+MOtq5hl24aR5mRSxAAARAAARAAgTcEIC24EUAABIyGQOr9p46L3OTTUVZ73ot6pFF/S+CpiF12Rx1sXS86BUilmHxvNJWOjIIACIAACIAAy2J4GO4CEAABoyJwK+Seg52rfBHk7VeS456o6S3Rfgm7F8ht5+jG84X52JXFqKocmQUBEAABEAABSAvuARAAAaMj8CQx3cne3cHW9YpLsDrScic0af+ykw62rie2XMz657XRlRcZBgEQAAEQAAEQwPAw3AMgAALGR+BxYtruhfL59NfP3lTtLQ9iUl3Xn3OwdT27xxd9LMZX08gxCIAACIAACLwhAGnBjQACIGCUBK4cCXawdd2/9GRSrKpBYmSBYwdb16yX6GMxyopGpkEABEAABEAAc1pwD4AACBgrgex/csggMS+nQGWdLbdDk/YtPeFg6xruFWus5US+QQAEQAAEQAAEMKcF9wAIgIDxEkhLerb3zRLGgR6Rit5yL+qRy2pPB1tXr0OBMqnMeIuJnIMACIAACIAACGB4GO4BEAABIyYQG5zgYOe6e6HbTd87XG9JjntyattlB1tXt80XCgskRlxCZB0EQAAEQAAEQAA9LbgHQAAEjJ2Ar6d8csuBZacSwpOpt3gfuS4/ufxUXmq+sRcQ+QcBEAABEAABEEBPC+4BEAAB4yYgLZKe3ePrYOvquv7cg+jHKfFp18/edLB1dVzk9vhuunGXDbkHARAAARAAARB4QwDSghsBBEDA6AlICiRH1p91sHU9te1ykMcNx9+OOdi5Bl4KMfqCoQAgAAIgAAIgAAJvCEBacCOAAAiIgcCLJxn7lsgXCiM/3kevi6FUKAMIgAAIgAAIgMAbApAW3AggAAIiIXA/9uEuO7m0eDhcKSosEkmpUAwQAAEQAAEQAAFMxMc9AAIgICYCNwISPXf75GRjuTAx1SrKAgIgAAIgAAIselpwE4AACIAACIAACIAACIAACBg0AUiLQVcPMgcCIAACIAACIAACIAACIABpwT0AAiAAAiAAAiAAAiAAAiBg0AQgLQZdPcgcCIAACIAACIAACIAACIAApAX3AAiAAAiAAAiAAAiAAAiAgEETgLQYdPUgcyAAAiAAAiAAAiAAAiAAApAW3AMgAAIgAAIgAAIgAAIgAAIGTQDSYtDVg8yBAAiAAAiAAAiAAAiAAAhAWnAPgAAIgAAIgAAIgAAIgAAIGDQBSItBVw8yBwIgAAIgAAIgAAIgAAIgAGnBPQACIAACIAACIAACIAACIGDQBCAtBl09yBwIgAAIgAAIgAAIgAAIgACkBfcACIAACIAACIAACIAACICAQROAtBh09SBzIAACIAACIAACIAACIAACkBbcAyAAAiAAAiAAAiAAAiAAAgZN4P8Bzl+h2dAmIagAAAAASUVORK5CYII=;" vertex="1" parent="1">
          <mxGeometry x="-490" y="-48.22" width="254" height="228.22" as="geometry" />
        </mxCell>
        <mxCell id="Qs5tFnQ5pcPWy0FM0qQY-58" style="edgeStyle=orthogonalEdgeStyle;rounded=0;orthogonalLoop=1;jettySize=auto;html=1;entryX=0.126;entryY=0.005;entryDx=0;entryDy=0;entryPerimeter=0;" edge="1" parent="1" source="Qs5tFnQ5pcPWy0FM0qQY-25" target="Qs5tFnQ5pcPWy0FM0qQY-53">
          <mxGeometry relative="1" as="geometry">
            <mxPoint x="-420" y="390" as="targetPoint" />
            <Array as="points">
              <mxPoint x="-415" y="390" />
            </Array>
          </mxGeometry>
        </mxCell>
        <mxCell id="Qs5tFnQ5pcPWy0FM0qQY-62" style="edgeStyle=orthogonalEdgeStyle;rounded=0;orthogonalLoop=1;jettySize=auto;html=1;entryX=0.004;entryY=0.489;entryDx=0;entryDy=0;entryPerimeter=0;" edge="1" parent="1" target="Qs5tFnQ5pcPWy0FM0qQY-2">
          <mxGeometry relative="1" as="geometry">
            <mxPoint x="-295" y="389.17" as="sourcePoint" />
            <mxPoint x="10" y="389.17" as="targetPoint" />
            <Array as="points">
              <mxPoint x="10" y="389" />
            </Array>
          </mxGeometry>
        </mxCell>
      </root>
    </mxGraphModel>
  </diagram>
</mxfile>
